Ravi Prakash-Regular.ufo
<glyph name="exclam" format="1">
  <advance width="203"/>
  <unicode hex="0021"/>
  <outline>
    <contour>
      <point x="118" y="411"/>
      <point x="97" y="199"/>
      <point x="88" y="140" type="curve"/>
      <point x="63" y="142" type="line"/>
      <point x="58" y="167"/>
      <point x="0" y="452"/>
      <point x="0" y="465" type="curve" smooth="yes"/>
      <point x="0" y="501"/>
      <point x="18" y="524"/>
      <point x="43" y="527" type="curve"/>
      <point x="96" y="531"/>
      <point x="136" y="505"/>
      <point x="121" y="440" type="curve"/>
    </contour>
    <contour>
      <point x="133" y="73"/>
      <point x="132" y="55"/>
      <point x="125" y="40" type="curve" smooth="yes"/>
      <point x="117" y="24"/>
      <point x="103" y="9"/>
      <point x="84" y="2" type="curve"/>
      <point x="65" y="-3"/>
      <point x="49" y="3"/>
      <point x="38" y="13" type="curve"/>
      <point x="26" y="23"/>
      <point x="19" y="38"/>
      <point x="16" y="50" type="curve"/>
      <point x="15" y="57"/>
      <point x="17" y="68"/>
      <point x="22" y="77" type="curve" smooth="yes"/>
      <point x="27" y="86"/>
      <point x="34" y="96"/>
      <point x="42" y="104" type="curve"/>
      <point x="49" y="112"/>
      <point x="56" y="117"/>
      <point x="63" y="118" type="curve"/>
      <point x="78" y="119"/>
      <point x="91" y="118"/>
      <point x="104" y="111" type="curve" smooth="yes"/>
      <point x="116" y="104"/>
      <point x="125" y="96"/>
      <point x="130" y="84" type="curve"/>
    </contour>
  </outline>
</glyph>
<glyph name="quotedbl" format="1">
  <advance width="362"/>
  <unicode hex="0022"/>
  <outline>
	<contour>
	  <point x="62" y="367" type="line"/>
	  <point x="32" y="581" type="line"/>
	  <point x="146" y="590" type="line"/>
	  <point x="123" y="370" type="line"/>
	</contour>
	<contour>
	  <point x="246" y="367" type="line"/>
	  <point x="216" y="581" type="line"/>
	  <point x="330" y="590" type="line"/>
	  <point x="307" y="370" type="line"/>
	</contour>
  </outline>
</glyph>
<glyph name="numbersign" format="1">
  <advance width="635"/>
  <unicode hex="0023"/>
  <outline>
	<contour>
	  <point x="313" y="-54" type="line"/>
	  <point x="356" y="103" type="line"/>
	  <point x="187" y="103" type="line"/>
	  <point x="129" y="-73" type="line"/>
	  <point x="73" y="-54" type="line"/>
	  <point x="116" y="103" type="line"/>
	  <point x="40" y="103" type="line"/>
	  <point x="51" y="170" type="line"/>
	  <point x="136" y="173" type="line"/>
	  <point x="175" y="316" type="line"/>
	  <point x="64" y="311" type="line"/>
	  <point x="75" y="399" type="line"/>
	  <point x="198" y="399" type="line"/>
	  <point x="252" y="591" type="line"/>
	  <point x="342" y="566" type="line"/>
	  <point x="286" y="399" type="line"/>
	  <point x="438" y="399" type="line"/>
	  <point x="492" y="591" type="line"/>
	  <point x="582" y="566" type="line"/>
	  <point x="526" y="399" type="line"/>
	  <point x="595" y="399" type="line"/>
	  <point x="583" y="333" type="line"/>
	  <point x="502" y="330" type="line"/>
	  <point x="454" y="186" type="line"/>
	  <point x="571" y="191" type="line"/>
	  <point x="559" y="103" type="line"/>
	  <point x="427" y="103" type="line"/>
	  <point x="369" y="-73" type="line"/>
	</contour>
	<contour>
	  <point x="259" y="319" type="line"/>
	  <point x="211" y="176" type="line"/>
	  <point x="378" y="183" type="line"/>
	  <point x="418" y="326" type="line"/>
	</contour>
  </outline>
</glyph>
<glyph name="dollar" format="1">
  <advance width="459"/>
  <unicode hex="0024"/>
  <outline>
    <contour>
      <point x="115" y="362"/>
      <point x="142" y="414"/>
      <point x="195" y="465" type="curve"/>
      <point x="184" y="599" type="line"/>
      <point x="264" y="599" type="line"/>
      <point x="257" y="516" type="line"/>
      <point x="270" y="526"/>
      <point x="292" y="541"/>
      <point x="321" y="560" type="curve"/>
      <point x="418" y="430" type="line"/>
      <point x="334" y="402"/>
      <point x="279" y="354"/>
      <point x="279" y="305" type="curve" smooth="yes"/>
      <point x="279" y="288"/>
      <point x="286" y="261"/>
      <point x="298" y="223" type="curve" smooth="yes"/>
      <point x="310" y="186"/>
      <point x="317" y="158"/>
      <point x="317" y="142" type="curve" smooth="yes"/>
      <point x="317" y="98"/>
      <point x="296" y="61"/>
      <point x="254" y="30" type="curve"/>
      <point x="264" y="-90" type="line"/>
      <point x="184" y="-90" type="line"/>
      <point x="191" y="-3" type="line"/>
      <point x="163" y="-15"/>
      <point x="127" y="-26"/>
      <point x="82" y="-36" type="curve"/>
      <point x="65" y="16" type="line"/>
      <point x="139" y="37"/>
      <point x="176" y="74"/>
      <point x="176" y="127" type="curve" smooth="yes"/>
      <point x="176" y="141"/>
      <point x="171" y="157"/>
      <point x="161" y="176" type="curve" smooth="yes"/>
      <point x="141" y="214"/>
      <point x="115" y="262"/>
      <point x="115" y="307" type="curve" smooth="yes"/>
    </contour>
  </outline>
</glyph>
<glyph name="ampersand" format="1">
  <advance width="492"/>
  <unicode hex="0026"/>
  <outline>
	<contour>
	  <point x="291" y="-10" type="line"/>
	  <point x="264" y="-11" type="line" smooth="yes"/>
	  <point x="182" y="-11"/>
	  <point x="107" y="10"/>
	  <point x="70" y="41" type="curve"/>
	  <point x="61" y="83"/>
	  <point x="56" y="128"/>
	  <point x="56" y="174" type="curve" smooth="yes"/>
	  <point x="56" y="330"/>
	  <point x="110" y="478"/>
	  <point x="222" y="560" type="curve"/>
	  <point x="377" y="462" type="line"/>
	  <point x="298" y="412"/>
	  <point x="237" y="348"/>
	  <point x="194" y="270" type="curve"/>
	  <point x="516" y="283" type="line"/>
	  <point x="514" y="230" type="line"/>
	  <point x="429" y="220" type="line"/>
	  <point x="416" y="143"/>
	  <point x="394" y="14"/>
	  <point x="361" y="-167" type="curve"/>
	  <point x="308" y="-174" type="line"/>
	</contour>
	<contour>
	  <point x="166" y="58"/>
	  <point x="194" y="55"/>
	  <point x="218" y="55" type="curve" smooth="yes"/>
	  <point x="243" y="55"/>
	  <point x="265" y="57"/>
	  <point x="284" y="60" type="curve"/>
	  <point x="269" y="202" type="line"/>
	  <point x="158" y="189" type="line"/>
	  <point x="144" y="146"/>
	  <point x="137" y="105"/>
	  <point x="137" y="64" type="curve"/>
	</contour>
  </outline>
</glyph>
<glyph name="quotesingle" format="1">
  <advance width="178"/>
  <unicode hex="0027"/>
  <outline>
	<contour>
	  <point x="62" y="367" type="line"/>
	  <point x="32" y="581" type="line"/>
	  <point x="146" y="590" type="line"/>
	  <point x="123" y="370" type="line"/>
	</contour>
  </outline>
</glyph>
<glyph name="parenleft" format="1">
  <advance width="401"/>
  <unicode hex="0028"/>
  <outline>
	<contour>
	  <point x="263" y="477"/>
	  <point x="232" y="474"/>
	  <point x="206" y="463" type="curve" smooth="yes"/>
	  <point x="193" y="458"/>
	  <point x="185" y="449"/>
	  <point x="184" y="436" type="curve"/>
	  <point x="180" y="420"/>
	  <point x="177" y="385"/>
	  <point x="176" y="343" type="curve" smooth="yes"/>
	  <point x="175" y="301"/>
	  <point x="174" y="253"/>
	  <point x="175" y="212" type="curve" smooth="yes"/>
	  <point x="175" y="171"/>
	  <point x="175" y="136"/>
	  <point x="178" y="123" type="curve"/>
	  <point x="181" y="104"/>
	  <point x="198" y="86"/>
	  <point x="218" y="74" type="curve" smooth="yes"/>
	  <point x="238" y="62"/>
	  <point x="261" y="54"/>
	  <point x="276" y="61" type="curve"/>
	  <point x="276" y="0" type="line"/>
	  <point x="236" y="0"/>
	  <point x="204" y="5"/>
	  <point x="176" y="19" type="curve" smooth="yes"/>
	  <point x="148" y="33"/>
	  <point x="145" y="50"/>
	  <point x="134" y="93" type="curve" smooth="yes"/>
	  <point x="122" y="136"/>
	  <point x="109" y="193"/>
	  <point x="98" y="257" type="curve" smooth="yes"/>
	  <point x="86" y="320"/>
	  <point x="80" y="379"/>
	  <point x="84" y="424" type="curve" smooth="yes"/>
	  <point x="87" y="469"/>
	  <point x="109" y="488"/>
	  <point x="143" y="512" type="curve" smooth="yes"/>
	  <point x="177" y="535"/>
	  <point x="212" y="554"/>
	  <point x="240" y="564" type="curve" smooth="yes"/>
	  <point x="254" y="569"/>
	  <point x="264" y="571"/>
	  <point x="270" y="571" type="curve"/>
	  <point x="273" y="564"/>
	  <point x="277" y="554"/>
	  <point x="281" y="543" type="curve" smooth="yes"/>
	  <point x="289" y="520"/>
	  <point x="296" y="500"/>
	  <point x="307" y="473" type="curve"/>
	</contour>
  </outline>
</glyph>
<glyph name="parenright" format="1">
  <advance width="422"/>
  <unicode hex="0029"/>
  <outline>
    <contour>
      <point x="80" y="500"/>
      <point x="88" y="520"/>
      <point x="97" y="543" type="curve" smooth="yes"/>
      <point x="101" y="554"/>
      <point x="105" y="564"/>
      <point x="109" y="571" type="curve"/>
      <point x="121" y="571"/>
      <point x="152" y="561"/>
      <point x="186" y="543" type="curve" smooth="yes"/>
      <point x="220" y="525"/>
      <point x="256" y="501"/>
      <point x="281" y="473" type="curve"/>
      <point x="297" y="453"/>
      <point x="299" y="404"/>
      <point x="294" y="347" type="curve" smooth="yes"/>
      <point x="289" y="290"/>
      <point x="275" y="223"/>
      <point x="263" y="167" type="curve" smooth="yes"/>
      <point x="251" y="111"/>
      <point x="238" y="65"/>
      <point x="231" y="49" type="curve"/>
      <point x="222" y="22"/>
      <point x="189" y="9"/>
      <point x="160" y="4" type="curve" smooth="yes"/>
      <point x="142" y="1"/>
      <point x="123" y="0"/>
      <point x="102" y="0" type="curve"/>
      <point x="102" y="61" type="line"/>
      <point x="118" y="54"/>
      <point x="140" y="62"/>
      <point x="161" y="74" type="curve" smooth="yes"/>
      <point x="181" y="86"/>
      <point x="198" y="104"/>
      <point x="201" y="123" type="curve"/>
      <point x="202" y="136"/>
      <point x="204" y="171"/>
      <point x="205" y="212" type="curve" smooth="yes"/>
      <point x="205" y="253"/>
      <point x="204" y="301"/>
      <point x="203" y="343" type="curve" smooth="yes"/>
      <point x="202" y="385"/>
      <point x="199" y="420"/>
      <point x="195" y="436" type="curve"/>
      <point x="192" y="461"/>
      <point x="162" y="470"/>
      <point x="131" y="473" type="curve" smooth="yes"/>
      <point x="113" y="475"/>
      <point x="93" y="475"/>
      <point x="72" y="473" type="curve"/>
    </contour>
  </outline>
</glyph>
<glyph name="asterisk" format="1">
  <advance width="457"/>
  <unicode hex="002A"/>
  <outline>
    <contour>
      <point x="273" y="558" type="line"/>
      <point x="256" y="434" type="line"/>
      <point x="346" y="511" type="line"/>
      <point x="401" y="432" type="line"/>
      <point x="286" y="385" type="line"/>
      <point x="398" y="346" type="line"/>
      <point x="356" y="258" type="line"/>
      <point x="258" y="334" type="line"/>
      <point x="280" y="218" type="line"/>
      <point x="184" y="210" type="line"/>
      <point x="200" y="333" type="line"/>
      <point x="110" y="257" type="line"/>
      <point x="56" y="336" type="line"/>
      <point x="170" y="382" type="line"/>
      <point x="59" y="422" type="line"/>
      <point x="101" y="510" type="line"/>
      <point x="198" y="433" type="line"/>
      <point x="177" y="550" type="line"/>
    </contour>
  </outline>
</glyph>
<glyph name="plus" format="1">
  <advance width="421"/>
  <unicode hex="002B"/>
  <outline>
    <contour>
      <point x="251" y="421" type="line"/>
      <point x="252" y="286" type="line"/>
      <point x="388" y="287" type="line"/>
      <point x="371" y="189" type="line"/>
      <point x="252" y="189" type="line"/>
      <point x="252" y="70" type="line"/>
      <point x="155" y="70" type="line"/>
      <point x="155" y="189" type="line"/>
      <point x="24" y="188" type="line"/>
      <point x="35" y="286" type="line"/>
      <point x="155" y="286" type="line"/>
      <point x="155" y="406" type="line"/>
    </contour>
  </outline>
</glyph>
<glyph name="comma" format="1">
  <advance width="191"/>
  <unicode hex="002C"/>
  <outline>
    <contour>
      <point x="34" y="-49" type="line"/>
      <point x="45" y="-43"/>
      <point x="51" y="-34"/>
      <point x="51" y="-22" type="curve" smooth="yes"/>
      <point x="51" y="-13"/>
      <point x="48" y="-7"/>
      <point x="43" y="-4" type="curve"/>
      <point x="41" y="-4"/>
      <point x="39" y="-4"/>
      <point x="37" y="-3" type="curve"/>
      <point x="30" y="0"/>
      <point x="24" y="2"/>
      <point x="16" y="9" type="curve"/>
      <point x="7" y="16"/>
      <point x="3" y="26"/>
      <point x="2" y="39" type="curve"/>
      <point x="1" y="44"/>
      <point x="2" y="53"/>
      <point x="6" y="62" type="curve"/>
      <point x="10" y="70"/>
      <point x="16" y="79"/>
      <point x="23" y="85" type="curve" smooth="yes"/>
      <point x="30" y="91"/>
      <point x="37" y="95"/>
      <point x="42" y="96" type="curve"/>
      <point x="54" y="97"/>
      <point x="67" y="95"/>
      <point x="77" y="91" type="curve"/>
      <point x="87" y="86"/>
      <point x="94" y="79"/>
      <point x="99" y="68" type="curve"/>
      <point x="100" y="68" type="line"/>
      <point x="113" y="43"/>
      <point x="110" y="13"/>
      <point x="91" y="-23" type="curve"/>
      <point x="82" y="-38"/>
      <point x="68" y="-50"/>
      <point x="49" y="-57" type="curve"/>
    </contour>
  </outline>
</glyph>
<glyph name="hyphen" format="1">
  <advance width="441"/>
  <unicode hex="002D"/>
  <outline>
    <contour>
      <point x="371" y="189" type="line"/>
      <point x="17" y="189" type="line"/>
      <point x="35" y="286" type="line"/>
      <point x="392" y="289" type="line"/>
    </contour>
  </outline>
</glyph>
<glyph name="period" format="1">
  <advance width="185"/>
  <unicode hex="002E"/>
  <outline>
	<contour>
	  <point x="118" y="73"/>
	  <point x="117" y="55"/>
	  <point x="109" y="40" type="curve" smooth="yes"/>
	  <point x="101" y="24"/>
	  <point x="88" y="9"/>
	  <point x="69" y="2" type="curve"/>
	  <point x="49" y="-3"/>
	  <point x="34" y="3"/>
	  <point x="22" y="13" type="curve" smooth="yes"/>
	  <point x="10" y="23"/>
	  <point x="4" y="38"/>
	  <point x="1" y="50" type="curve"/>
	  <point x="0" y="57"/>
	  <point x="2" y="68"/>
	  <point x="7" y="77" type="curve"/>
	  <point x="11" y="86"/>
	  <point x="18" y="96"/>
	  <point x="26" y="104" type="curve" smooth="yes"/>
	  <point x="34" y="112"/>
	  <point x="41" y="117"/>
	  <point x="48" y="118" type="curve"/>
	  <point x="61" y="119"/>
	  <point x="76" y="118"/>
	  <point x="88" y="111" type="curve" smooth="yes"/>
	  <point x="100" y="104"/>
	  <point x="110" y="96"/>
	  <point x="115" y="84" type="curve"/>
	</contour>
  </outline>
</glyph>
<glyph name="slash" format="1">
  <advance width="381"/>
  <unicode hex="002F"/>
  <outline>
    <contour>
      <point x="312" y="512" type="line"/>
      <point x="98" y="-25" type="line"/>
      <point x="3" y="-25" type="line"/>
      <point x="214" y="512" type="line"/>
    </contour>
  </outline>
</glyph>
<glyph name="one" format="1">
  <advance width="352"/>
  <unicode hex="0031"/>
  <outline>
    <contour>
      <point x="171" y="131"/>
      <point x="191" y="66"/>
      <point x="210" y="6" type="curve"/>
      <point x="170" y="17"/>
      <point x="122" y="22"/>
      <point x="73" y="3" type="curve"/>
      <point x="57" y="-1"/>
      <point x="53" y="8"/>
      <point x="53" y="30" type="curve" smooth="yes"/>
      <point x="53" y="41"/>
      <point x="54" y="54"/>
      <point x="56" y="70" type="curve"/>
      <point x="57" y="86"/>
      <point x="58" y="104"/>
      <point x="59" y="125" type="curve" smooth="yes"/>
      <point x="67" y="236"/>
      <point x="73" y="317"/>
      <point x="73" y="374" type="curve" smooth="yes"/>
      <point x="73" y="379"/>
      <point x="73" y="385"/>
      <point x="74" y="392" type="curve"/>
      <point x="74" y="405"/>
      <point x="71" y="417"/>
      <point x="56" y="418" type="curve"/>
      <point x="49" y="418"/>
      <point x="38" y="414"/>
      <point x="24" y="407" type="curve"/>
      <point x="17" y="402"/>
      <point x="14" y="406"/>
      <point x="11" y="410" type="curve"/>
      <point x="9" y="411"/>
      <point x="8" y="413"/>
      <point x="8" y="415" type="curve" smooth="yes"/>
      <point x="8" y="417"/>
      <point x="9" y="419"/>
      <point x="10" y="420" type="curve"/>
      <point x="19" y="425"/>
      <point x="30" y="433"/>
      <point x="45" y="443" type="curve" smooth="yes"/>
      <point x="73" y="462"/>
      <point x="107" y="480"/>
      <point x="142" y="496" type="curve" smooth="yes"/>
      <point x="159" y="504"/>
      <point x="175" y="509"/>
      <point x="190" y="511" type="curve"/>
      <point x="191" y="511"/>
      <point x="190" y="502"/>
      <point x="189" y="483" type="curve" smooth="yes"/>
      <point x="186" y="446"/>
      <point x="182" y="387"/>
      <point x="178" y="317" type="curve" smooth="yes"/>
      <point x="176" y="282"/>
      <point x="175" y="248"/>
      <point x="174" y="216" type="curve" smooth="yes"/>
    </contour>
  </outline>
</glyph>
<glyph name="two" format="1">
  <advance width="594"/>
  <unicode hex="0032"/>
  <outline>
	<contour>
	  <point x="392" y="10"/>
	  <point x="339" y="15"/>
	  <point x="288" y="20" type="curve" smooth="yes"/>
	  <point x="236" y="25"/>
	  <point x="188" y="30"/>
	  <point x="171" y="30" type="curve" smooth="yes"/>
	  <point x="128" y="30"/>
	  <point x="83" y="16"/>
	  <point x="63" y="0" type="curve"/>
	  <point x="40" y="39"/>
	  <point x="23" y="66"/>
	  <point x="7" y="115" type="curve"/>
	  <point x="32" y="131"/>
	  <point x="71" y="156"/>
	  <point x="114" y="185" type="curve" smooth="yes"/>
	  <point x="157" y="214"/>
	  <point x="202" y="249"/>
	  <point x="237" y="287" type="curve" smooth="yes"/>
	  <point x="272" y="325"/>
	  <point x="296" y="367"/>
	  <point x="296" y="410" type="curve" smooth="yes"/>
	  <point x="296" y="427"/>
	  <point x="287" y="438"/>
	  <point x="275" y="446" type="curve" smooth="yes"/>
	  <point x="263" y="454"/>
	  <point x="249" y="456"/>
	  <point x="237" y="456" type="curve" smooth="yes"/>
	  <point x="193" y="456"/>
	  <point x="160" y="435"/>
	  <point x="136" y="410" type="curve" smooth="yes"/>
	  <point x="112" y="385"/>
	  <point x="95" y="355"/>
	  <point x="86" y="338" type="curve"/>
	  <point x="85" y="338"/>
	  <point x="81" y="342"/>
	  <point x="76" y="351" type="curve"/>
	  <point x="70" y="360"/>
	  <point x="63" y="369"/>
	  <point x="55" y="379" type="curve"/>
	  <point x="27" y="420" type="line"/>
	  <point x="38" y="429"/>
	  <point x="51" y="440"/>
	  <point x="65" y="452" type="curve" smooth="yes"/>
	  <point x="93" y="475"/>
	  <point x="127" y="496"/>
	  <point x="171" y="509" type="curve" smooth="yes"/>
	  <point x="192" y="515"/>
	  <point x="217" y="518"/>
	  <point x="244" y="518" type="curve" smooth="yes"/>
	  <point x="320" y="518"/>
	  <point x="365" y="501"/>
	  <point x="389" y="477" type="curve" smooth="yes"/>
	  <point x="413" y="452"/>
	  <point x="417" y="419"/>
	  <point x="414" y="390" type="curve" smooth="yes"/>
	  <point x="406" y="331"/>
	  <point x="391" y="293"/>
	  <point x="369" y="264" type="curve" smooth="yes"/>
	  <point x="347" y="235"/>
	  <point x="318" y="216"/>
	  <point x="284" y="193" type="curve" smooth="yes"/>
	  <point x="250" y="170"/>
	  <point x="211" y="146"/>
	  <point x="168" y="109" type="curve"/>
	  <point x="181" y="109"/>
	  <point x="192" y="109"/>
	  <point x="202" y="109" type="curve" smooth="yes"/>
	  <point x="212" y="109"/>
	  <point x="222" y="109"/>
	  <point x="231" y="108" type="curve" smooth="yes"/>
	  <point x="240" y="107"/>
	  <point x="248" y="106"/>
	  <point x="257" y="105" type="curve" smooth="yes"/>
	  <point x="266" y="104"/>
	  <point x="275" y="103"/>
	  <point x="286" y="101" type="curve"/>
	  <point x="371" y="94"/>
	  <point x="432" y="118"/>
	  <point x="463" y="151" type="curve"/>
	  <point x="452" y="100"/>
	  <point x="446" y="65"/>
	  <point x="442" y="43" type="curve" smooth="yes"/>
	  <point x="440" y="32"/>
	  <point x="438" y="23"/>
	  <point x="435" y="18" type="curve" smooth="yes"/>
	  <point x="432" y="13"/>
	  <point x="429" y="10"/>
	  <point x="424" y="10" type="curve" smooth="yes"/>
	</contour>
  </outline>
</glyph>
<glyph name="three" format="1">
  <advance width="560"/>
  <unicode hex="0033"/>
  <outline>
    <contour>
      <point x="179" y="3"/>
      <point x="154" y="3"/>
      <point x="131" y="3" type="curve" smooth="yes"/>
      <point x="83" y="2"/>
      <point x="46" y="14"/>
      <point x="22" y="51" type="curve"/>
      <point x="9" y="69"/>
      <point x="2" y="97"/>
      <point x="-1" y="134" type="curve"/>
      <point x="-1" y="136"/>
      <point x="3" y="138"/>
      <point x="10" y="139" type="curve" smooth="yes"/>
      <point x="17" y="140"/>
      <point x="26" y="140"/>
      <point x="37" y="141" type="curve"/>
      <point x="60" y="142"/>
      <point x="89" y="144"/>
      <point x="114" y="147" type="curve"/>
      <point x="111" y="118"/>
      <point x="122" y="95"/>
      <point x="147" y="79" type="curve"/>
      <point x="159" y="70"/>
      <point x="177" y="66"/>
      <point x="202" y="66" type="curve" smooth="yes"/>
      <point x="258" y="66"/>
      <point x="297" y="88"/>
      <point x="310" y="137" type="curve" smooth="yes"/>
      <point x="322" y="186"/>
      <point x="297" y="207"/>
      <point x="248" y="219" type="curve"/>
      <point x="227" y="223"/>
      <point x="211" y="230"/>
      <point x="203" y="238" type="curve"/>
      <point x="199" y="241"/>
      <point x="197" y="245"/>
      <point x="197" y="248" type="curve" smooth="yes"/>
      <point x="197" y="251"/>
      <point x="200" y="254"/>
      <point x="205" y="256" type="curve" smooth="yes"/>
      <point x="234" y="268"/>
      <point x="255" y="280"/>
      <point x="268" y="297" type="curve" smooth="yes"/>
      <point x="281" y="314"/>
      <point x="287" y="339"/>
      <point x="287" y="380" type="curve" smooth="yes"/>
      <point x="287" y="401"/>
      <point x="279" y="414"/>
      <point x="268" y="421" type="curve" smooth="yes"/>
      <point x="257" y="428"/>
      <point x="243" y="429"/>
      <point x="228" y="429" type="curve"/>
      <point x="163" y="434"/>
      <point x="135" y="410"/>
      <point x="126" y="387" type="curve" smooth="yes"/>
      <point x="120" y="373"/>
      <point x="119" y="357"/>
      <point x="123" y="338" type="curve"/>
      <point x="25" y="387" type="line"/>
      <point x="24" y="434"/>
      <point x="45" y="460"/>
      <point x="83" y="473" type="curve" smooth="yes"/>
      <point x="121" y="486"/>
      <point x="172" y="488"/>
      <point x="231" y="488" type="curve" smooth="yes"/>
      <point x="274" y="488"/>
      <point x="320" y="486"/>
      <point x="355" y="474" type="curve" smooth="yes"/>
      <point x="390" y="462"/>
      <point x="413" y="439"/>
      <point x="412" y="396" type="curve"/>
      <point x="410" y="367"/>
      <point x="407" y="344"/>
      <point x="404" y="328" type="curve" smooth="yes"/>
      <point x="397" y="295"/>
      <point x="387" y="280"/>
      <point x="370" y="274" type="curve" smooth="yes"/>
      <point x="361" y="271"/>
      <point x="351" y="268"/>
      <point x="339" y="265" type="curve"/>
      <point x="360" y="261"/>
      <point x="381" y="248"/>
      <point x="396" y="227" type="curve" smooth="yes"/>
      <point x="411" y="206"/>
      <point x="417" y="177"/>
      <point x="409" y="141" type="curve" smooth="yes"/>
      <point x="400" y="98"/>
      <point x="391" y="66"/>
      <point x="382" y="46" type="curve"/>
      <point x="362" y="6"/>
      <point x="332" y="-4"/>
      <point x="288" y="0" type="curve" smooth="yes"/>
      <point x="265" y="2"/>
      <point x="238" y="3"/>
      <point x="205" y="3" type="curve" smooth="yes"/>
    </contour>
  </outline>
</glyph>
<glyph name="four" format="1">
  <advance width="649"/>
  <unicode hex="0034"/>
  <outline>
    <contour>
      <point x="361" y="0" type="line"/>
      <point x="350" y="5"/>
      <point x="339" y="10"/>
      <point x="323" y="14" type="curve"/>
      <point x="314" y="15"/>
      <point x="305" y="16"/>
      <point x="296" y="16" type="curve" smooth="yes"/>
      <point x="288" y="16"/>
      <point x="281" y="15"/>
      <point x="274" y="12" type="curve" smooth="yes"/>
      <point x="260" y="6"/>
      <point x="249" y="1"/>
      <point x="244" y="4" type="curve"/>
      <point x="241" y="5"/>
      <point x="240" y="10"/>
      <point x="240" y="19" type="curve" smooth="yes"/>
      <point x="240" y="95" type="line"/>
      <point x="233" y="94"/>
      <point x="223" y="93"/>
      <point x="208" y="93" type="curve" smooth="yes"/>
      <point x="179" y="93"/>
      <point x="141" y="96"/>
      <point x="102" y="104" type="curve" smooth="yes"/>
      <point x="63" y="111"/>
      <point x="31" y="121"/>
      <point x="14" y="137" type="curve"/>
      <point x="5" y="144"/>
      <point x="3" y="153"/>
      <point x="7" y="164" type="curve"/>
      <point x="14" y="199"/>
      <point x="31" y="239"/>
      <point x="52" y="277" type="curve" smooth="yes"/>
      <point x="73" y="315"/>
      <point x="99" y="352"/>
      <point x="124" y="387" type="curve" smooth="yes"/>
      <point x="153" y="426"/>
      <point x="185" y="466"/>
      <point x="220" y="505" type="curve"/>
      <point x="263" y="502"/>
      <point x="295" y="499"/>
      <point x="327" y="496" type="curve"/>
      <point x="342" y="494"/>
      <point x="354" y="493"/>
      <point x="361" y="492" type="curve"/>
      <point x="361" y="183" type="line"/>
      <point x="382" y="184"/>
      <point x="404" y="188"/>
      <point x="426" y="194" type="curve" smooth="yes"/>
      <point x="447" y="199"/>
      <point x="466" y="204"/>
      <point x="482" y="207" type="curve"/>
      <point x="477" y="188"/>
      <point x="472" y="171"/>
      <point x="468" y="154" type="curve" smooth="yes"/>
      <point x="464" y="137"/>
      <point x="461" y="126"/>
      <point x="460" y="121" type="curve"/>
      <point x="443" y="116"/>
      <point x="426" y="113"/>
      <point x="409" y="110" type="curve" smooth="yes"/>
      <point x="392" y="107"/>
      <point x="376" y="104"/>
      <point x="361" y="101" type="curve"/>
    </contour>
    <contour>
      <point x="95" y="179"/>
      <point x="122" y="172"/>
      <point x="154" y="172" type="curve"/>
      <point x="170" y="171"/>
      <point x="187" y="172"/>
      <point x="204" y="174" type="curve"/>
      <point x="221" y="175"/>
      <point x="234" y="176"/>
      <point x="243" y="177" type="curve"/>
      <point x="244" y="180"/>
      <point x="244" y="187"/>
      <point x="245" y="198" type="curve"/>
      <point x="246" y="219"/>
      <point x="248" y="249"/>
      <point x="249" y="285" type="curve" smooth="yes"/>
      <point x="249" y="302"/>
      <point x="249" y="319"/>
      <point x="250" y="336" type="curve" smooth="yes"/>
      <point x="251" y="353"/>
      <point x="251" y="369"/>
      <point x="252" y="384" type="curve"/>
      <point x="252" y="399"/>
      <point x="252" y="411"/>
      <point x="253" y="420" type="curve"/>
      <point x="227" y="386"/>
      <point x="203" y="355"/>
      <point x="182" y="326" type="curve" smooth="yes"/>
      <point x="173" y="313"/>
      <point x="165" y="301"/>
      <point x="156" y="288" type="curve" smooth="yes"/>
      <point x="138" y="262"/>
      <point x="123" y="238"/>
      <point x="112" y="221" type="curve"/>
      <point x="107" y="212"/>
      <point x="103" y="205"/>
      <point x="102" y="200" type="curve"/>
    </contour>
  </outline>
</glyph>
<glyph name="five" format="1">
  <advance width="523"/>
  <unicode hex="0035"/>
  <outline>
	<contour>
	  <point x="365" y="387" type="line"/>
	  <point x="334" y="386"/>
	  <point x="305" y="386"/>
	  <point x="278" y="385" type="curve" smooth="yes"/>
	  <point x="230" y="384"/>
	  <point x="172" y="383"/>
	  <point x="132" y="383" type="curve" smooth="yes"/>
	  <point x="120" y="383"/>
	  <point x="115" y="363"/>
	  <point x="114" y="343" type="curve"/>
	  <point x="113" y="333"/>
	  <point x="113" y="324"/>
	  <point x="114" y="315" type="curve"/>
	  <point x="114" y="306"/>
	  <point x="114" y="300"/>
	  <point x="113" y="298" type="curve"/>
	  <point x="170" y="290"/>
	  <point x="238" y="283"/>
	  <point x="291" y="265" type="curve" smooth="yes"/>
	  <point x="344" y="247"/>
	  <point x="382" y="218"/>
	  <point x="381" y="167" type="curve" smooth="yes"/>
	  <point x="381" y="140"/>
	  <point x="369" y="97"/>
	  <point x="350" y="61" type="curve" smooth="yes"/>
	  <point x="331" y="25"/>
	  <point x="307" y="-2"/>
	  <point x="287" y="6" type="curve"/>
	  <point x="238" y="29"/>
	  <point x="168" y="27"/>
	  <point x="109" y="19" type="curve" smooth="yes"/>
	  <point x="74" y="15"/>
	  <point x="39" y="9"/>
	  <point x="4" y="0" type="curve"/>
	  <point x="4" y="154" type="line"/>
	  <point x="36" y="134"/>
	  <point x="67" y="118"/>
	  <point x="97" y="105" type="curve" smooth="yes"/>
	  <point x="124" y="94"/>
	  <point x="151" y="84"/>
	  <point x="177" y="79" type="curve" smooth="yes"/>
	  <point x="203" y="74"/>
	  <point x="225" y="74"/>
	  <point x="244" y="82" type="curve" smooth="yes"/>
	  <point x="279" y="97"/>
	  <point x="285" y="129"/>
	  <point x="266" y="161" type="curve"/>
	  <point x="246" y="192"/>
	  <point x="202" y="221"/>
	  <point x="142" y="229" type="curve" smooth="yes"/>
	  <point x="132" y="230"/>
	  <point x="120" y="230"/>
	  <point x="107" y="231" type="curve" smooth="yes"/>
	  <point x="93" y="232"/>
	  <point x="80" y="232"/>
	  <point x="67" y="233" type="curve" smooth="yes"/>
	  <point x="52" y="234"/>
	  <point x="36" y="235"/>
	  <point x="20" y="236" type="curve"/>
	  <point x="20" y="325" type="line" smooth="yes"/>
	  <point x="20" y="368"/>
	  <point x="22" y="401"/>
	  <point x="25" y="425" type="curve"/>
	  <point x="26" y="437"/>
	  <point x="28" y="444"/>
	  <point x="31" y="445" type="curve"/>
	  <point x="55" y="448"/>
	  <point x="83" y="452"/>
	  <point x="114" y="455" type="curve" smooth="yes"/>
	  <point x="177" y="462"/>
	  <point x="242" y="469"/>
	  <point x="298" y="476" type="curve" smooth="yes"/>
	  <point x="326" y="479"/>
	  <point x="348" y="482"/>
	  <point x="365" y="485" type="curve"/>
	</contour>
  </outline>
</glyph>
<glyph name="six" format="1">
  <advance width="501"/>
  <unicode hex="0036"/>
  <outline>
    <contour>
      <point x="401" y="204"/>
      <point x="397" y="153"/>
      <point x="371" y="109" type="curve" smooth="yes"/>
      <point x="345" y="64"/>
      <point x="300" y="21"/>
      <point x="233" y="6" type="curve" smooth="yes"/>
      <point x="169" y="-9"/>
      <point x="116" y="7"/>
      <point x="77" y="35" type="curve" smooth="yes"/>
      <point x="37" y="62"/>
      <point x="12" y="102"/>
      <point x="4" y="134" type="curve"/>
      <point x="2" y="140"/>
      <point x="1" y="148"/>
      <point x="1" y="157" type="curve" smooth="yes"/>
      <point x="1" y="170" type="line"/>
      <point x="6" y="211"/>
      <point x="16" y="252"/>
      <point x="32" y="293" type="curve" smooth="yes"/>
      <point x="45" y="326"/>
      <point x="64" y="365"/>
      <point x="92" y="402" type="curve" smooth="yes"/>
      <point x="120" y="438"/>
      <point x="154" y="473"/>
      <point x="201" y="502" type="curve"/>
      <point x="273" y="442" type="line"/>
      <point x="238" y="421"/>
      <point x="206" y="396"/>
      <point x="174" y="364" type="curve" smooth="yes"/>
      <point x="158" y="348"/>
      <point x="144" y="330"/>
      <point x="132" y="311" type="curve"/>
      <point x="144" y="318"/>
      <point x="155" y="322"/>
      <point x="165" y="322" type="curve"/>
      <point x="213" y="325"/>
      <point x="261" y="317"/>
      <point x="301" y="302" type="curve" smooth="yes"/>
      <point x="341" y="286"/>
      <point x="373" y="263"/>
      <point x="388" y="232" type="curve" smooth="yes"/>
    </contour>
    <contour>
      <point x="260" y="62"/>
      <point x="281" y="86"/>
      <point x="291" y="115" type="curve" smooth="yes"/>
      <point x="301" y="144"/>
      <point x="300" y="179"/>
      <point x="283" y="203" type="curve"/>
      <point x="264" y="226"/>
      <point x="239" y="242"/>
      <point x="215" y="250" type="curve" smooth="yes"/>
      <point x="191" y="258"/>
      <point x="167" y="257"/>
      <point x="148" y="246" type="curve"/>
      <point x="136" y="241"/>
      <point x="120" y="222"/>
      <point x="109" y="199" type="curve" smooth="yes"/>
      <point x="98" y="175"/>
      <point x="96" y="146"/>
      <point x="113" y="122" type="curve" smooth="yes"/>
      <point x="130" y="97"/>
      <point x="166" y="75"/>
      <point x="237" y="66" type="curve"/>
    </contour>
  </outline>
</glyph>
<glyph name="seven" format="1">
  <advance width="485"/>
  <unicode hex="0037"/>
  <outline>
    <contour>
      <point x="159" y="19"/>
      <point x="128" y="13"/>
      <point x="106" y="8" type="curve"/>
      <point x="95" y="5"/>
      <point x="86" y="3"/>
      <point x="80" y="2" type="curve"/>
      <point x="74" y="0"/>
      <point x="72" y="1"/>
      <point x="74" y="6" type="curve" smooth="yes"/>
      <point x="102" y="78"/>
      <point x="139" y="162"/>
      <point x="172" y="239" type="curve" smooth="yes"/>
      <point x="205" y="315"/>
      <point x="235" y="385"/>
      <point x="254" y="429" type="curve"/>
      <point x="250" y="421"/>
      <point x="237" y="417"/>
      <point x="223" y="417" type="curve"/>
      <point x="216" y="416"/>
      <point x="208" y="416"/>
      <point x="201" y="416" type="curve" smooth="yes"/>
      <point x="194" y="416"/>
      <point x="188" y="416"/>
      <point x="184" y="416" type="curve" smooth="yes"/>
      <point x="175" y="416"/>
      <point x="161" y="415"/>
      <point x="144" y="414" type="curve" smooth="yes"/>
      <point x="108" y="411"/>
      <point x="68" y="408"/>
      <point x="20" y="403" type="curve"/>
      <point x="18" y="413"/>
      <point x="16" y="423"/>
      <point x="13" y="434" type="curve"/>
      <point x="9" y="454"/>
      <point x="4" y="477"/>
      <point x="1" y="505" type="curve"/>
      <point x="14" y="504"/>
      <point x="29" y="504"/>
      <point x="46" y="504" type="curve" smooth="yes"/>
      <point x="63" y="504"/>
      <point x="81" y="504"/>
      <point x="100" y="504" type="curve" smooth="yes"/>
      <point x="118" y="504"/>
      <point x="137" y="504"/>
      <point x="156" y="504" type="curve" smooth="yes"/>
      <point x="175" y="504"/>
      <point x="194" y="504"/>
      <point x="213" y="504" type="curve" smooth="yes"/>
      <point x="255" y="504"/>
      <point x="299" y="504"/>
      <point x="345" y="505" type="curve"/>
      <point x="352" y="468"/>
      <point x="356" y="441"/>
      <point x="360" y="418" type="curve"/>
      <point x="361" y="407"/>
      <point x="362" y="400"/>
      <point x="361" y="399" type="curve"/>
      <point x="302" y="275"/>
      <point x="247" y="146"/>
      <point x="191" y="10" type="curve"/>
    </contour>
  </outline>
</glyph>
<glyph name="eight" format="1">
  <advance width="517"/>
  <unicode hex="0038"/>
  <outline>
	<contour>
	  <point x="364" y="224"/>
	  <point x="396" y="180"/>
	  <point x="395" y="136" type="curve" smooth="yes"/>
	  <point x="394" y="92"/>
	  <point x="360" y="48"/>
	  <point x="293" y="19" type="curve"/>
	  <point x="238" y="-1"/>
	  <point x="170" y="-4"/>
	  <point x="113" y="12" type="curve" smooth="yes"/>
	  <point x="56" y="28"/>
	  <point x="11" y="61"/>
	  <point x="4" y="112" type="curve" smooth="yes"/>
	  <point x="-1" y="148"/>
	  <point x="7" y="178"/>
	  <point x="22" y="201" type="curve" smooth="yes"/>
	  <point x="37" y="224"/>
	  <point x="57" y="240"/>
	  <point x="80" y="249" type="curve"/>
	  <point x="85" y="250"/>
	  <point x="89" y="252"/>
	  <point x="94" y="254" type="curve" smooth="yes"/>
	  <point x="99" y="256"/>
	  <point x="104" y="258"/>
	  <point x="109" y="259" type="curve"/>
	  <point x="107" y="260"/>
	  <point x="105" y="261"/>
	  <point x="104" y="262" type="curve"/>
	  <point x="102" y="263"/>
	  <point x="100" y="264"/>
	  <point x="99" y="265" type="curve"/>
	  <point x="34" y="294"/>
	  <point x="2" y="337"/>
	  <point x="3" y="381" type="curve" smooth="yes"/>
	  <point x="4" y="424"/>
	  <point x="38" y="467"/>
	  <point x="105" y="495" type="curve" smooth="yes"/>
	  <point x="158" y="518"/>
	  <point x="228" y="521"/>
	  <point x="285" y="506" type="curve" smooth="yes"/>
	  <point x="342" y="490"/>
	  <point x="387" y="455"/>
	  <point x="394" y="403" type="curve" smooth="yes"/>
	  <point x="398" y="367"/>
	  <point x="391" y="339"/>
	  <point x="376" y="317" type="curve" smooth="yes"/>
	  <point x="361" y="295"/>
	  <point x="339" y="277"/>
	  <point x="315" y="268" type="curve"/>
	  <point x="304" y="261"/>
	  <point x="299" y="259"/>
	  <point x="286" y="256" type="curve"/>
	  <point x="287" y="256"/>
	  <point x="290" y="255"/>
	  <point x="293" y="254" type="curve" smooth="yes"/>
	  <point x="296" y="253"/>
	  <point x="298" y="252"/>
	  <point x="299" y="252" type="curve"/>
	</contour>
	<contour>
	  <point x="106" y="423"/>
	  <point x="85" y="397"/>
	  <point x="109" y="350" type="curve" smooth="yes"/>
	  <point x="122" y="325"/>
	  <point x="153" y="307"/>
	  <point x="182" y="299" type="curve"/>
	  <point x="196" y="294"/>
	  <point x="209" y="291"/>
	  <point x="221" y="290" type="curve"/>
	  <point x="245" y="286"/>
	  <point x="261" y="292"/>
	  <point x="278" y="307" type="curve" smooth="yes"/>
	  <point x="294" y="322"/>
	  <point x="298" y="341"/>
	  <point x="293" y="362" type="curve" smooth="yes"/>
	  <point x="288" y="382"/>
	  <point x="274" y="407"/>
	  <point x="249" y="422" type="curve" smooth="yes"/>
	  <point x="224" y="437"/>
	  <point x="196" y="444"/>
	  <point x="173" y="444" type="curve" smooth="yes"/>
	  <point x="161" y="444"/>
	  <point x="152" y="442"/>
	  <point x="145" y="439" type="curve" smooth="yes"/>
	</contour>
	<contour>
	  <point x="283" y="95"/>
	  <point x="299" y="133"/>
	  <point x="280" y="177" type="curve"/>
	  <point x="265" y="204"/>
	  <point x="240" y="219"/>
	  <point x="216" y="226" type="curve"/>
	  <point x="204" y="229"/>
	  <point x="193" y="231"/>
	  <point x="182" y="231" type="curve" smooth="yes"/>
	  <point x="171" y="231"/>
	  <point x="163" y="229"/>
	  <point x="158" y="226" type="curve"/>
	  <point x="106" y="199"/>
	  <point x="96" y="175"/>
	  <point x="125" y="128" type="curve"/>
	  <point x="138" y="105"/>
	  <point x="162" y="89"/>
	  <point x="186" y="81" type="curve" smooth="yes"/>
	  <point x="209" y="73"/>
	  <point x="231" y="71"/>
	  <point x="244" y="76" type="curve"/>
	</contour>
  </outline>
</glyph>
<glyph name="nine" format="1">
  <advance width="501"/>
  <unicode hex="0039"/>
  <outline>
    <contour>
      <point x="-5" y="300"/>
      <point x="1" y="348"/>
      <point x="26" y="393" type="curve" smooth="yes"/>
      <point x="51" y="438"/>
      <point x="97" y="479"/>
      <point x="161" y="495" type="curve" smooth="yes"/>
      <point x="226" y="511"/>
      <point x="280" y="495"/>
      <point x="320" y="468" type="curve" smooth="yes"/>
      <point x="360" y="440"/>
      <point x="385" y="400"/>
      <point x="393" y="371" type="curve"/>
      <point x="394" y="368"/>
      <point x="394" y="364"/>
      <point x="394" y="359" type="curve" smooth="yes"/>
      <point x="394" y="354"/>
      <point x="394" y="350"/>
      <point x="394" y="346" type="curve" smooth="yes"/>
      <point x="394" y="341"/>
      <point x="394" y="336"/>
      <point x="393" y="331" type="curve"/>
      <point x="389" y="289"/>
      <point x="379" y="248"/>
      <point x="364" y="208" type="curve"/>
      <point x="349" y="173"/>
      <point x="332" y="136"/>
      <point x="305" y="100" type="curve" smooth="yes"/>
      <point x="277" y="64"/>
      <point x="241" y="29"/>
      <point x="197" y="0" type="curve"/>
      <point x="125" y="62" type="line"/>
      <point x="158" y="83"/>
      <point x="187" y="106"/>
      <point x="217" y="136" type="curve" smooth="yes"/>
      <point x="232" y="151"/>
      <point x="245" y="167"/>
      <point x="256" y="186" type="curve"/>
      <point x="249" y="185"/>
      <point x="243" y="183"/>
      <point x="237" y="181" type="curve"/>
      <point x="230" y="178"/>
      <point x="224" y="177"/>
      <point x="219" y="177" type="curve"/>
      <point x="171" y="172"/>
      <point x="127" y="180"/>
      <point x="90" y="197" type="curve" smooth="yes"/>
      <point x="53" y="214"/>
      <point x="23" y="240"/>
      <point x="10" y="268" type="curve" smooth="yes"/>
    </contour>
    <contour>
      <point x="147" y="440"/>
      <point x="125" y="419"/>
      <point x="112" y="389" type="curve" smooth="yes"/>
      <point x="99" y="359"/>
      <point x="96" y="322"/>
      <point x="115" y="298" type="curve" smooth="yes"/>
      <point x="132" y="275"/>
      <point x="156" y="258"/>
      <point x="179" y="249" type="curve"/>
      <point x="190" y="244"/>
      <point x="202" y="242"/>
      <point x="213" y="242" type="curve" smooth="yes"/>
      <point x="235" y="242"/>
      <point x="247" y="249"/>
      <point x="263" y="270" type="curve" smooth="yes"/>
      <point x="278" y="290"/>
      <point x="292" y="318"/>
      <point x="296" y="348" type="curve" smooth="yes"/>
      <point x="299" y="378"/>
      <point x="284" y="406"/>
      <point x="248" y="423" type="curve" smooth="yes"/>
      <point x="230" y="432"/>
      <point x="204" y="437"/>
      <point x="170" y="439" type="curve" smooth="yes"/>
    </contour>
  </outline>
</glyph>
<glyph name="colon" format="1">
  <advance width="195"/>
  <unicode hex="003A"/>
  <outline>
	<contour>
	  <point x="125" y="270"/>
	  <point x="97" y="238"/>
	  <point x="65" y="238" type="curve" smooth="yes"/>
	  <point x="22" y="238"/>
	  <point x="0" y="258"/>
	  <point x="0" y="297" type="curve" smooth="yes"/>
	  <point x="0" y="333"/>
	  <point x="28" y="363"/>
	  <point x="64" y="363" type="curve" smooth="yes"/>
	  <point x="100" y="363"/>
	  <point x="125" y="339"/>
	  <point x="125" y="303" type="curve" smooth="yes"/>
	</contour>
	<contour>
	  <point x="125" y="30"/>
	  <point x="97" y="-2"/>
	  <point x="65" y="-2" type="curve" smooth="yes"/>
	  <point x="22" y="-2"/>
	  <point x="0" y="18"/>
	  <point x="0" y="57" type="curve" smooth="yes"/>
	  <point x="0" y="93"/>
	  <point x="28" y="123"/>
	  <point x="64" y="123" type="curve" smooth="yes"/>
	  <point x="100" y="123"/>
	  <point x="125" y="99"/>
	  <point x="125" y="63" type="curve" smooth="yes"/>
	</contour>
  </outline>
</glyph>
<glyph name="semicolon" format="1">
  <advance width="195"/>
  <unicode hex="003B"/>
  <outline>
	<contour>
	  <point x="50" y="-45"/>
	  <point x="57" y="-34"/>
	  <point x="57" y="-20" type="curve" smooth="yes"/>
	  <point x="57" y="-7"/>
	  <point x="51" y="0"/>
	  <point x="40" y="3" type="curve"/>
	  <point x="24" y="6"/>
	  <point x="0" y="23"/>
	  <point x="0" y="54" type="curve" smooth="yes"/>
	  <point x="0" y="85"/>
	  <point x="23" y="110"/>
	  <point x="52" y="110" type="curve" smooth="yes"/>
	  <point x="91" y="110"/>
	  <point x="123" y="76"/>
	  <point x="123" y="36" type="curve" smooth="yes"/>
	  <point x="123" y="-1"/>
	  <point x="93" y="-54"/>
	  <point x="50" y="-54" type="curve" smooth="yes"/>
	  <point x="46" y="-54"/>
	  <point x="42" y="-53"/>
	  <point x="37" y="-52" type="curve"/>
	</contour>
	<contour>
	  <point x="125" y="270"/>
	  <point x="97" y="238"/>
	  <point x="65" y="238" type="curve" smooth="yes"/>
	  <point x="22" y="238"/>
	  <point x="0" y="258"/>
	  <point x="0" y="297" type="curve" smooth="yes"/>
	  <point x="0" y="333"/>
	  <point x="28" y="363"/>
	  <point x="64" y="363" type="curve" smooth="yes"/>
	  <point x="100" y="363"/>
	  <point x="125" y="339"/>
	  <point x="125" y="303" type="curve" smooth="yes"/>
	</contour>
  </outline>
</glyph>
<glyph name="less" format="1">
  <advance width="490"/>
  <unicode hex="003C"/>
  <outline>
    <contour>
      <point x="410" y="396" type="line"/>
      <point x="183" y="249" type="line"/>
      <point x="421" y="138" type="line"/>
      <point x="374" y="62" type="line"/>
      <point x="84" y="224" type="line"/>
      <point x="84" y="294" type="line"/>
      <point x="390" y="445" type="line"/>
    </contour>
  </outline>
</glyph>
<glyph name="equal" format="1">
  <advance width="441"/>
  <unicode hex="003D"/>
  <outline>
	<contour>
	  <point x="371" y="259" type="line"/>
	  <point x="35" y="259" type="line"/>
	  <point x="35" y="336" type="line"/>
	  <point x="371" y="336" type="line"/>
	</contour>
	<contour>
	  <point x="371" y="119" type="line"/>
	  <point x="35" y="119" type="line"/>
	  <point x="35" y="196" type="line"/>
	  <point x="371" y="196" type="line"/>
	</contour>
  </outline>
</glyph>
<glyph name="greater" format="1">
  <advance width="490"/>
  <unicode hex="003E"/>
  <outline>
    <contour>
      <point x="80" y="111" type="line"/>
      <point x="306" y="258" type="line"/>
      <point x="69" y="369" type="line"/>
      <point x="115" y="445" type="line"/>
      <point x="406" y="283" type="line"/>
      <point x="406" y="214" type="line"/>
      <point x="99" y="62" type="line"/>
    </contour>
  </outline>
</glyph>
<glyph name="question" format="1">
  <advance width="332"/>
  <unicode hex="003F"/>
  <outline>
	<contour>
	  <point x="174" y="-23"/>
	  <point x="135" y="-44"/>
	  <point x="112" y="-40" type="curve"/>
	  <point x="88" y="-37"/>
	  <point x="61" y="-24"/>
	  <point x="61" y="11" type="curve" smooth="yes"/>
	  <point x="61" y="42"/>
	  <point x="88" y="70"/>
	  <point x="117" y="70" type="curve" smooth="yes"/>
	  <point x="149" y="70"/>
	  <point x="174" y="48"/>
	  <point x="174" y="13" type="curve" smooth="yes"/>
	</contour>
	<contour>
	  <point x="33" y="375" type="line"/>
	  <point x="21" y="419"/>
	  <point x="29" y="451"/>
	  <point x="61" y="477" type="curve" smooth="yes"/>
	  <point x="92" y="503"/>
	  <point x="169" y="504"/>
	  <point x="202" y="498" type="curve" smooth="yes"/>
	  <point x="234" y="492"/>
	  <point x="255" y="480"/>
	  <point x="267" y="468" type="curve"/>
	  <point x="272" y="461"/>
	  <point x="277" y="456"/>
	  <point x="280" y="451" type="curve"/>
	  <point x="307" y="398"/>
	  <point x="293" y="353"/>
	  <point x="248" y="309" type="curve"/>
	  <point x="238" y="300"/>
	  <point x="227" y="291"/>
	  <point x="216" y="280" type="curve"/>
	  <point x="204" y="269"/>
	  <point x="192" y="258"/>
	  <point x="181" y="247" type="curve"/>
	  <point x="157" y="226"/>
	  <point x="136" y="207"/>
	  <point x="127" y="196" type="curve" smooth="yes"/>
	  <point x="118" y="185"/>
	  <point x="115" y="170"/>
	  <point x="119" y="157" type="curve"/>
	  <point x="122" y="144"/>
	  <point x="131" y="136"/>
	  <point x="146" y="140" type="curve"/>
	  <point x="146" y="140"/>
	  <point x="146" y="136"/>
	  <point x="147" y="129" type="curve"/>
	  <point x="147" y="114"/>
	  <point x="141" y="96"/>
	  <point x="123" y="90" type="curve" smooth="yes"/>
	  <point x="105" y="84"/>
	  <point x="75" y="99"/>
	  <point x="61" y="120" type="curve" smooth="yes"/>
	  <point x="47" y="141"/>
	  <point x="46" y="171"/>
	  <point x="68" y="204" type="curve" smooth="yes"/>
	  <point x="79" y="221"/>
	  <point x="98" y="237"/>
	  <point x="127" y="254" type="curve" smooth="yes"/>
	  <point x="185" y="287"/>
	  <point x="222" y="318"/>
	  <point x="237" y="346" type="curve" smooth="yes"/>
	  <point x="268" y="402"/>
	  <point x="214" y="450"/>
	  <point x="172" y="455" type="curve" smooth="yes"/>
	  <point x="130" y="460"/>
	  <point x="96" y="444"/>
	  <point x="85" y="414" type="curve" smooth="yes"/>
	  <point x="80" y="399"/>
	  <point x="84" y="382"/>
	  <point x="97" y="365" type="curve"/>
	</contour>
  </outline>
</glyph>
<glyph name="at" format="1">
  <advance width="799"/>
  <unicode hex="0040"/>
  <outline>
	<contour>
	  <point x="634" y="95"/>
	  <point x="671" y="149"/>
	  <point x="671" y="236" type="curve" smooth="yes"/>
	  <point x="671" y="322"/>
	  <point x="654" y="378"/>
	  <point x="615" y="427" type="curve" smooth="yes"/>
	  <point x="577" y="475"/>
	  <point x="506" y="503"/>
	  <point x="417" y="503" type="curve" smooth="yes"/>
	  <point x="328" y="503"/>
	  <point x="263" y="479"/>
	  <point x="220" y="442" type="curve" smooth="yes"/>
	  <point x="198" y="422"/>
	  <point x="180" y="399"/>
	  <point x="166" y="373" type="curve" smooth="yes"/>
	  <point x="141" y="322"/>
	  <point x="128" y="263"/>
	  <point x="128" y="194" type="curve" smooth="yes"/>
	  <point x="128" y="118"/>
	  <point x="146" y="57"/>
	  <point x="183" y="9" type="curve" smooth="yes"/>
	  <point x="222" y="-42"/>
	  <point x="291" y="-71"/>
	  <point x="384" y="-71" type="curve" smooth="yes"/>
	  <point x="447" y="-71"/>
	  <point x="509" y="-47"/>
	  <point x="568" y="0" type="curve"/>
	  <point x="601" y="-50" type="line"/>
	  <point x="531" y="-100"/>
	  <point x="458" y="-125"/>
	  <point x="382" y="-125" type="curve" smooth="yes"/>
	  <point x="269" y="-125"/>
	  <point x="180" y="-88"/>
	  <point x="130" y="-27" type="curve" smooth="yes"/>
	  <point x="80" y="32"/>
	  <point x="55" y="106"/>
	  <point x="55" y="194" type="curve" smooth="yes"/>
	  <point x="55" y="274"/>
	  <point x="73" y="344"/>
	  <point x="108" y="403" type="curve" smooth="yes"/>
	  <point x="146" y="465"/>
	  <point x="197" y="510"/>
	  <point x="279" y="537" type="curve" smooth="yes"/>
	  <point x="320" y="550"/>
	  <point x="368" y="556"/>
	  <point x="422" y="556" type="curve" smooth="yes"/>
	  <point x="529" y="556"/>
	  <point x="618" y="521"/>
	  <point x="669" y="462" type="curve" smooth="yes"/>
	  <point x="719" y="404"/>
	  <point x="744" y="330"/>
	  <point x="744" y="243" type="curve" smooth="yes"/>
	  <point x="744" y="176"/>
	  <point x="722" y="124"/>
	  <point x="697" y="98" type="curve" smooth="yes"/>
	  <point x="670" y="72"/>
	  <point x="628" y="49"/>
	  <point x="565" y="49" type="curve" smooth="yes"/>
	  <point x="501" y="49"/>
	  <point x="455" y="92"/>
	  <point x="446" y="165" type="curve"/>
	  <point x="441" y="165" type="line"/>
	  <point x="413" y="94"/>
	  <point x="368" y="59"/>
	  <point x="305" y="59" type="curve" smooth="yes"/>
	  <point x="258" y="59"/>
	  <point x="222" y="148"/>
	  <point x="222" y="241" type="curve" smooth="yes"/>
	  <point x="222" y="334"/>
	  <point x="259" y="372"/>
	  <point x="349" y="372" type="curve" smooth="yes"/>
	  <point x="394" y="372"/>
	  <point x="432" y="362"/>
	  <point x="465" y="341" type="curve"/>
	  <point x="522" y="381" type="line"/>
	  <point x="546" y="362" type="line"/>
	  <point x="533" y="179" type="line" smooth="yes"/>
	  <point x="532" y="170"/>
	  <point x="530" y="135"/>
	  <point x="545" y="113" type="curve" smooth="yes"/>
	  <point x="552" y="101"/>
	  <point x="564" y="95"/>
	  <point x="582" y="95" type="curve" smooth="yes"/>
	</contour>
	<contour>
	  <point x="358" y="338"/>
	  <point x="344" y="334"/>
	  <point x="329" y="328" type="curve"/>
	  <point x="326" y="300"/>
	  <point x="325" y="275"/>
	  <point x="325" y="254" type="curve" smooth="yes"/>
	  <point x="325" y="211"/>
	  <point x="334" y="133"/>
	  <point x="343" y="110" type="curve"/>
	  <point x="362" y="114"/>
	  <point x="381" y="129"/>
	  <point x="400" y="154" type="curve" smooth="yes"/>
	  <point x="425" y="186"/>
	  <point x="437" y="242"/>
	  <point x="437" y="319" type="curve"/>
	  <point x="419" y="331"/>
	  <point x="397" y="338"/>
	  <point x="370" y="338" type="curve" smooth="yes"/>
	</contour>
  </outline>
</glyph>
<glyph name="A" format="1">
  <advance width="511"/>
  <unicode hex="0041"/>
  <outline>
	<contour>
	  <point x="24" y="0" type="line"/>
	  <point x="174" y="532" type="line"/>
	  <point x="367" y="520" type="line"/>
	  <point x="471" y="0" type="line"/>
	  <point x="399" y="-12" type="line"/>
	  <point x="344" y="121" type="line"/>
	  <point x="131" y="103" type="line"/>
	  <point x="104" y="-12" type="line"/>
	</contour>
	<contour>
	  <point x="209" y="431" type="line"/>
	  <point x="146" y="165" type="line"/>
	  <point x="326" y="163" type="line"/>
	  <point x="215" y="431" type="line"/>
	</contour>
  </outline>
</glyph>
<glyph name="B" format="1">
  <advance width="562"/>
  <unicode hex="0042"/>
  <outline>
	<contour>
	  <point x="78" y="504" type="line"/>
	  <point x="157" y="528"/>
	  <point x="230" y="540"/>
	  <point x="300" y="540" type="curve" smooth="yes"/>
	  <point x="369" y="540"/>
	  <point x="424" y="527"/>
	  <point x="465" y="502" type="curve"/>
	  <point x="474" y="474"/>
	  <point x="478" y="448"/>
	  <point x="478" y="423" type="curve" smooth="yes"/>
	  <point x="478" y="367"/>
	  <point x="454" y="322"/>
	  <point x="406" y="286" type="curve"/>
	  <point x="467" y="238"/>
	  <point x="504" y="174"/>
	  <point x="504" y="122" type="curve" smooth="yes"/>
	  <point x="504" y="38"/>
	  <point x="429" y="-21"/>
	  <point x="263" y="-21" type="curve" smooth="yes"/>
	  <point x="216" y="-21"/>
	  <point x="170" y="-18"/>
	  <point x="124" y="-11" type="curve"/>
	</contour>
	<contour>
	  <point x="210" y="48" type="line"/>
	  <point x="239" y="40"/>
	  <point x="267" y="36"/>
	  <point x="294" y="36" type="curve" smooth="yes"/>
	  <point x="320" y="36"/>
	  <point x="338" y="38"/>
	  <point x="346" y="41" type="curve"/>
	  <point x="365" y="78"/>
	  <point x="374" y="116"/>
	  <point x="374" y="154" type="curve" smooth="yes"/>
	  <point x="374" y="192"/>
	  <point x="366" y="225"/>
	  <point x="348" y="252" type="curve"/>
	  <point x="316" y="238"/>
	  <point x="276" y="225"/>
	  <point x="227" y="214" type="curve"/>
	</contour>
	<contour>
	  <point x="349" y="430"/>
	  <point x="333" y="470"/>
	  <point x="306" y="488" type="curve"/>
	  <point x="294" y="488"/>
	  <point x="277" y="485"/>
	  <point x="255" y="478" type="curve"/>
	  <point x="232" y="259" type="line"/>
	  <point x="303" y="288"/>
	  <point x="349" y="344"/>
	  <point x="349" y="395" type="curve" smooth="yes"/>
	</contour>
  </outline>
</glyph>
<glyph name="C" format="1">
  <advance width="402"/>
  <unicode hex="0043"/>
  <outline>
    <contour>
      <point x="270" y="58"/>
      <point x="323" y="68"/>
      <point x="374" y="87" type="curve"/>
      <point x="402" y="1" type="line"/>
      <point x="358" y="-13"/>
      <point x="314" y="-19"/>
      <point x="270" y="-19" type="curve" smooth="yes"/>
      <point x="180" y="-19"/>
      <point x="107" y="2"/>
      <point x="70" y="33" type="curve"/>
      <point x="61" y="78"/>
      <point x="56" y="122"/>
      <point x="56" y="166" type="curve" smooth="yes"/>
      <point x="56" y="344"/>
      <point x="135" y="502"/>
      <point x="222" y="560" type="curve"/>
      <point x="377" y="462" type="line"/>
      <point x="230" y="369"/>
      <point x="137" y="211"/>
      <point x="137" y="64" type="curve"/>
      <point x="160" y="60"/>
      <point x="186" y="58"/>
      <point x="214" y="58" type="curve" smooth="yes"/>
    </contour>
  </outline>
</glyph>
<glyph name="D" format="1">
  <advance width="523"/>
  <unicode hex="0044"/>
  <outline>
	<contour>
	  <point x="78" y="504" type="line"/>
	  <point x="157" y="529"/>
	  <point x="231" y="542"/>
	  <point x="302" y="542" type="curve" smooth="yes"/>
	  <point x="371" y="542"/>
	  <point x="429" y="531"/>
	  <point x="473" y="510" type="curve"/>
	  <point x="490" y="466"/>
	  <point x="499" y="422"/>
	  <point x="499" y="374" type="curve" smooth="yes"/>
	  <point x="499" y="247"/>
	  <point x="437" y="126"/>
	  <point x="320" y="50" type="curve" smooth="yes"/>
	  <point x="262" y="11"/>
	  <point x="196" y="-9"/>
	  <point x="124" y="-11" type="curve"/>
	</contour>
	<contour>
	  <point x="357" y="398"/>
	  <point x="333" y="463"/>
	  <point x="290" y="488" type="curve"/>
	  <point x="281" y="488"/>
	  <point x="269" y="486"/>
	  <point x="255" y="482" type="curve"/>
	  <point x="211" y="56" type="line"/>
	  <point x="307" y="95"/>
	  <point x="357" y="205"/>
	  <point x="357" y="320" type="curve" smooth="yes"/>
	</contour>
  </outline>
</glyph>
<glyph name="F" format="1">
  <advance width="459"/>
  <unicode hex="0046"/>
  <outline>
    <contour>
      <point x="386" y="198" type="line"/>
      <point x="226" y="210" type="line"/>
      <point x="200" y="-3" type="line"/>
      <point x="112" y="-7" type="line"/>
      <point x="74" y="520" type="line"/>
      <point x="427" y="531" type="line"/>
      <point x="425" y="478" type="line"/>
      <point x="256" y="458" type="line"/>
      <point x="233" y="268" type="line"/>
      <point x="382" y="270" type="line"/>
    </contour>
  </outline>
</glyph>
<glyph name="G" format="1">
  <advance width="461"/>
  <unicode hex="0047"/>
  <outline>
	<contour>
	  <point x="182" y="-11"/>
	  <point x="107" y="10"/>
	  <point x="70" y="41" type="curve"/>
	  <point x="61" y="83"/>
	  <point x="56" y="128"/>
	  <point x="56" y="174" type="curve" smooth="yes"/>
	  <point x="56" y="330"/>
	  <point x="110" y="478"/>
	  <point x="222" y="560" type="curve"/>
	  <point x="377" y="462" type="line"/>
	  <point x="230" y="369"/>
	  <point x="137" y="211"/>
	  <point x="137" y="64" type="curve"/>
	  <point x="166" y="58"/>
	  <point x="195" y="55"/>
	  <point x="224" y="55" type="curve" smooth="yes"/>
	  <point x="252" y="55"/>
	  <point x="278" y="58"/>
	  <point x="301" y="63" type="curve"/>
	  <point x="285" y="238" type="line"/>
	  <point x="437" y="248" type="line"/>
	  <point x="389" y="-34" type="line"/>
	  <point x="310" y="-40" type="line"/>
	  <point x="307" y="-9" type="line"/>
	  <point x="293" y="-10"/>
	  <point x="278" y="-11"/>
	  <point x="264" y="-11" type="curve" smooth="yes"/>
	</contour>
  </outline>
</glyph>
<glyph name="H" format="1">
  <advance width="615"/>
  <unicode hex="0048"/>
  <outline>
    <contour>
      <point x="410" y="-13" type="line"/>
      <point x="392" y="197" type="line"/>
      <point x="223" y="183" type="line"/>
      <point x="204" y="-3" type="line"/>
      <point x="124" y="-11" type="line"/>
      <point x="78" y="520" type="line"/>
      <point x="261" y="532" type="line"/>
      <point x="230" y="245" type="line"/>
      <point x="388" y="243" type="line"/>
      <point x="365" y="518" type="line"/>
      <point x="547" y="530" type="line"/>
      <point x="490" y="-5" type="line"/>
    </contour>
  </outline>
</glyph>
<glyph name="I" format="1">
  <advance width="345"/>
  <unicode hex="0049"/>
  <outline>
	<contour>
	  <point x="124" y="-11" type="line"/>
	  <point x="78" y="520" type="line"/>
	  <point x="269" y="532" type="line"/>
	  <point x="212" y="-3" type="line"/>
	</contour>
  </outline>
</glyph>
<glyph name="J" format="1">
  <advance width="337"/>
  <unicode hex="004A"/>
  <outline>
    <contour>
      <point x="62" y="-19"/>
      <point x="29" y="-10"/>
      <point x="-6" y="8" type="curve"/>
      <point x="8" y="51" type="line"/>
      <point x="31" y="44"/>
      <point x="50" y="40"/>
      <point x="63" y="40" type="curve" smooth="yes"/>
      <point x="102" y="40"/>
      <point x="121" y="64"/>
      <point x="121" y="112" type="curve" smooth="yes"/>
      <point x="121" y="119"/>
      <point x="110" y="255"/>
      <point x="86" y="520" type="curve"/>
      <point x="277" y="532" type="line"/>
      <point x="232" y="113" type="line" smooth="yes"/>
      <point x="222" y="25"/>
      <point x="177" y="-19"/>
      <point x="95" y="-19" type="curve" smooth="yes"/>
    </contour>
  </outline>
</glyph>
<glyph name="K" format="1">
  <advance width="545"/>
  <unicode hex="004B"/>
  <outline>
    <contour>
      <point x="500" y="478" type="line"/>
      <point x="331" y="301" type="line"/>
      <point x="529" y="1" type="line"/>
      <point x="359" y="-11" type="line"/>
      <point x="251" y="217" type="line"/>
      <point x="234" y="198" type="line"/>
      <point x="212" y="-3" type="line"/>
      <point x="124" y="-11" type="line"/>
      <point x="78" y="520" type="line"/>
      <point x="269" y="532" type="line"/>
      <point x="243" y="290" type="line"/>
      <point x="429" y="532" type="line"/>
    </contour>
  </outline>
</glyph>
<glyph name="L" format="1">
  <advance width="404"/>
  <unicode hex="004C"/>
  <outline>
    <contour>
      <point x="409" y="0" type="line"/>
      <point x="112" y="-7" type="line"/>
      <point x="74" y="520" type="line"/>
      <point x="265" y="532" type="line"/>
      <point x="207" y="58" type="line"/>
      <point x="412" y="82" type="line"/>
    </contour>
  </outline>
</glyph>
<glyph name="M" format="1">
  <advance width="751"/>
  <unicode hex="004D"/>
  <outline>
	<contour>
	  <point x="615" y="-12" type="line"/>
	  <point x="501" y="414" type="line"/>
	  <point x="494" y="414" type="line"/>
	  <point x="407" y="0" type="line"/>
	  <point x="335" y="-12" type="line"/>
	  <point x="162" y="382" type="line"/>
	  <point x="157" y="382" type="line"/>
	  <point x="144" y="0" type="line"/>
	  <point x="64" y="-4" type="line"/>
	  <point x="102" y="520" type="line"/>
	  <point x="295" y="528" type="line"/>
	  <point x="376" y="147" type="line"/>
	  <point x="470" y="532" type="line"/>
	  <point x="663" y="520" type="line"/>
	  <point x="687" y="0" type="line"/>
	</contour>
  </outline>
</glyph>
<glyph name="N" format="1">
  <advance width="554"/>
  <unicode hex="004E"/>
  <outline>
	<contour>
	  <point x="514" y="528" type="line"/>
	  <point x="479" y="0" type="line"/>
	  <point x="407" y="-12" type="line"/>
	  <point x="148" y="417" type="line"/>
	  <point x="142" y="417" type="line"/>
	  <point x="144" y="0" type="line"/>
	  <point x="64" y="-4" type="line"/>
	  <point x="86" y="520" type="line"/>
	  <point x="279" y="532" type="line"/>
	  <point x="419" y="133" type="line"/>
	  <point x="426" y="133" type="line"/>
	  <point x="434" y="524" type="line"/>
	</contour>
  </outline>
</glyph>
<glyph name="P" format="1">
  <advance width="503"/>
  <unicode hex="0050"/>
  <outline>
    <contour>
      <point x="78" y="504" type="line"/>
      <point x="153" y="528"/>
      <point x="229" y="540"/>
      <point x="305" y="540" type="curve" smooth="yes"/>
      <point x="381" y="540"/>
      <point x="440" y="527"/>
      <point x="481" y="502" type="curve"/>
      <point x="490" y="473"/>
      <point x="495" y="446"/>
      <point x="495" y="419" type="curve" smooth="yes"/>
      <point x="495" y="297"/>
      <point x="383" y="212"/>
      <point x="223" y="176" type="curve"/>
      <point x="204" y="-3" type="line"/>
      <point x="124" y="-11" type="line"/>
    </contour>
    <contour>
      <point x="341" y="437"/>
      <point x="324" y="468"/>
      <point x="290" y="488" type="curve"/>
      <point x="281" y="488"/>
      <point x="269" y="486"/>
      <point x="255" y="482" type="curve"/>
      <point x="229" y="230" type="line"/>
      <point x="298" y="269"/>
      <point x="341" y="335"/>
      <point x="341" y="396" type="curve" smooth="yes"/>
    </contour>
  </outline>
</glyph>
<glyph name="Q" format="1">
  <advance width="471"/>
  <unicode hex="0051"/>
  <outline>
    <contour>
      <point x="431" y="67"/>
      <point x="409" y="14"/>
      <point x="336" y="-7" type="curve"/>
      <point x="426" y="-122" type="line"/>
      <point x="282" y="-132" type="line"/>
      <point x="236" y="-19" type="line"/>
      <point x="160" y="-18"/>
      <point x="102" y="-2"/>
      <point x="62" y="33" type="curve"/>
      <point x="53" y="78"/>
      <point x="48" y="122"/>
      <point x="48" y="166" type="curve" smooth="yes"/>
      <point x="48" y="342"/>
      <point x="126" y="494"/>
      <point x="214" y="552" type="curve"/>
      <point x="339" y="501"/>
      <point x="431" y="349"/>
      <point x="431" y="166" type="curve" smooth="yes"/>
    </contour>
    <contour>
      <point x="334" y="284"/>
      <point x="321" y="354"/>
      <point x="294" y="413" type="curve"/>
      <point x="190" y="318"/>
      <point x="129" y="185"/>
      <point x="129" y="64" type="curve"/>
      <point x="147" y="60"/>
      <point x="169" y="58"/>
      <point x="194" y="58" type="curve" smooth="yes"/>
      <point x="242" y="58"/>
      <point x="285" y="65"/>
      <point x="320" y="77" type="curve"/>
      <point x="330" y="118"/>
      <point x="334" y="160"/>
      <point x="334" y="202" type="curve" smooth="yes"/>
    </contour>
  </outline>
</glyph>
<glyph name="T" format="1">
  <advance width="453"/>
  <unicode hex="0054"/>
  <outline>
	<contour>
	  <point x="32" y="521" type="line"/>
	  <point x="441" y="532" type="line"/>
	  <point x="438" y="478" type="line"/>
	  <point x="326" y="467" type="line"/>
	  <point x="277" y="-3" type="line"/>
	  <point x="189" y="-11" type="line"/>
	  <point x="149" y="450" type="line"/>
	  <point x="37" y="438" type="line"/>
	</contour>
  </outline>
</glyph>
<glyph name="V" format="1">
  <advance width="479"/>
  <unicode hex="0056"/>
  <outline>
	<contour>
	  <point x="195" y="532" type="line"/>
	  <point x="260" y="130" type="line"/>
	  <point x="267" y="130" type="line"/>
	  <point x="383" y="532" type="line"/>
	  <point x="455" y="513" type="line"/>
	  <point x="282" y="0" type="line"/>
	  <point x="210" y="-12" type="line"/>
	  <point x="12" y="510" type="line"/>
	</contour>
  </outline>
</glyph>
<glyph name="X" format="1">
  <advance width="505"/>
  <unicode hex="0058"/>
  <outline>
    <contour>
      <point x="24" y="10" type="line"/>
      <point x="179" y="258" type="line"/>
      <point x="40" y="510" type="line"/>
      <point x="225" y="532" type="line"/>
      <point x="295" y="334" type="line"/>
      <point x="386" y="532" type="line"/>
      <point x="478" y="510" type="line"/>
      <point x="323" y="263" type="line"/>
      <point x="481" y="12" type="line"/>
      <point x="296" y="-11" type="line"/>
      <point x="210" y="191" type="line"/>
      <point x="116" y="-12" type="line"/>
    </contour>
  </outline>
</glyph>
<glyph name="Y" format="1">
  <advance width="446"/>
  <unicode hex="0059"/>
  <outline>
    <contour>
      <point x="183" y="532" type="line"/>
      <point x="247" y="242" type="line"/>
      <point x="254" y="242" type="line"/>
      <point x="370" y="530" type="line"/>
      <point x="434" y="512" type="line"/>
      <point x="297" y="188" type="line"/>
      <point x="266" y="-3" type="line"/>
      <point x="186" y="-11" type="line"/>
      <point x="162" y="167" type="line"/>
      <point x="3" y="510" type="line"/>
    </contour>
  </outline>
</glyph>
<glyph name="Z" format="1">
  <advance width="448"/>
  <unicode hex="005A"/>
  <outline>
	<contour>
	  <point x="44" y="528" type="line"/>
	  <point x="405" y="520" type="line"/>
	  <point x="416" y="437" type="line"/>
	  <point x="104" y="54" type="line"/>
	  <point x="402" y="82" type="line"/>
	  <point x="407" y="0" type="line"/>
	  <point x="16" y="-7" type="line"/>
	  <point x="18" y="46" type="line"/>
	  <point x="237" y="455" type="line"/>
	  <point x="46" y="474" type="line"/>
	</contour>
  </outline>
</glyph>
<glyph name="bracketleft" format="1">
  <advance width="341"/>
  <unicode hex="005B"/>
  <outline>
    <contour>
      <point x="317" y="496" type="line"/>
      <point x="210" y="496" type="line"/>
      <point x="169" y="13" type="line"/>
      <point x="301" y="-3" type="line"/>
      <point x="309" y="-43" type="line"/>
      <point x="122" y="-84" type="line"/>
      <point x="80" y="539" type="line"/>
      <point x="317" y="574" type="line"/>
    </contour>
  </outline>
</glyph>
<glyph name="backslash" format="1">
  <advance width="378"/>
  <unicode hex="005C"/>
  <outline>
	<contour>
	  <point x="98" y="512" type="line"/>
	  <point x="309" y="-25" type="line"/>
	  <point x="214" y="-25" type="line"/>
	  <point x="0" y="512" type="line"/>
	</contour>
  </outline>
</glyph>
<glyph name="bracketright" format="1">
  <advance width="341"/>
  <unicode hex="005D"/>
  <outline>
    <contour>
      <point x="24" y="496" type="line"/>
      <point x="24" y="574" type="line"/>
      <point x="261" y="539" type="line"/>
      <point x="219" y="-84" type="line"/>
      <point x="32" y="-43" type="line"/>
      <point x="40" y="-3" type="line"/>
      <point x="172" y="13" type="line"/>
      <point x="130" y="496" type="line"/>
    </contour>
  </outline>
</glyph>
<glyph name="asciicircum" format="1">
  <advance width="490"/>
  <unicode hex="005E"/>
  <outline>
	<contour>
	  <point x="354" y="290" type="line"/>
	  <point x="238" y="436" type="line"/>
	  <point x="160" y="278" type="line"/>
	  <point x="84" y="325" type="line"/>
	  <point x="214" y="535" type="line"/>
	  <point x="283" y="535" type="line"/>
	  <point x="402" y="309" type="line"/>
	</contour>
  </outline>
</glyph>
<glyph name="underscore" format="1">
  <advance width="591"/>
  <unicode hex="005F"/>
  <outline>
	<contour>
	  <point x="521" y="0" type="line"/>
	  <point x="35" y="0" type="line"/>
	  <point x="35" y="97" type="line"/>
	  <point x="521" y="99" type="line"/>
	</contour>
  </outline>
</glyph>
<glyph name="grave" format="1">
  <advance width="350"/>
  <unicode hex="0060"/>
  <outline>
    <contour>
      <point x="136" y="602" type="line"/>
      <point x="278" y="505" type="line"/>
      <point x="251" y="450" type="line"/>
      <point x="88" y="502" type="line"/>
    </contour>
  </outline>
</glyph>
<glyph name="a" format="1">
  <advance width="464"/>
  <unicode hex="0061"/>
  <outline>
    <contour>
      <point x="99" y="-18"/>
      <point x="92" y="-18"/>
      <point x="88" y="-18" type="curve"/>
      <point x="52" y="7"/>
      <point x="28" y="61"/>
      <point x="28" y="113" type="curve" smooth="yes"/>
      <point x="28" y="181"/>
      <point x="71" y="210"/>
      <point x="210" y="210" type="curve" smooth="yes"/>
      <point x="235" y="210"/>
      <point x="262" y="209"/>
      <point x="290" y="205" type="curve"/>
      <point x="288" y="222" type="line" smooth="yes"/>
      <point x="284" y="265"/>
      <point x="245" y="292"/>
      <point x="188" y="292" type="curve" smooth="yes"/>
      <point x="160" y="292"/>
      <point x="131" y="283"/>
      <point x="103" y="266" type="curve"/>
      <point x="68" y="382" type="line"/>
      <point x="114" y="400"/>
      <point x="166" y="410"/>
      <point x="225" y="410" type="curve" smooth="yes"/>
      <point x="342" y="410"/>
      <point x="415" y="358"/>
      <point x="415" y="246" type="curve" smooth="yes"/>
      <point x="415" y="234"/>
      <point x="414" y="223"/>
      <point x="414" y="216" type="curve" smooth="yes"/>
      <point x="391" y="-5" type="line"/>
      <point x="312" y="-12" type="line"/>
      <point x="300" y="104" type="line"/>
      <point x="294" y="104" type="line"/>
      <point x="258" y="27"/>
      <point x="191" y="-18"/>
      <point x="108" y="-18" type="curve" smooth="yes"/>
    </contour>
    <contour>
      <point x="250" y="172" type="line" smooth="yes"/>
      <point x="215" y="172"/>
      <point x="186" y="170"/>
      <point x="164" y="166" type="curve"/>
      <point x="157" y="151"/>
      <point x="153" y="138"/>
      <point x="153" y="126" type="curve" smooth="yes"/>
      <point x="153" y="103"/>
      <point x="161" y="78"/>
      <point x="168" y="71" type="curve"/>
      <point x="232" y="82"/>
      <point x="274" y="114"/>
      <point x="293" y="171" type="curve"/>
    </contour>
  </outline>
</glyph>
<glyph name="b" format="1">
  <advance width="532"/>
  <unicode hex="0062"/>
  <outline>
	<contour>
	  <point x="382" y="418"/>
	  <point x="391" y="417"/>
	  <point x="401" y="414" type="curve"/>
	  <point x="439" y="368"/>
	  <point x="466" y="266"/>
	  <point x="466" y="166" type="curve" smooth="yes"/>
	  <point x="466" y="37"/>
	  <point x="419" y="-19"/>
	  <point x="269" y="-19" type="curve" smooth="yes"/>
	  <point x="207" y="-19"/>
	  <point x="149" y="-6"/>
	  <point x="94" y="22" type="curve"/>
	  <point x="56" y="546" type="line"/>
	  <point x="227" y="573" type="line"/>
	  <point x="198" y="252" type="line"/>
	  <point x="206" y="252" type="line"/>
	  <point x="248" y="354"/>
	  <point x="309" y="418"/>
	  <point x="372" y="418" type="curve" smooth="yes"/>
	</contour>
	<contour>
	  <point x="194" y="33"/>
	  <point x="214" y="32"/>
	  <point x="241" y="32" type="curve" smooth="yes"/>
	  <point x="267" y="32"/>
	  <point x="294" y="35"/>
	  <point x="318" y="42" type="curve"/>
	  <point x="326" y="82"/>
	  <point x="330" y="122"/>
	  <point x="330" y="158" type="curve" smooth="yes"/>
	  <point x="330" y="231"/>
	  <point x="323" y="300"/>
	  <point x="314" y="323" type="curve"/>
	  <point x="246" y="296"/>
	  <point x="201" y="200"/>
	  <point x="179" y="34" type="curve"/>
	</contour>
  </outline>
</glyph>
<glyph name="f" format="1">
  <advance width="345"/>
  <unicode hex="0066"/>
  <outline>
    <contour>
      <point x="293" y="463" type="line"/>
      <point x="244" y="446"/>
      <point x="209" y="417"/>
      <point x="189" y="376" type="curve"/>
      <point x="321" y="383" type="line"/>
      <point x="318" y="330" type="line"/>
      <point x="239" y="318" type="line"/>
      <point x="200" y="-5" type="line"/>
      <point x="121" y="-12" type="line"/>
      <point x="89" y="295" type="line"/>
      <point x="21" y="285" type="line"/>
      <point x="16" y="367" type="line"/>
      <point x="88" y="370" type="line"/>
      <point x="97" y="514"/>
      <point x="173" y="590"/>
      <point x="263" y="600" type="curve"/>
    </contour>
  </outline>
</glyph>
<glyph name="i" format="1">
  <advance width="283"/>
  <unicode hex="0069"/>
  <outline>
    <contour>
      <point x="97" y="-12" type="line"/>
      <point x="56" y="384" type="line"/>
      <point x="227" y="410" type="line"/>
      <point x="176" y="-5" type="line"/>
    </contour>
    <contour>
      <point x="66" y="488"/>
      <point x="59" y="506"/>
      <point x="59" y="526" type="curve" smooth="yes"/>
      <point x="59" y="566"/>
      <point x="93" y="600"/>
      <point x="134" y="600" type="curve" smooth="yes"/>
      <point x="174" y="600"/>
      <point x="208" y="566"/>
      <point x="208" y="526" type="curve" smooth="yes"/>
      <point x="208" y="485"/>
      <point x="174" y="451"/>
      <point x="134" y="451" type="curve" smooth="yes"/>
      <point x="114" y="451"/>
      <point x="96" y="458"/>
      <point x="82" y="474" type="curve"/>
    </contour>
  </outline>
</glyph>
<glyph name="j" format="1">
  <advance width="283"/>
  <unicode hex="006A"/>
  <outline>
    <contour>
      <point x="66" y="488"/>
      <point x="59" y="506"/>
      <point x="59" y="526" type="curve" smooth="yes"/>
      <point x="59" y="566"/>
      <point x="93" y="600"/>
      <point x="134" y="600" type="curve" smooth="yes"/>
      <point x="174" y="600"/>
      <point x="208" y="566"/>
      <point x="208" y="526" type="curve" smooth="yes"/>
      <point x="208" y="485"/>
      <point x="174" y="451"/>
      <point x="134" y="451" type="curve" smooth="yes"/>
      <point x="114" y="451"/>
      <point x="96" y="458"/>
      <point x="82" y="474" type="curve"/>
    </contour>
    <contour>
      <point x="20" y="-108"/>
      <point x="-12" y="-96"/>
      <point x="-42" y="-72" type="curve"/>
      <point x="-18" y="-31" type="line"/>
      <point x="-2" y="-42"/>
      <point x="16" y="-48"/>
      <point x="36" y="-48" type="curve" smooth="yes"/>
      <point x="74" y="-48"/>
      <point x="93" y="-25"/>
      <point x="93" y="22" type="curve" smooth="yes"/>
      <point x="93" y="28"/>
      <point x="81" y="148"/>
      <point x="56" y="384" type="curve"/>
      <point x="227" y="410" type="line"/>
      <point x="176" y="-4" type="line" smooth="yes"/>
      <point x="167" y="-74"/>
      <point x="127" y="-108"/>
      <point x="54" y="-108" type="curve" smooth="yes"/>
    </contour>
  </outline>
</glyph>
<glyph name="k" format="1">
  <advance width="478"/>
  <unicode hex="006B"/>
  <outline>
    <contour>
      <point x="421" y="387" type="line"/>
      <point x="297" y="258" type="line"/>
      <point x="470" y="-2" type="line"/>
      <point x="318" y="-12" type="line"/>
      <point x="218" y="175" type="line"/>
      <point x="190" y="148" type="line"/>
      <point x="176" y="-5" type="line"/>
      <point x="97" y="-12" type="line"/>
      <point x="56" y="546" type="line"/>
      <point x="227" y="573" type="line"/>
      <point x="197" y="227" type="line"/>
      <point x="367" y="429" type="line"/>
    </contour>
  </outline>
</glyph>
<glyph name="l" format="1">
  <advance width="283"/>
  <unicode hex="006C"/>
  <outline>
    <contour>
      <point x="97" y="-12" type="line"/>
      <point x="56" y="546" type="line"/>
      <point x="227" y="573" type="line"/>
      <point x="176" y="-5" type="line"/>
    </contour>
  </outline>
</glyph>
<glyph name="m" format="1">
  <advance width="744"/>
  <unicode hex="006D"/>
  <outline>
	<contour>
	  <point x="365" y="418"/>
	  <point x="374" y="417"/>
	  <point x="384" y="414" type="curve"/>
	  <point x="405" y="388"/>
	  <point x="422" y="342"/>
	  <point x="434" y="274" type="curve"/>
	  <point x="441" y="274" type="line"/>
	  <point x="479" y="364"/>
	  <point x="532" y="418"/>
	  <point x="586" y="418" type="curve" smooth="yes"/>
	  <point x="597" y="418"/>
	  <point x="606" y="417"/>
	  <point x="616" y="414" type="curve"/>
	  <point x="670" y="347"/>
	  <point x="687" y="156"/>
	  <point x="687" y="-5" type="curve"/>
	  <point x="543" y="-12" type="line"/>
	  <point x="543" y="114"/>
	  <point x="539" y="226"/>
	  <point x="531" y="323" type="curve"/>
	  <point x="467" y="298"/>
	  <point x="425" y="188"/>
	  <point x="404" y="-5" type="curve"/>
	  <point x="311" y="-12" type="line"/>
	  <point x="311" y="114"/>
	  <point x="307" y="226"/>
	  <point x="299" y="323" type="curve"/>
	  <point x="275" y="314"/>
	  <point x="252" y="288"/>
	  <point x="230" y="247" type="curve" smooth="yes"/>
	  <point x="206" y="206"/>
	  <point x="190" y="141"/>
	  <point x="179" y="54" type="curve" smooth="yes"/>
	  <point x="172" y="-5" type="line"/>
	  <point x="93" y="-12" type="line"/>
	  <point x="52" y="385" type="line"/>
	  <point x="223" y="411" type="line"/>
	  <point x="208" y="286" type="line"/>
	  <point x="214" y="286" type="line"/>
	  <point x="254" y="374"/>
	  <point x="302" y="418"/>
	  <point x="354" y="418" type="curve" smooth="yes"/>
	</contour>
  </outline>
</glyph>
<glyph name="p" format="1">
  <advance width="542"/>
  <unicode hex="0070"/>
  <outline>
    <contour>
      <point x="391" y="418"/>
      <point x="401" y="417"/>
      <point x="410" y="414" type="curve"/>
      <point x="449" y="368"/>
      <point x="475" y="270"/>
      <point x="475" y="156" type="curve" smooth="yes"/>
      <point x="475" y="42"/>
      <point x="431" y="-19"/>
      <point x="309" y="-19" type="curve" smooth="yes"/>
      <point x="265" y="-19"/>
      <point x="224" y="-10"/>
      <point x="185" y="8" type="curve"/>
      <point x="163" y="-166" type="line"/>
      <point x="89" y="-174" type="line"/>
      <point x="64" y="385" type="line"/>
      <point x="235" y="411" type="line"/>
      <point x="218" y="270" type="line"/>
      <point x="223" y="270" type="line"/>
      <point x="266" y="362"/>
      <point x="322" y="418"/>
      <point x="381" y="418" type="curve" smooth="yes"/>
    </contour>
    <contour>
      <point x="298" y="30"/>
      <point x="314" y="34"/>
      <point x="328" y="42" type="curve"/>
      <point x="336" y="82"/>
      <point x="340" y="122"/>
      <point x="340" y="158" type="curve" smooth="yes"/>
      <point x="340" y="231"/>
      <point x="333" y="300"/>
      <point x="324" y="323" type="curve"/>
      <point x="301" y="314"/>
      <point x="295" y="314"/>
      <point x="270" y="290" type="curve" smooth="yes"/>
      <point x="257" y="278"/>
      <point x="246" y="263"/>
      <point x="238" y="246" type="curve" smooth="yes"/>
      <point x="217" y="202"/>
      <point x="202" y="139"/>
      <point x="191" y="59" type="curve"/>
      <point x="215" y="40"/>
      <point x="244" y="30"/>
      <point x="278" y="30" type="curve" smooth="yes"/>
    </contour>
  </outline>
</glyph>
<glyph name="q" format="1">
  <advance width="576"/>
  <unicode hex="0071"/>
  <outline>
    <contour>
      <point x="151" y="-18"/>
      <point x="141" y="-16"/>
      <point x="132" y="-12" type="curve"/>
      <point x="93" y="29"/>
      <point x="66" y="114"/>
      <point x="66" y="212" type="curve" smooth="yes"/>
      <point x="66" y="339"/>
      <point x="110" y="397"/>
      <point x="233" y="397" type="curve" smooth="yes"/>
      <point x="278" y="397"/>
      <point x="316" y="386"/>
      <point x="349" y="365" type="curve"/>
      <point x="366" y="388" type="line"/>
      <point x="520" y="411" type="line"/>
      <point x="448" y="-166" type="line"/>
      <point x="374" y="-174" type="line"/>
      <point x="360" y="118" type="line"/>
      <point x="354" y="118" type="line"/>
      <point x="314" y="27"/>
      <point x="250" y="-18"/>
      <point x="164" y="-18" type="curve" smooth="yes"/>
    </contour>
    <contour>
      <point x="244" y="349"/>
      <point x="227" y="345"/>
      <point x="214" y="338" type="curve"/>
      <point x="206" y="299"/>
      <point x="202" y="259"/>
      <point x="202" y="218" type="curve" smooth="yes"/>
      <point x="202" y="133"/>
      <point x="208" y="76"/>
      <point x="218" y="46" type="curve"/>
      <point x="270" y="55"/>
      <point x="318" y="111"/>
      <point x="338" y="174" type="curve" smooth="yes"/>
      <point x="348" y="206"/>
      <point x="353" y="242"/>
      <point x="353" y="282" type="curve" smooth="yes"/>
      <point x="353" y="290"/>
      <point x="352" y="303"/>
      <point x="351" y="320" type="curve"/>
      <point x="327" y="339"/>
      <point x="298" y="349"/>
      <point x="264" y="349" type="curve" smooth="yes"/>
    </contour>
  </outline>
</glyph>
<glyph name="r" format="1">
  <advance width="376"/>
  <unicode hex="0072"/>
  <outline>
	<contour>
	  <point x="234" y="263"/>
	  <point x="200" y="221"/>
	  <point x="183" y="86" type="curve" smooth="yes"/>
	  <point x="172" y="-5" type="line"/>
	  <point x="93" y="-12" type="line"/>
	  <point x="52" y="385" type="line"/>
	  <point x="223" y="411" type="line"/>
	  <point x="207" y="283" type="line"/>
	  <point x="213" y="283" type="line"/>
	  <point x="255" y="375"/>
	  <point x="310" y="424"/>
	  <point x="376" y="430" type="curve"/>
	  <point x="354" y="259" type="line"/>
	  <point x="334" y="262"/>
	  <point x="318" y="263"/>
	  <point x="306" y="263" type="curve" smooth="yes"/>
	</contour>
  </outline>
</glyph>
<glyph name="s" format="1">
  <advance width="335"/>
  <unicode hex="0073"/>
  <outline>
    <contour>
      <point x="48" y="331"/>
      <point x="84" y="394"/>
      <point x="156" y="450" type="curve"/>
      <point x="287" y="362" type="line"/>
      <point x="228" y="325"/>
      <point x="198" y="285"/>
      <point x="198" y="243" type="curve" smooth="yes"/>
      <point x="198" y="222"/>
      <point x="210" y="193"/>
      <point x="235" y="158" type="curve" smooth="yes"/>
      <point x="259" y="122"/>
      <point x="271" y="95"/>
      <point x="271" y="75" type="curve" smooth="yes"/>
      <point x="271" y="6"/>
      <point x="223" y="-49"/>
      <point x="127" y="-86" type="curve"/>
      <point x="92" y="-39" type="line"/>
      <point x="134" y="-16"/>
      <point x="155" y="9"/>
      <point x="155" y="37" type="curve" smooth="yes"/>
      <point x="155" y="63"/>
      <point x="138" y="96"/>
      <point x="102" y="136" type="curve" smooth="yes"/>
      <point x="75" y="166"/>
      <point x="48" y="215"/>
      <point x="48" y="263" type="curve" smooth="yes"/>
    </contour>
  </outline>
</glyph>
<glyph name="t" format="1">
  <advance width="345"/>
  <unicode hex="0074"/>
  <outline>
    <contour>
      <point x="121" y="-12" type="line"/>
      <point x="86" y="311" type="line"/>
      <point x="13" y="301" type="line"/>
      <point x="8" y="383" type="line"/>
      <point x="78" y="386" type="line"/>
      <point x="66" y="498" type="line"/>
      <point x="266" y="525" type="line"/>
      <point x="250" y="395" type="line"/>
      <point x="329" y="399" type="line"/>
      <point x="326" y="346" type="line"/>
      <point x="242" y="334" type="line"/>
      <point x="200" y="-5" type="line"/>
    </contour>
  </outline>
</glyph>
<glyph name="v" format="1">
  <advance width="446"/>
  <unicode hex="0076"/>
  <outline>
    <contour>
      <point x="195" y="410" type="line"/>
      <point x="248" y="104" type="line"/>
      <point x="254" y="104" type="line"/>
      <point x="358" y="408" type="line"/>
      <point x="422" y="390" type="line"/>
      <point x="266" y="-2" type="line"/>
      <point x="202" y="-12" type="line"/>
      <point x="24" y="384" type="line"/>
    </contour>
  </outline>
</glyph>
<glyph name="w" format="1">
  <advance width="662"/>
  <unicode hex="0077"/>
  <outline>
	<contour>
	  <point x="189" y="409" type="line"/>
	  <point x="238" y="98" type="line"/>
	  <point x="245" y="98" type="line"/>
	  <point x="353" y="382" type="line"/>
	  <point x="410" y="364" type="line"/>
	  <point x="484" y="95" type="line"/>
	  <point x="490" y="95" type="line"/>
	  <point x="574" y="403" type="line"/>
	  <point x="638" y="386" type="line"/>
	  <point x="511" y="-2" type="line"/>
	  <point x="446" y="-12" type="line"/>
	  <point x="330" y="175" type="line"/>
	  <point x="254" y="-2" type="line"/>
	  <point x="175" y="-12" type="line"/>
	  <point x="24" y="384" type="line"/>
	</contour>
  </outline>
</glyph>
<glyph name="x" format="1">
  <advance width="432"/>
  <unicode hex="0078"/>
  <outline>
    <contour>
      <point x="24" y="0" type="line"/>
      <point x="146" y="186" type="line"/>
      <point x="32" y="384" type="line"/>
      <point x="203" y="408" type="line"/>
      <point x="256" y="263" type="line"/>
      <point x="328" y="408" type="line"/>
      <point x="401" y="390" type="line"/>
      <point x="278" y="205" type="line"/>
      <point x="408" y="0" type="line"/>
      <point x="237" y="-18" type="line"/>
      <point x="170" y="131" type="line"/>
      <point x="97" y="-18" type="line"/>
    </contour>
  </outline>
</glyph>
<glyph name="y" format="1">
  <advance width="453"/>
  <unicode hex="0079"/>
  <outline>
	<contour>
	  <point x="255" y="-46" type="line" smooth="yes"/>
	  <point x="218" y="-139"/>
	  <point x="184" y="-170"/>
	  <point x="118" y="-170" type="curve" smooth="yes"/>
	  <point x="86" y="-170"/>
	  <point x="54" y="-158"/>
	  <point x="24" y="-134" type="curve"/>
	  <point x="48" y="-93" type="line"/>
	  <point x="66" y="-99"/>
	  <point x="85" y="-102"/>
	  <point x="106" y="-102" type="curve" smooth="yes"/>
	  <point x="148" y="-102"/>
	  <point x="186" y="-75"/>
	  <point x="196" y="-18" type="curve"/>
	  <point x="30" y="384" type="line"/>
	  <point x="202" y="410" type="line"/>
	  <point x="254" y="103" type="line"/>
	  <point x="261" y="103" type="line"/>
	  <point x="364" y="408" type="line"/>
	  <point x="429" y="390" type="line"/>
	</contour>
  </outline>
</glyph>
<glyph name="z" format="1">
  <advance width="448"/>
  <unicode hex="007A"/>
  <outline>
    <contour>
      <point x="61" y="407" type="line"/>
      <point x="386" y="400" type="line"/>
      <point x="396" y="317" type="line"/>
      <point x="128" y="52" type="line"/>
      <point x="376" y="82" type="line"/>
      <point x="381" y="0" type="line"/>
      <point x="36" y="-7" type="line"/>
      <point x="38" y="42" type="line"/>
      <point x="218" y="334" type="line"/>
      <point x="63" y="350" type="line"/>
    </contour>
  </outline>
</glyph>
<glyph name="braceleft" format="1">
  <advance width="341"/>
  <unicode hex="007B"/>
  <outline>
	<contour>
	  <point x="173" y="39" type="line"/>
	  <point x="173" y="8"/>
	  <point x="189" y="-8"/>
	  <point x="225" y="-8" type="curve" smooth="yes"/>
	  <point x="242" y="-8"/>
	  <point x="268" y="-5"/>
	  <point x="302" y="1" type="curve"/>
	  <point x="309" y="-43" type="line"/>
	  <point x="255" y="-62"/>
	  <point x="214" y="-72"/>
	  <point x="187" y="-72" type="curve" smooth="yes"/>
	  <point x="132" y="-72"/>
	  <point x="120" y="-44"/>
	  <point x="114" y="27" type="curve" smooth="yes"/>
	  <point x="102" y="210" type="line"/>
	  <point x="46" y="220" type="line"/>
	  <point x="42" y="258" type="line"/>
	  <point x="98" y="281" type="line"/>
	  <point x="90" y="375"/>
	  <point x="87" y="431"/>
	  <point x="87" y="449" type="curve" smooth="yes"/>
	  <point x="87" y="484"/>
	  <point x="103" y="521"/>
	  <point x="126" y="540" type="curve" smooth="yes"/>
	  <point x="149" y="559"/>
	  <point x="196" y="570"/>
	  <point x="238" y="573" type="curve"/>
	  <point x="258" y="574"/>
	  <point x="284" y="574"/>
	  <point x="317" y="574" type="curve"/>
	  <point x="317" y="526" type="line"/>
	  <point x="253" y="526"/>
	  <point x="211" y="500"/>
	  <point x="208" y="464" type="curve" smooth="yes"/>
	  <point x="194" y="314" type="line" smooth="yes"/>
	  <point x="192" y="284"/>
	  <point x="173" y="263"/>
	  <point x="138" y="253" type="curve"/>
	  <point x="136" y="246" type="line"/>
	  <point x="168" y="236"/>
	  <point x="184" y="220"/>
	  <point x="184" y="198" type="curve"/>
	</contour>
  </outline>
</glyph>
<glyph name="bar" format="1">
  <advance width="244"/>
  <unicode hex="007C"/>
  <outline>
    <contour>
      <point x="173" y="477" type="line"/>
      <point x="173" y="0" type="line"/>
      <point x="74" y="0" type="line"/>
      <point x="74" y="477" type="line"/>
    </contour>
  </outline>
</glyph>
<glyph name="braceright" format="1">
  <advance width="341"/>
  <unicode hex="007D"/>
  <outline>
    <contour>
      <point x="157" y="198" type="line"/>
      <point x="157" y="220"/>
      <point x="173" y="236"/>
      <point x="205" y="246" type="curve"/>
      <point x="203" y="253" type="line"/>
      <point x="168" y="263"/>
      <point x="149" y="284"/>
      <point x="146" y="314" type="curve" smooth="yes"/>
      <point x="133" y="464" type="line" smooth="yes"/>
      <point x="130" y="500"/>
      <point x="88" y="526"/>
      <point x="24" y="526" type="curve"/>
      <point x="24" y="574" type="line"/>
      <point x="89" y="574"/>
      <point x="124" y="573"/>
      <point x="166" y="562" type="curve" smooth="yes"/>
      <point x="187" y="557"/>
      <point x="203" y="550"/>
      <point x="214" y="540" type="curve" smooth="yes"/>
      <point x="241" y="518"/>
      <point x="254" y="484"/>
      <point x="254" y="438" type="curve" smooth="yes"/>
      <point x="254" y="428"/>
      <point x="250" y="375"/>
      <point x="243" y="281" type="curve"/>
      <point x="298" y="258" type="line"/>
      <point x="294" y="220" type="line"/>
      <point x="239" y="210" type="line"/>
      <point x="226" y="27" type="line" smooth="yes"/>
      <point x="221" y="-44"/>
      <point x="209" y="-72"/>
      <point x="154" y="-72" type="curve" smooth="yes"/>
      <point x="126" y="-72"/>
      <point x="86" y="-62"/>
      <point x="32" y="-43" type="curve"/>
      <point x="39" y="1" type="line"/>
      <point x="73" y="-5"/>
      <point x="98" y="-8"/>
      <point x="117" y="-8" type="curve" smooth="yes"/>
      <point x="151" y="-8"/>
      <point x="168" y="8"/>
      <point x="168" y="39" type="curve"/>
    </contour>
  </outline>
</glyph>
<glyph name="asciitilde" format="1">
  <advance width="490"/>
  <unicode hex="007E"/>
  <outline>
	<contour>
	  <point x="410" y="234" type="line"/>
	  <point x="390" y="246"/>
	  <point x="366" y="252"/>
	  <point x="342" y="252" type="curve" smooth="yes"/>
	  <point x="317" y="252"/>
	  <point x="284" y="240"/>
	  <point x="244" y="217" type="curve" smooth="yes"/>
	  <point x="203" y="194"/>
	  <point x="170" y="182"/>
	  <point x="142" y="182" type="curve" smooth="yes"/>
	  <point x="114" y="182"/>
	  <point x="90" y="190"/>
	  <point x="72" y="207" type="curve"/>
	  <point x="78" y="298" type="line"/>
	  <point x="98" y="281"/>
	  <point x="120" y="273"/>
	  <point x="146" y="273" type="curve" smooth="yes"/>
	  <point x="171" y="273"/>
	  <point x="203" y="281"/>
	  <point x="241" y="296" type="curve" smooth="yes"/>
	  <point x="278" y="311"/>
	  <point x="310" y="318"/>
	  <point x="338" y="318" type="curve" smooth="yes"/>
	  <point x="366" y="318"/>
	  <point x="392" y="310"/>
	  <point x="418" y="291" type="curve"/>
	</contour>
  </outline>
</glyph>
<glyph name="exclamdown" format="1">
  <advance width="306"/>
  <unicode hex="00A1"/>
  <outline>
	<contour>
	  <point x="251" y="373"/>
	  <point x="258" y="355"/>
	  <point x="258" y="335" type="curve" smooth="yes"/>
	  <point x="258" y="294"/>
	  <point x="225" y="261"/>
	  <point x="184" y="261" type="curve" smooth="yes"/>
	  <point x="143" y="261"/>
	  <point x="110" y="294"/>
	  <point x="110" y="335" type="curve" smooth="yes"/>
	  <point x="110" y="376"/>
	  <point x="143" y="410"/>
	  <point x="184" y="410" type="curve" smooth="yes"/>
	  <point x="204" y="410"/>
	  <point x="222" y="402"/>
	  <point x="237" y="388" type="curve"/>
	</contour>
	<contour>
	  <point x="102" y="-149" type="line"/>
	  <point x="80" y="-117" type="line"/>
	  <point x="150" y="210" type="line"/>
	  <point x="222" y="217" type="line"/>
	  <point x="246" y="-123" type="line"/>
	</contour>
  </outline>
</glyph>
<glyph name="cent" format="1">
  <advance width="368"/>
  <unicode hex="00A2"/>
  <outline>
	<contour>
	  <point x="40" y="317"/>
	  <point x="94" y="422"/>
	  <point x="162" y="477" type="curve"/>
	  <point x="152" y="599" type="line"/>
	  <point x="232" y="599" type="line"/>
	  <point x="221" y="474" type="line"/>
	  <point x="328" y="405" type="line"/>
	  <point x="194" y="332"/>
	  <point x="112" y="228"/>
	  <point x="112" y="119" type="curve"/>
	  <point x="134" y="116"/>
	  <point x="158" y="114"/>
	  <point x="182" y="114" type="curve" smooth="yes"/>
	  <point x="233" y="114"/>
	  <point x="281" y="123"/>
	  <point x="326" y="141" type="curve"/>
	  <point x="350" y="63" type="line"/>
	  <point x="313" y="51"/>
	  <point x="270" y="45"/>
	  <point x="220" y="45" type="curve"/>
	  <point x="232" y="-90" type="line"/>
	  <point x="152" y="-90" type="line"/>
	  <point x="163" y="50" type="line"/>
	  <point x="114" y="57"/>
	  <point x="77" y="71"/>
	  <point x="52" y="92" type="curve"/>
	  <point x="44" y="130"/>
	  <point x="40" y="166"/>
	  <point x="40" y="199" type="curve" smooth="yes"/>
	</contour>
  </outline>
</glyph>
<glyph name="sterling" format="1">
  <advance width="506"/>
  <unicode hex="00A3"/>
  <outline>
	<contour>
	  <point x="146" y="178"/>
	  <point x="143" y="198"/>
	  <point x="138" y="220" type="curve"/>
	  <point x="64" y="215" type="line"/>
	  <point x="72" y="279" type="line"/>
	  <point x="121" y="279" type="line"/>
	  <point x="102" y="339"/>
	  <point x="94" y="389"/>
	  <point x="94" y="430" type="curve" smooth="yes"/>
	  <point x="94" y="452"/>
	  <point x="97" y="474"/>
	  <point x="104" y="494" type="curve"/>
	  <point x="145" y="519"/>
	  <point x="200" y="532"/>
	  <point x="268" y="532" type="curve" smooth="yes"/>
	  <point x="354" y="532"/>
	  <point x="400" y="516"/>
	  <point x="458" y="484" type="curve"/>
	  <point x="416" y="398" type="line"/>
	  <point x="294" y="480" type="line"/>
	  <point x="262" y="460"/>
	  <point x="252" y="433"/>
	  <point x="252" y="379" type="curve" smooth="yes"/>
	  <point x="252" y="352"/>
	  <point x="251" y="318"/>
	  <point x="250" y="279" type="curve"/>
	  <point x="370" y="279" type="line"/>
	  <point x="362" y="237" type="line"/>
	  <point x="246" y="228" type="line"/>
	  <point x="238" y="150"/>
	  <point x="214" y="93"/>
	  <point x="174" y="55" type="curve"/>
	  <point x="177" y="50" type="line"/>
	  <point x="442" y="90" type="line"/>
	  <point x="447" y="0" type="line"/>
	  <point x="88" y="0" type="line"/>
	  <point x="90" y="37" type="line"/>
	  <point x="127" y="68"/>
	  <point x="146" y="110"/>
	  <point x="146" y="162" type="curve" smooth="yes"/>
	</contour>
  </outline>
</glyph>
<glyph name="currency" format="1">
  <advance width="542"/>
  <unicode hex="00A4"/>
  <outline>
	<contour>
	  <point x="410" y="377" type="line"/>
	  <point x="429" y="350"/>
	  <point x="438" y="318"/>
	  <point x="438" y="278" type="curve" smooth="yes"/>
	  <point x="438" y="237"/>
	  <point x="429" y="204"/>
	  <point x="410" y="178" type="curve"/>
	  <point x="502" y="103" type="line"/>
	  <point x="446" y="46" type="line"/>
	  <point x="369" y="142" type="line"/>
	  <point x="342" y="127"/>
	  <point x="310" y="120"/>
	  <point x="271" y="120" type="curve" smooth="yes"/>
	  <point x="232" y="120"/>
	  <point x="200" y="127"/>
	  <point x="174" y="142" type="curve"/>
	  <point x="97" y="46" type="line"/>
	  <point x="40" y="103" type="line"/>
	  <point x="133" y="178" type="line"/>
	  <point x="114" y="204"/>
	  <point x="104" y="237"/>
	  <point x="104" y="278" type="curve" smooth="yes"/>
	  <point x="104" y="318"/>
	  <point x="114" y="351"/>
	  <point x="133" y="378" type="curve"/>
	  <point x="40" y="452" type="line"/>
	  <point x="97" y="509" type="line"/>
	  <point x="174" y="413" type="line"/>
	  <point x="199" y="428"/>
	  <point x="232" y="435"/>
	  <point x="271" y="435" type="curve" smooth="yes"/>
	  <point x="310" y="435"/>
	  <point x="343" y="428"/>
	  <point x="369" y="413" type="curve"/>
	  <point x="446" y="509" type="line"/>
	  <point x="502" y="452" type="line"/>
	</contour>
	<contour>
	  <point x="218" y="379"/>
	  <point x="202" y="358"/>
	  <point x="202" y="255" type="curve" smooth="yes"/>
	  <point x="202" y="229"/>
	  <point x="205" y="206"/>
	  <point x="212" y="187" type="curve"/>
	  <point x="224" y="179"/>
	  <point x="238" y="175"/>
	  <point x="255" y="175" type="curve" smooth="yes"/>
	  <point x="323" y="175"/>
	  <point x="339" y="196"/>
	  <point x="339" y="298" type="curve" smooth="yes"/>
	  <point x="339" y="325"/>
	  <point x="336" y="348"/>
	  <point x="330" y="368" type="curve"/>
	  <point x="318" y="375"/>
	  <point x="303" y="379"/>
	  <point x="286" y="379" type="curve" smooth="yes"/>
	</contour>
  </outline>
</glyph>
<glyph name="yen" format="1">
  <advance width="446"/>
  <unicode hex="00A5"/>
  <outline>
	<contour>
	  <point x="183" y="532" type="line"/>
	  <point x="247" y="242" type="line"/>
	  <point x="254" y="242" type="line"/>
	  <point x="370" y="530" type="line"/>
	  <point x="434" y="512" type="line"/>
	  <point x="342" y="295" type="line"/>
	  <point x="416" y="295" type="line"/>
	  <point x="406" y="253" type="line"/>
	  <point x="322" y="248" type="line"/>
	  <point x="296" y="187" type="line"/>
	  <point x="290" y="151" type="line"/>
	  <point x="400" y="151" type="line"/>
	  <point x="390" y="109" type="line"/>
	  <point x="283" y="102" type="line"/>
	  <point x="266" y="-3" type="line"/>
	  <point x="186" y="-11" type="line"/>
	  <point x="171" y="95" type="line"/>
	  <point x="34" y="87" type="line"/>
	  <point x="43" y="151" type="line"/>
	  <point x="164" y="151" type="line"/>
	  <point x="162" y="167" type="line"/>
	  <point x="130" y="236" type="line"/>
	  <point x="50" y="231" type="line"/>
	  <point x="59" y="295" type="line"/>
	  <point x="102" y="295" type="line"/>
	  <point x="3" y="510" type="line"/>
	</contour>
  </outline>
</glyph>
<glyph name="brokenbar" format="1">
  <advance width="285"/>
  <unicode hex="00A6"/>
  <outline>
	<contour>
	  <point x="198" y="591" type="line"/>
	  <point x="191" y="400" type="line"/>
	  <point x="93" y="400" type="line"/>
	  <point x="86" y="591" type="line"/>
	</contour>
	<contour>
	  <point x="110" y="-82" type="line"/>
	  <point x="102" y="154" type="line"/>
	  <point x="182" y="154" type="line"/>
	  <point x="174" y="-82" type="line"/>
	</contour>
  </outline>
</glyph>
<glyph name="section" format="1">
  <advance width="496"/>
  <unicode hex="00A7"/>
  <outline>
    <contour>
      <point x="450" y="117"/>
      <point x="410" y="70"/>
      <point x="331" y="38" type="curve"/>
      <point x="343" y="13"/>
      <point x="349" y="-14"/>
      <point x="349" y="-42" type="curve" smooth="yes"/>
      <point x="349" y="-96"/>
      <point x="320" y="-150"/>
      <point x="263" y="-203" type="curve"/>
      <point x="86" y="-103" type="line"/>
      <point x="132" y="-71"/>
      <point x="155" y="-36"/>
      <point x="155" y="2" type="curve" smooth="yes"/>
      <point x="155" y="38"/>
      <point x="128" y="78"/>
      <point x="101" y="106" type="curve" smooth="yes"/>
      <point x="74" y="133"/>
      <point x="46" y="176"/>
      <point x="46" y="221" type="curve" smooth="yes"/>
      <point x="46" y="278"/>
      <point x="85" y="324"/>
      <point x="164" y="358" type="curve"/>
      <point x="152" y="383"/>
      <point x="146" y="410"/>
      <point x="146" y="439" type="curve" smooth="yes"/>
      <point x="146" y="491"/>
      <point x="175" y="545"/>
      <point x="234" y="599" type="curve"/>
      <point x="410" y="500" type="line"/>
      <point x="363" y="467"/>
      <point x="340" y="432"/>
      <point x="340" y="394" type="curve" smooth="yes"/>
      <point x="340" y="358"/>
      <point x="367" y="319"/>
      <point x="395" y="292" type="curve" smooth="yes"/>
      <point x="423" y="265"/>
      <point x="450" y="221"/>
      <point x="450" y="177" type="curve" smooth="yes"/>
    </contour>
    <contour>
      <point x="314" y="114"/>
      <point x="326" y="131"/>
      <point x="326" y="149" type="curve" smooth="yes"/>
      <point x="326" y="183"/>
      <point x="307" y="207"/>
      <point x="260" y="251" type="curve" smooth="yes"/>
      <point x="237" y="273"/>
      <point x="220" y="290"/>
      <point x="210" y="302" type="curve"/>
      <point x="183" y="283"/>
      <point x="170" y="265"/>
      <point x="170" y="248" type="curve" smooth="yes"/>
      <point x="170" y="213"/>
      <point x="189" y="189"/>
      <point x="238" y="144" type="curve" smooth="yes"/>
      <point x="262" y="121"/>
      <point x="278" y="105"/>
      <point x="287" y="95" type="curve"/>
    </contour>
  </outline>
</glyph>
<glyph name="dieresis" format="1">
  <advance width="350"/>
  <unicode hex="00A8"/>
  <outline>
    <contour>
      <point x="37" y="492"/>
      <point x="30" y="507"/>
      <point x="30" y="526" type="curve" smooth="yes"/>
      <point x="30" y="562"/>
      <point x="58" y="593"/>
      <point x="91" y="593" type="curve" smooth="yes"/>
      <point x="124" y="593"/>
      <point x="152" y="562"/>
      <point x="152" y="526" type="curve" smooth="yes"/>
      <point x="152" y="490"/>
      <point x="124" y="458"/>
      <point x="91" y="458" type="curve" smooth="yes"/>
      <point x="74" y="458"/>
      <point x="61" y="465"/>
      <point x="49" y="478" type="curve" smooth="yes"/>
    </contour>
    <contour>
      <point x="205" y="492"/>
      <point x="198" y="507"/>
      <point x="198" y="526" type="curve" smooth="yes"/>
      <point x="198" y="562"/>
      <point x="226" y="593"/>
      <point x="259" y="593" type="curve" smooth="yes"/>
      <point x="292" y="593"/>
      <point x="320" y="562"/>
      <point x="320" y="526" type="curve" smooth="yes"/>
      <point x="320" y="490"/>
      <point x="292" y="458"/>
      <point x="259" y="458" type="curve" smooth="yes"/>
      <point x="242" y="458"/>
      <point x="229" y="465"/>
      <point x="217" y="478" type="curve" smooth="yes"/>
    </contour>
  </outline>
</glyph>
<glyph name="copyright" format="1">
  <advance width="680"/>
  <unicode hex="00A9"/>
  <outline>
    <contour>
      <point x="551" y="628"/>
      <point x="616" y="530"/>
      <point x="616" y="402" type="curve" smooth="yes"/>
      <point x="616" y="228"/>
      <point x="496" y="86"/>
      <point x="348" y="86" type="curve" smooth="yes"/>
      <point x="170" y="86"/>
      <point x="80" y="244"/>
      <point x="80" y="560" type="curve"/>
      <point x="91" y="575" type="line"/>
      <point x="198" y="610"/>
      <point x="290" y="628"/>
      <point x="368" y="628" type="curve" smooth="yes"/>
    </contour>
    <contour>
      <point x="584" y="518"/>
      <point x="519" y="596"/>
      <point x="372" y="596" type="curve" smooth="yes"/>
      <point x="298" y="596"/>
      <point x="212" y="580"/>
      <point x="112" y="548" type="curve"/>
      <point x="114" y="262"/>
      <point x="193" y="118"/>
      <point x="348" y="118" type="curve" smooth="yes"/>
      <point x="478" y="118"/>
      <point x="584" y="245"/>
      <point x="584" y="402" type="curve" smooth="yes"/>
    </contour>
    <contour>
      <point x="302" y="257"/>
      <point x="320" y="256"/>
      <point x="347" y="256" type="curve" smooth="yes"/>
      <point x="374" y="256"/>
      <point x="403" y="262"/>
      <point x="433" y="273" type="curve"/>
      <point x="450" y="218" type="line"/>
      <point x="424" y="209"/>
      <point x="396" y="205"/>
      <point x="366" y="205" type="curve" smooth="yes"/>
      <point x="312" y="205"/>
      <point x="273" y="216"/>
      <point x="247" y="238" type="curve"/>
      <point x="242" y="264"/>
      <point x="239" y="290"/>
      <point x="239" y="317" type="curve" smooth="yes"/>
      <point x="239" y="423"/>
      <point x="288" y="518"/>
      <point x="342" y="554" type="curve"/>
      <point x="438" y="494" type="line"/>
      <point x="350" y="437"/>
      <point x="294" y="345"/>
      <point x="293" y="258" type="curve"/>
    </contour>
  </outline>
</glyph>
<glyph name="ordfeminine" format="1">
  <advance width="326"/>
  <unicode hex="00AA"/>
  <outline>
	<contour>
	  <point x="83" y="309"/>
	  <point x="79" y="309"/>
	  <point x="77" y="310" type="curve"/>
	  <point x="54" y="325"/>
	  <point x="39" y="357"/>
	  <point x="39" y="394" type="curve" smooth="yes"/>
	  <point x="39" y="412"/>
	  <point x="47" y="426"/>
	  <point x="63" y="435" type="curve" smooth="yes"/>
	  <point x="78" y="445"/>
	  <point x="107" y="450"/>
	  <point x="149" y="450" type="curve" smooth="yes"/>
	  <point x="168" y="450"/>
	  <point x="183" y="449"/>
	  <point x="194" y="447" type="curve"/>
	  <point x="194" y="475"/>
	  <point x="170" y="493"/>
	  <point x="138" y="493" type="curve" smooth="yes"/>
	  <point x="122" y="493"/>
	  <point x="104" y="487"/>
	  <point x="84" y="476" type="curve"/>
	  <point x="62" y="550" type="line"/>
	  <point x="92" y="562"/>
	  <point x="125" y="567"/>
	  <point x="159" y="567" type="curve" smooth="yes"/>
	  <point x="229" y="567"/>
	  <point x="273" y="534"/>
	  <point x="273" y="466" type="curve" smooth="yes"/>
	  <point x="273" y="459"/>
	  <point x="268" y="410"/>
	  <point x="258" y="317" type="curve"/>
	  <point x="207" y="313" type="line"/>
	  <point x="201" y="373" type="line"/>
	  <point x="196" y="373" type="line"/>
	  <point x="174" y="334"/>
	  <point x="134" y="309"/>
	  <point x="89" y="309" type="curve" smooth="yes"/>
	</contour>
	<contour>
	  <point x="258" y="237" type="line"/>
	  <point x="40" y="215" type="line"/>
	  <point x="48" y="279" type="line"/>
	  <point x="266" y="279" type="line"/>
	</contour>
	<contour>
	  <point x="188" y="422"/>
	  <point x="178" y="422"/>
	  <point x="164" y="422" type="curve" smooth="yes"/>
	  <point x="150" y="422"/>
	  <point x="137" y="422"/>
	  <point x="124" y="419" type="curve"/>
	  <point x="120" y="413"/>
	  <point x="118" y="404"/>
	  <point x="118" y="393" type="curve" smooth="yes"/>
	  <point x="118" y="382"/>
	  <point x="121" y="373"/>
	  <point x="125" y="366" type="curve"/>
	  <point x="162" y="374"/>
	  <point x="185" y="391"/>
	  <point x="195" y="421" type="curve"/>
	</contour>
  </outline>
</glyph>
<glyph name="guillemetleft" format="1">
  <advance width="574"/>
  <unicode hex="00AB"/>
  <outline>
    <contour>
      <point x="56" y="217" type="line"/>
      <point x="186" y="373" type="line"/>
      <point x="258" y="337" type="line"/>
      <point x="174" y="194" type="line"/>
      <point x="278" y="53" type="line"/>
      <point x="210" y="17" type="line"/>
      <point x="62" y="157" type="line"/>
    </contour>
    <contour>
      <point x="414" y="195" type="line"/>
      <point x="518" y="53" type="line"/>
      <point x="450" y="17" type="line"/>
      <point x="302" y="157" type="line"/>
      <point x="296" y="217" type="line"/>
      <point x="426" y="373" type="line"/>
      <point x="498" y="337" type="line"/>
    </contour>
  </outline>
</glyph>
<glyph name="logicalnot" format="1">
  <advance width="490"/>
  <unicode hex="00AC"/>
  <outline>
	<contour>
	  <point x="410" y="295" type="line"/>
	  <point x="410" y="72" type="line"/>
	  <point x="330" y="65" type="line"/>
	  <point x="344" y="225" type="line"/>
	  <point x="64" y="207" type="line"/>
	  <point x="72" y="295" type="line"/>
	</contour>
  </outline>
</glyph>
<glyph name="registered" format="1">
  <advance width="680"/>
  <unicode hex="00AE"/>
  <outline>
	<contour>
	  <point x="551" y="628"/>
	  <point x="616" y="530"/>
	  <point x="616" y="402" type="curve" smooth="yes"/>
	  <point x="616" y="228"/>
	  <point x="496" y="86"/>
	  <point x="348" y="86" type="curve" smooth="yes"/>
	  <point x="170" y="86"/>
	  <point x="80" y="244"/>
	  <point x="80" y="560" type="curve"/>
	  <point x="91" y="575" type="line"/>
	  <point x="198" y="610"/>
	  <point x="290" y="628"/>
	  <point x="368" y="628" type="curve" smooth="yes"/>
	</contour>
	<contour>
	  <point x="584" y="518"/>
	  <point x="519" y="596"/>
	  <point x="372" y="596" type="curve" smooth="yes"/>
	  <point x="298" y="596"/>
	  <point x="212" y="580"/>
	  <point x="112" y="548" type="curve"/>
	  <point x="114" y="262"/>
	  <point x="193" y="118"/>
	  <point x="348" y="118" type="curve" smooth="yes"/>
	  <point x="478" y="118"/>
	  <point x="584" y="245"/>
	  <point x="584" y="402" type="curve" smooth="yes"/>
	</contour>
	<contour>
	  <point x="438" y="312"/>
	  <point x="465" y="262"/>
	  <point x="487" y="218" type="curve"/>
	  <point x="451" y="197" type="line"/>
	  <point x="322" y="337" type="line"/>
	  <point x="310" y="334" type="line"/>
	  <point x="298" y="214" type="line"/>
	  <point x="246" y="210" type="line"/>
	  <point x="219" y="519" type="line"/>
	  <point x="265" y="534"/>
	  <point x="311" y="542"/>
	  <point x="358" y="542" type="curve" smooth="yes"/>
	  <point x="406" y="542"/>
	  <point x="442" y="534"/>
	  <point x="467" y="519" type="curve"/>
	  <point x="473" y="502"/>
	  <point x="476" y="486"/>
	  <point x="476" y="470" type="curve" smooth="yes"/>
	  <point x="476" y="429"/>
	  <point x="453" y="395"/>
	  <point x="407" y="369" type="curve"/>
	</contour>
	<contour>
	  <point x="314" y="370" type="line"/>
	  <point x="355" y="390"/>
	  <point x="380" y="425"/>
	  <point x="380" y="461" type="curve" smooth="yes"/>
	  <point x="380" y="478"/>
	  <point x="370" y="494"/>
	  <point x="350" y="506" type="curve"/>
	  <point x="345" y="506"/>
	  <point x="337" y="505"/>
	  <point x="328" y="502" type="curve"/>
	</contour>
  </outline>
</glyph>
<glyph name="macron" format="1">
  <advance width="306"/>
  <unicode hex="00AF"/>
  <outline>
	<contour>
	  <point x="270" y="489" type="line"/>
	  <point x="62" y="467" type="line"/>
	  <point x="67" y="562" type="line"/>
	  <point x="276" y="562" type="line"/>
	</contour>
  </outline>
</glyph>
<glyph name="degree" format="1">
  <advance width="312"/>
  <unicode hex="00B0"/>
  <outline>
    <contour>
      <point x="184" y="509"/>
      <point x="174" y="510"/>
      <point x="160" y="510" type="curve" smooth="yes"/>
      <point x="131" y="510"/>
      <point x="98" y="491"/>
      <point x="98" y="450" type="curve" smooth="yes"/>
      <point x="98" y="430"/>
      <point x="106" y="410"/>
      <point x="121" y="392" type="curve"/>
      <point x="130" y="390"/>
      <point x="140" y="389"/>
      <point x="154" y="389" type="curve" smooth="yes"/>
      <point x="180" y="389"/>
      <point x="212" y="407"/>
      <point x="212" y="449" type="curve" smooth="yes"/>
      <point x="212" y="469"/>
      <point x="205" y="489"/>
      <point x="190" y="507" type="curve"/>
    </contour>
    <contour>
      <point x="50" y="390"/>
      <point x="40" y="417"/>
      <point x="40" y="450" type="curve" smooth="yes"/>
      <point x="40" y="514"/>
      <point x="76" y="559"/>
      <point x="156" y="559" type="curve" smooth="yes"/>
      <point x="236" y="559"/>
      <point x="272" y="514"/>
      <point x="272" y="450" type="curve" smooth="yes"/>
      <point x="272" y="385"/>
      <point x="236" y="340"/>
      <point x="156" y="340" type="curve" smooth="yes"/>
      <point x="116" y="340"/>
      <point x="86" y="350"/>
      <point x="68" y="370" type="curve" smooth="yes"/>
    </contour>
  </outline>
</glyph>
<glyph name="plusminus" format="1">
  <advance width="490"/>
  <unicode hex="00B1"/>
  <outline>
	<contour>
	  <point x="289" y="359" type="line"/>
	  <point x="418" y="359" type="line"/>
	  <point x="410" y="293" type="line"/>
	  <point x="289" y="285" type="line"/>
	  <point x="289" y="142" type="line"/>
	  <point x="222" y="150" type="line"/>
	  <point x="214" y="280" type="line"/>
	  <point x="72" y="271" type="line"/>
	  <point x="80" y="359" type="line"/>
	  <point x="209" y="359" type="line"/>
	  <point x="201" y="488" type="line"/>
	  <point x="289" y="480" type="line"/>
	</contour>
	<contour>
	  <point x="410" y="13" type="line"/>
	  <point x="72" y="-9" type="line"/>
	  <point x="80" y="79" type="line"/>
	  <point x="418" y="79" type="line"/>
	</contour>
  </outline>
</glyph>
<glyph name="twosuperior" format="1">
  <advance width="326"/>
  <unicode hex="00B2"/>
  <outline>
    <contour>
      <point x="46" y="531" type="line"/>
      <point x="84" y="553"/>
      <point x="122" y="563"/>
      <point x="163" y="563" type="curve" smooth="yes"/>
      <point x="204" y="563"/>
      <point x="238" y="554"/>
      <point x="265" y="538" type="curve"/>
      <point x="269" y="527"/>
      <point x="271" y="514"/>
      <point x="271" y="501" type="curve" smooth="yes"/>
      <point x="271" y="430"/>
      <point x="218" y="348"/>
      <point x="142" y="296" type="curve"/>
      <point x="142" y="290" type="line"/>
      <point x="219" y="299"/>
      <point x="263" y="303"/>
      <point x="274" y="304" type="curve"/>
      <point x="274" y="240" type="line"/>
      <point x="47" y="240" type="line"/>
      <point x="44" y="278" type="line"/>
      <point x="112" y="310"/>
      <point x="167" y="408"/>
      <point x="167" y="478" type="curve" smooth="yes"/>
      <point x="167" y="499"/>
      <point x="161" y="514"/>
      <point x="149" y="522" type="curve"/>
      <point x="143" y="518"/>
      <point x="131" y="510"/>
      <point x="114" y="498" type="curve" smooth="yes"/>
      <point x="97" y="486"/>
      <point x="84" y="478"/>
      <point x="75" y="472" type="curve"/>
    </contour>
  </outline>
</glyph>
<glyph name="threesuperior" format="1">
  <advance width="323"/>
  <unicode hex="00B3"/>
  <outline>
    <contour>
      <point x="123" y="390" type="line" smooth="yes"/>
      <point x="150" y="418"/>
      <point x="163" y="446"/>
      <point x="163" y="470" type="curve" smooth="yes"/>
      <point x="163" y="495"/>
      <point x="155" y="513"/>
      <point x="140" y="522" type="curve"/>
      <point x="131" y="515"/>
      <point x="109" y="498"/>
      <point x="71" y="472" type="curve"/>
      <point x="42" y="531" type="line"/>
      <point x="55" y="538"/>
      <point x="66" y="544"/>
      <point x="74" y="548" type="curve" smooth="yes"/>
      <point x="95" y="558"/>
      <point x="125" y="563"/>
      <point x="161" y="563" type="curve" smooth="yes"/>
      <point x="197" y="563"/>
      <point x="228" y="554"/>
      <point x="255" y="538" type="curve"/>
      <point x="258" y="529"/>
      <point x="260" y="520"/>
      <point x="260" y="511" type="curve" smooth="yes"/>
      <point x="260" y="483"/>
      <point x="246" y="454"/>
      <point x="220" y="426" type="curve"/>
      <point x="226" y="426"/>
      <point x="233" y="425"/>
      <point x="241" y="422" type="curve"/>
      <point x="268" y="396"/>
      <point x="282" y="362"/>
      <point x="282" y="322" type="curve" smooth="yes"/>
      <point x="282" y="260"/>
      <point x="242" y="229"/>
      <point x="163" y="229" type="curve" smooth="yes"/>
      <point x="120" y="229"/>
      <point x="79" y="240"/>
      <point x="41" y="262" type="curve"/>
      <point x="69" y="311" type="line"/>
      <point x="103" y="289"/>
      <point x="142" y="276"/>
      <point x="185" y="274" type="curve"/>
      <point x="190" y="292"/>
      <point x="192" y="311"/>
      <point x="192" y="333" type="curve" smooth="yes"/>
      <point x="192" y="354"/>
      <point x="190" y="370"/>
      <point x="186" y="382" type="curve"/>
      <point x="167" y="378"/>
      <point x="149" y="370"/>
      <point x="130" y="358" type="curve"/>
      <point x="114" y="380" type="line"/>
    </contour>
  </outline>
</glyph>
<glyph name="acute" format="1">
  <advance width="350"/>
  <unicode hex="00B4"/>
  <outline>
    <contour>
      <point x="104" y="505" type="line"/>
      <point x="246" y="602" type="line"/>
      <point x="294" y="502" type="line"/>
      <point x="131" y="450" type="line"/>
    </contour>
  </outline>
</glyph>
<glyph name="mu" format="1">
  <advance width="552"/>
  <unicode hex="00B5"/>
  <outline>
	<contour>
	  <point x="333" y="318"/>
	  <point x="330" y="351"/>
	  <point x="325" y="384" type="curve"/>
	  <point x="496" y="410" type="line"/>
	  <point x="445" y="-5" type="line"/>
	  <point x="366" y="-12" type="line"/>
	  <point x="350" y="140" type="line"/>
	  <point x="344" y="140" type="line"/>
	  <point x="312" y="54"/>
	  <point x="265" y="3"/>
	  <point x="202" y="-13" type="curve"/>
	  <point x="202" y="-167" type="line"/>
	  <point x="131" y="-183" type="line"/>
	  <point x="78" y="26"/>
	  <point x="52" y="218"/>
	  <point x="52" y="394" type="curve"/>
	  <point x="202" y="406" type="line"/>
	  <point x="202" y="42" type="line"/>
	  <point x="286" y="62"/>
	  <point x="333" y="151"/>
	  <point x="333" y="286" type="curve" smooth="yes"/>
	</contour>
  </outline>
</glyph>
<glyph name="paragraph" format="1">
  <advance width="506"/>
  <unicode hex="00B6"/>
  <outline>
    <contour>
      <point x="167" y="210"/>
      <point x="152" y="212"/>
      <point x="139" y="217" type="curve"/>
      <point x="94" y="246"/>
      <point x="64" y="306"/>
      <point x="64" y="376" type="curve" smooth="yes"/>
      <point x="64" y="506"/>
      <point x="109" y="564"/>
      <point x="241" y="564" type="curve" smooth="yes"/>
      <point x="314" y="564"/>
      <point x="382" y="538"/>
      <point x="420" y="499" type="curve"/>
      <point x="429" y="443"/>
      <point x="434" y="388"/>
      <point x="434" y="334" type="curve" smooth="yes"/>
      <point x="434" y="113"/>
      <point x="349" y="-86"/>
      <point x="259" y="-160" type="curve"/>
      <point x="113" y="-38" type="line"/>
      <point x="218" y="46"/>
      <point x="296" y="171"/>
      <point x="332" y="306" type="curve"/>
      <point x="322" y="312" type="line"/>
      <point x="291" y="246"/>
      <point x="242" y="210"/>
      <point x="185" y="210" type="curve" smooth="yes"/>
    </contour>
  </outline>
</glyph>
<glyph name="periodcentered" format="1">
  <advance width="229"/>
  <unicode hex="00B7"/>
  <outline>
	<contour>
	  <point x="46" y="193"/>
	  <point x="40" y="210"/>
	  <point x="40" y="230" type="curve" smooth="yes"/>
	  <point x="40" y="272"/>
	  <point x="63" y="301"/>
	  <point x="114" y="301" type="curve" smooth="yes"/>
	  <point x="166" y="301"/>
	  <point x="189" y="272"/>
	  <point x="189" y="230" type="curve" smooth="yes"/>
	  <point x="189" y="189"/>
	  <point x="166" y="160"/>
	  <point x="114" y="160" type="curve" smooth="yes"/>
	  <point x="89" y="160"/>
	  <point x="70" y="166"/>
	  <point x="58" y="180" type="curve" smooth="yes"/>
	</contour>
  </outline>
</glyph>
<glyph name="cedilla" format="1">
  <advance width="368"/>
  <unicode hex="00B8"/>
  <outline>
	<contour>
	  <point x="126" y="-73" type="line"/>
	  <point x="158" y="-86"/>
	  <point x="184" y="-94"/>
	  <point x="204" y="-94" type="curve" smooth="yes"/>
	  <point x="223" y="-94"/>
	  <point x="242" y="-90"/>
	  <point x="258" y="-83" type="curve"/>
	  <point x="244" y="-54"/>
	  <point x="215" y="-27"/>
	  <point x="171" y="-5" type="curve"/>
	  <point x="194" y="35" type="line"/>
	  <point x="250" y="4"/>
	  <point x="284" y="-23"/>
	  <point x="298" y="-48" type="curve" smooth="yes"/>
	  <point x="304" y="-60"/>
	  <point x="307" y="-73"/>
	  <point x="307" y="-86" type="curve" smooth="yes"/>
	  <point x="307" y="-142"/>
	  <point x="246" y="-166"/>
	  <point x="188" y="-166" type="curve" smooth="yes"/>
	  <point x="158" y="-166"/>
	  <point x="129" y="-161"/>
	  <point x="99" y="-150" type="curve"/>
	</contour>
  </outline>
</glyph>
<glyph name="onesuperior" format="1">
  <advance width="275"/>
  <unicode hex="00B9"/>
  <outline>
    <contour>
      <point x="187" y="564" type="line"/>
      <point x="211" y="554" type="line"/>
      <point x="178" y="238" type="line"/>
      <point x="116" y="233" type="line"/>
      <point x="102" y="458" type="line"/>
      <point x="98" y="455"/>
      <point x="90" y="449"/>
      <point x="77" y="439" type="curve" smooth="yes"/>
      <point x="63" y="430"/>
      <point x="54" y="422"/>
      <point x="48" y="418" type="curve"/>
      <point x="18" y="478" type="line"/>
    </contour>
  </outline>
</glyph>
<glyph name="ordmasculine" format="1">
  <advance width="330"/>
  <unicode hex="00BA"/>
  <outline>
	<contour>
	  <point x="282" y="341"/>
	  <point x="258" y="309"/>
	  <point x="166" y="309" type="curve" smooth="yes"/>
	  <point x="119" y="309"/>
	  <point x="84" y="320"/>
	  <point x="59" y="342" type="curve"/>
	  <point x="54" y="368"/>
	  <point x="51" y="394"/>
	  <point x="51" y="420" type="curve" smooth="yes"/>
	  <point x="51" y="526"/>
	  <point x="97" y="617"/>
	  <point x="150" y="651" type="curve"/>
	  <point x="153" y="652" type="line"/>
	  <point x="227" y="621"/>
	  <point x="282" y="531"/>
	  <point x="282" y="420" type="curve" smooth="yes"/>
	</contour>
	<contour>
	  <point x="221" y="489"/>
	  <point x="213" y="530"/>
	  <point x="198" y="563" type="curve"/>
	  <point x="140" y="506"/>
	  <point x="105" y="431"/>
	  <point x="104" y="362" type="curve"/>
	  <point x="111" y="360"/>
	  <point x="126" y="359"/>
	  <point x="150" y="359" type="curve" smooth="yes"/>
	  <point x="172" y="359"/>
	  <point x="193" y="362"/>
	  <point x="212" y="370" type="curve"/>
	  <point x="218" y="395"/>
	  <point x="221" y="419"/>
	  <point x="221" y="442" type="curve" smooth="yes"/>
	</contour>
	<contour>
	  <point x="266" y="237" type="line"/>
	  <point x="48" y="215" type="line"/>
	  <point x="56" y="279" type="line"/>
	  <point x="274" y="279" type="line"/>
	</contour>
  </outline>
</glyph>
<glyph name="guillemotright" format="1">
  <advance width="574"/>
  <unicode hex="00BB"/>
  <outline>
	<contour>
	  <point x="518" y="173" type="line"/>
	  <point x="389" y="17" type="line"/>
	  <point x="316" y="53" type="line"/>
	  <point x="400" y="195" type="line"/>
	  <point x="296" y="337" type="line"/>
	  <point x="364" y="373" type="line"/>
	  <point x="513" y="233" type="line"/>
	</contour>
	<contour>
	  <point x="161" y="194" type="line"/>
	  <point x="56" y="337" type="line"/>
	  <point x="124" y="373" type="line"/>
	  <point x="273" y="233" type="line"/>
	  <point x="278" y="173" type="line"/>
	  <point x="149" y="17" type="line"/>
	  <point x="76" y="53" type="line"/>
	</contour>
  </outline>
</glyph>
<glyph name="onequarter" format="1">
  <advance width="636"/>
  <unicode hex="00BC"/>
  <outline>
    <contour>
      <point x="186" y="-54" type="line"/>
      <point x="366" y="591" type="line"/>
      <point x="439" y="574" type="line"/>
      <point x="226" y="-65" type="line"/>
    </contour>
    <contour>
      <point x="203" y="548" type="line"/>
      <point x="227" y="538" type="line"/>
      <point x="194" y="222" type="line"/>
      <point x="132" y="217" type="line"/>
      <point x="118" y="442" type="line"/>
      <point x="114" y="439"/>
      <point x="106" y="433"/>
      <point x="93" y="423" type="curve" smooth="yes"/>
      <point x="79" y="414"/>
      <point x="70" y="406"/>
      <point x="64" y="402" type="curve"/>
      <point x="34" y="462" type="line"/>
    </contour>
    <contour>
      <point x="441" y="96"/>
      <point x="453" y="95"/>
      <point x="470" y="95" type="curve" smooth="yes"/>
      <point x="486" y="95"/>
      <point x="501" y="96"/>
      <point x="514" y="98" type="curve"/>
      <point x="510" y="170" type="line"/>
      <point x="603" y="175" type="line"/>
      <point x="584" y="-2" type="line"/>
      <point x="522" y="-8" type="line"/>
      <point x="518" y="43" type="line"/>
      <point x="454" y="43"/>
      <point x="409" y="53"/>
      <point x="384" y="73" type="curve"/>
      <point x="378" y="98"/>
      <point x="374" y="122"/>
      <point x="374" y="142" type="curve" smooth="yes"/>
      <point x="374" y="226"/>
      <point x="422" y="304"/>
      <point x="477" y="330" type="curve"/>
      <point x="572" y="267" type="line"/>
      <point x="495" y="230"/>
      <point x="433" y="158"/>
      <point x="432" y="97" type="curve"/>
    </contour>
  </outline>
</glyph>
<glyph name="onehalf" format="1">
  <advance width="636"/>
  <unicode hex="00BD"/>
  <outline>
    <contour>
      <point x="165" y="-54" type="line"/>
      <point x="344" y="591" type="line"/>
      <point x="418" y="574" type="line"/>
      <point x="205" y="-65" type="line"/>
    </contour>
    <contour>
      <point x="203" y="548" type="line"/>
      <point x="227" y="538" type="line"/>
      <point x="194" y="222" type="line"/>
      <point x="132" y="217" type="line"/>
      <point x="118" y="442" type="line"/>
      <point x="114" y="439"/>
      <point x="106" y="433"/>
      <point x="93" y="423" type="curve" smooth="yes"/>
      <point x="79" y="414"/>
      <point x="70" y="406"/>
      <point x="64" y="402" type="curve"/>
      <point x="34" y="462" type="line"/>
    </contour>
    <contour>
      <point x="366" y="291" type="line"/>
      <point x="403" y="313"/>
      <point x="442" y="323"/>
      <point x="482" y="323" type="curve" smooth="yes"/>
      <point x="523" y="323"/>
      <point x="557" y="314"/>
      <point x="584" y="298" type="curve"/>
      <point x="588" y="287"/>
      <point x="590" y="274"/>
      <point x="590" y="261" type="curve" smooth="yes"/>
      <point x="590" y="190"/>
      <point x="537" y="108"/>
      <point x="461" y="56" type="curve"/>
      <point x="461" y="50" type="line"/>
      <point x="538" y="59"/>
      <point x="582" y="63"/>
      <point x="593" y="64" type="curve"/>
      <point x="593" y="0" type="line"/>
      <point x="366" y="0" type="line"/>
      <point x="363" y="38" type="line"/>
      <point x="431" y="70"/>
      <point x="486" y="168"/>
      <point x="486" y="238" type="curve" smooth="yes"/>
      <point x="486" y="259"/>
      <point x="480" y="274"/>
      <point x="468" y="282" type="curve"/>
      <point x="462" y="278"/>
      <point x="450" y="270"/>
      <point x="434" y="258" type="curve" smooth="yes"/>
      <point x="416" y="246"/>
      <point x="403" y="238"/>
      <point x="394" y="232" type="curve"/>
    </contour>
  </outline>
</glyph>
<glyph name="threequarters" format="1">
  <advance width="636"/>
  <unicode hex="00BE"/>
  <outline>
	<contour>
	  <point x="209" y="-54" type="line"/>
	  <point x="388" y="591" type="line"/>
	  <point x="462" y="574" type="line"/>
	  <point x="249" y="-65" type="line"/>
	</contour>
	<contour>
	  <point x="107" y="374" type="line" smooth="yes"/>
	  <point x="134" y="402"/>
	  <point x="147" y="430"/>
	  <point x="147" y="454" type="curve" smooth="yes"/>
	  <point x="147" y="479"/>
	  <point x="139" y="497"/>
	  <point x="124" y="506" type="curve"/>
	  <point x="115" y="499"/>
	  <point x="93" y="482"/>
	  <point x="55" y="456" type="curve"/>
	  <point x="26" y="515" type="line"/>
	  <point x="39" y="522"/>
	  <point x="50" y="528"/>
	  <point x="58" y="532" type="curve" smooth="yes"/>
	  <point x="79" y="542"/>
	  <point x="109" y="547"/>
	  <point x="145" y="547" type="curve" smooth="yes"/>
	  <point x="181" y="547"/>
	  <point x="212" y="538"/>
	  <point x="239" y="522" type="curve"/>
	  <point x="242" y="513"/>
	  <point x="244" y="504"/>
	  <point x="244" y="495" type="curve" smooth="yes"/>
	  <point x="244" y="467"/>
	  <point x="230" y="438"/>
	  <point x="204" y="410" type="curve"/>
	  <point x="210" y="410"/>
	  <point x="217" y="409"/>
	  <point x="225" y="406" type="curve"/>
	  <point x="252" y="380"/>
	  <point x="266" y="346"/>
	  <point x="266" y="306" type="curve" smooth="yes"/>
	  <point x="266" y="244"/>
	  <point x="226" y="213"/>
	  <point x="147" y="213" type="curve" smooth="yes"/>
	  <point x="104" y="213"/>
	  <point x="63" y="224"/>
	  <point x="25" y="246" type="curve"/>
	  <point x="53" y="295" type="line"/>
	  <point x="87" y="273"/>
	  <point x="126" y="260"/>
	  <point x="169" y="258" type="curve"/>
	  <point x="174" y="276"/>
	  <point x="176" y="295"/>
	  <point x="176" y="317" type="curve" smooth="yes"/>
	  <point x="176" y="338"/>
	  <point x="174" y="354"/>
	  <point x="170" y="366" type="curve"/>
	  <point x="151" y="362"/>
	  <point x="133" y="354"/>
	  <point x="114" y="342" type="curve"/>
	  <point x="98" y="364" type="line"/>
	</contour>
	<contour>
	  <point x="441" y="96"/>
	  <point x="453" y="95"/>
	  <point x="470" y="95" type="curve" smooth="yes"/>
	  <point x="486" y="95"/>
	  <point x="501" y="96"/>
	  <point x="514" y="98" type="curve"/>
	  <point x="510" y="170" type="line"/>
	  <point x="603" y="175" type="line"/>
	  <point x="584" y="-2" type="line"/>
	  <point x="522" y="-8" type="line"/>
	  <point x="518" y="43" type="line"/>
	  <point x="454" y="43"/>
	  <point x="409" y="53"/>
	  <point x="384" y="73" type="curve"/>
	  <point x="378" y="98"/>
	  <point x="374" y="122"/>
	  <point x="374" y="142" type="curve" smooth="yes"/>
	  <point x="374" y="226"/>
	  <point x="422" y="304"/>
	  <point x="477" y="330" type="curve"/>
	  <point x="572" y="267" type="line"/>
	  <point x="495" y="230"/>
	  <point x="433" y="158"/>
	  <point x="432" y="97" type="curve"/>
	</contour>
  </outline>
</glyph>
<glyph name="questiondown" format="1">
  <advance width="326"/>
  <unicode hex="00BF"/>
  <outline>
    <contour>
      <point x="238" y="373"/>
      <point x="246" y="355"/>
      <point x="246" y="335" type="curve" smooth="yes"/>
      <point x="246" y="294"/>
      <point x="212" y="261"/>
      <point x="171" y="261" type="curve" smooth="yes"/>
      <point x="130" y="261"/>
      <point x="97" y="294"/>
      <point x="97" y="335" type="curve" smooth="yes"/>
      <point x="97" y="376"/>
      <point x="130" y="410"/>
      <point x="171" y="410" type="curve" smooth="yes"/>
      <point x="191" y="410"/>
      <point x="209" y="402"/>
      <point x="224" y="388" type="curve"/>
    </contour>
    <contour>
      <point x="176" y="-22"/>
      <point x="225" y="-14"/>
      <point x="264" y="5" type="curve"/>
      <point x="292" y="-134" type="line"/>
      <point x="259" y="-144"/>
      <point x="224" y="-149"/>
      <point x="187" y="-149" type="curve" smooth="yes"/>
      <point x="114" y="-149"/>
      <point x="55" y="-133"/>
      <point x="27" y="-110" type="curve"/>
      <point x="20" y="-81"/>
      <point x="16" y="-51"/>
      <point x="16" y="-22" type="curve" smooth="yes"/>
      <point x="16" y="84"/>
      <point x="96" y="174"/>
      <point x="175" y="214" type="curve"/>
      <point x="221" y="158" type="line"/>
      <point x="142" y="104"/>
      <point x="119" y="46"/>
      <point x="119" y="-22" type="curve"/>
    </contour>
  </outline>
</glyph>
<glyph name="Agrave" format="1">
  <advance width="511"/>
  <unicode hex="00C0"/>
  <outline>
	<contour>
	  <point x="24" y="0" type="line"/>
	  <point x="174" y="532" type="line"/>
	  <point x="367" y="520" type="line"/>
	  <point x="471" y="0" type="line"/>
	  <point x="399" y="-12" type="line"/>
	  <point x="344" y="121" type="line"/>
	  <point x="131" y="103" type="line"/>
	  <point x="104" y="-12" type="line"/>
	</contour>
	<contour>
	  <point x="209" y="431" type="line"/>
	  <point x="146" y="165" type="line"/>
	  <point x="326" y="163" type="line"/>
	  <point x="215" y="431" type="line"/>
	</contour>
	<contour>
	  <point x="208" y="722" type="line"/>
	  <point x="350" y="625" type="line"/>
	  <point x="323" y="570" type="line"/>
	  <point x="160" y="622" type="line"/>
	</contour>
  </outline>
</glyph>
<glyph name="Aacute" format="1">
  <advance width="511"/>
  <unicode hex="00C1"/>
  <outline>
	<contour>
	  <point x="24" y="0" type="line"/>
	  <point x="174" y="532" type="line"/>
	  <point x="367" y="520" type="line"/>
	  <point x="471" y="0" type="line"/>
	  <point x="399" y="-12" type="line"/>
	  <point x="344" y="121" type="line"/>
	  <point x="131" y="103" type="line"/>
	  <point x="104" y="-12" type="line"/>
	</contour>
	<contour>
	  <point x="209" y="431" type="line"/>
	  <point x="146" y="165" type="line"/>
	  <point x="326" y="163" type="line"/>
	  <point x="215" y="431" type="line"/>
	</contour>
	<contour>
	  <point x="168" y="625" type="line"/>
	  <point x="310" y="722" type="line"/>
	  <point x="358" y="622" type="line"/>
	  <point x="195" y="570" type="line"/>
	</contour>
  </outline>
</glyph>
<glyph name="Acircumflex" format="1">
  <advance width="511"/>
  <unicode hex="00C2"/>
  <outline>
    <contour>
      <point x="24" y="0" type="line"/>
      <point x="174" y="532" type="line"/>
      <point x="367" y="520" type="line"/>
      <point x="471" y="0" type="line"/>
      <point x="399" y="-12" type="line"/>
      <point x="344" y="121" type="line"/>
      <point x="131" y="103" type="line"/>
      <point x="104" y="-12" type="line"/>
    </contour>
    <contour>
      <point x="209" y="431" type="line"/>
      <point x="146" y="165" type="line"/>
      <point x="326" y="163" type="line"/>
      <point x="215" y="431" type="line"/>
    </contour>
    <contour>
      <point x="134" y="611" type="line"/>
      <point x="227" y="721" type="line"/>
      <point x="377" y="647" type="line"/>
      <point x="317" y="575" type="line"/>
      <point x="256" y="625" type="line"/>
      <point x="162" y="573" type="line"/>
    </contour>
  </outline>
</glyph>
<glyph name="Atilde" format="1">
  <advance width="511"/>
  <unicode hex="00C3"/>
  <outline>
    <contour>
      <point x="24" y="0" type="line"/>
      <point x="174" y="532" type="line"/>
      <point x="367" y="520" type="line"/>
      <point x="471" y="0" type="line"/>
      <point x="399" y="-12" type="line"/>
      <point x="344" y="121" type="line"/>
      <point x="131" y="103" type="line"/>
      <point x="104" y="-12" type="line"/>
    </contour>
    <contour>
      <point x="209" y="431" type="line"/>
      <point x="146" y="165" type="line"/>
      <point x="326" y="163" type="line"/>
      <point x="215" y="431" type="line"/>
    </contour>
    <contour>
      <point x="318" y="678"/>
      <point x="330" y="690"/>
      <point x="341" y="714" type="curve"/>
      <point x="389" y="701" type="line"/>
      <point x="379" y="626"/>
      <point x="357" y="588"/>
      <point x="321" y="588" type="curve" smooth="yes"/>
      <point x="312" y="588"/>
      <point x="298" y="591"/>
      <point x="280" y="598" type="curve" smooth="yes"/>
      <point x="261" y="606"/>
      <point x="246" y="609"/>
      <point x="237" y="609" type="curve" smooth="yes"/>
      <point x="225" y="609"/>
      <point x="213" y="597"/>
      <point x="202" y="573" type="curve"/>
      <point x="154" y="586" type="line"/>
      <point x="164" y="661"/>
      <point x="186" y="698"/>
      <point x="222" y="698" type="curve" smooth="yes"/>
      <point x="231" y="698"/>
      <point x="245" y="695"/>
      <point x="264" y="688" type="curve" smooth="yes"/>
      <point x="282" y="681"/>
      <point x="297" y="678"/>
      <point x="306" y="678" type="curve" smooth="yes"/>
    </contour>
  </outline>
</glyph>
<glyph name="Adieresis" format="1">
  <advance width="511"/>
  <unicode hex="00C4"/>
  <outline>
    <contour>
      <point x="24" y="0" type="line"/>
      <point x="174" y="532" type="line"/>
      <point x="367" y="520" type="line"/>
      <point x="471" y="0" type="line"/>
      <point x="399" y="-12" type="line"/>
      <point x="344" y="121" type="line"/>
      <point x="131" y="103" type="line"/>
      <point x="104" y="-12" type="line"/>
    </contour>
    <contour>
      <point x="209" y="431" type="line"/>
      <point x="146" y="165" type="line"/>
      <point x="326" y="163" type="line"/>
      <point x="215" y="431" type="line"/>
    </contour>
    <contour>
      <point x="117" y="612"/>
      <point x="110" y="627"/>
      <point x="110" y="646" type="curve" smooth="yes"/>
      <point x="110" y="682"/>
      <point x="138" y="713"/>
      <point x="171" y="713" type="curve" smooth="yes"/>
      <point x="204" y="713"/>
      <point x="232" y="682"/>
      <point x="232" y="646" type="curve" smooth="yes"/>
      <point x="232" y="610"/>
      <point x="204" y="578"/>
      <point x="171" y="578" type="curve" smooth="yes"/>
      <point x="154" y="578"/>
      <point x="141" y="585"/>
      <point x="129" y="598" type="curve" smooth="yes"/>
    </contour>
    <contour>
      <point x="285" y="612"/>
      <point x="278" y="627"/>
      <point x="278" y="646" type="curve" smooth="yes"/>
      <point x="278" y="682"/>
      <point x="306" y="713"/>
      <point x="339" y="713" type="curve" smooth="yes"/>
      <point x="372" y="713"/>
      <point x="400" y="682"/>
      <point x="400" y="646" type="curve" smooth="yes"/>
      <point x="400" y="610"/>
      <point x="372" y="578"/>
      <point x="339" y="578" type="curve" smooth="yes"/>
      <point x="322" y="578"/>
      <point x="309" y="585"/>
      <point x="297" y="598" type="curve" smooth="yes"/>
    </contour>
  </outline>
</glyph>
<glyph name="Aring" format="1">
  <advance width="511"/>
  <unicode hex="00C5"/>
  <outline>
	<contour>
	  <point x="24" y="0" type="line"/>
	  <point x="174" y="532" type="line"/>
	  <point x="367" y="520" type="line"/>
	  <point x="471" y="0" type="line"/>
	  <point x="399" y="-12" type="line"/>
	  <point x="344" y="121" type="line"/>
	  <point x="131" y="103" type="line"/>
	  <point x="104" y="-12" type="line"/>
	</contour>
	<contour>
	  <point x="209" y="431" type="line"/>
	  <point x="146" y="165" type="line"/>
	  <point x="326" y="163" type="line"/>
	  <point x="215" y="431" type="line"/>
	</contour>
	<contour>
	  <point x="342" y="698"/>
	  <point x="350" y="674"/>
	  <point x="350" y="645" type="curve" smooth="yes"/>
	  <point x="350" y="587"/>
	  <point x="313" y="550"/>
	  <point x="258" y="550" type="curve" smooth="yes"/>
	  <point x="230" y="550"/>
	  <point x="204" y="554"/>
	  <point x="179" y="564" type="curve"/>
	  <point x="166" y="584"/>
	  <point x="158" y="608"/>
	  <point x="158" y="637" type="curve" smooth="yes"/>
	  <point x="158" y="694"/>
	  <point x="195" y="732"/>
	  <point x="250" y="732" type="curve" smooth="yes"/>
	  <point x="278" y="732"/>
	  <point x="304" y="727"/>
	  <point x="329" y="718" type="curve"/>
	</contour>
	<contour>
	  <point x="289" y="665"/>
	  <point x="287" y="677"/>
	  <point x="283" y="687" type="curve"/>
	  <point x="278" y="691"/>
	  <point x="268" y="694"/>
	  <point x="254" y="694" type="curve"/>
	  <point x="230" y="682"/>
	  <point x="218" y="661"/>
	  <point x="218" y="630" type="curve" smooth="yes"/>
	  <point x="218" y="617"/>
	  <point x="220" y="605"/>
	  <point x="224" y="594" type="curve"/>
	  <point x="230" y="590"/>
	  <point x="239" y="588"/>
	  <point x="254" y="588" type="curve"/>
	  <point x="277" y="599"/>
	  <point x="289" y="620"/>
	  <point x="289" y="651" type="curve" smooth="yes"/>
	</contour>
  </outline>
</glyph>
<glyph name="Ccedilla" format="1">
  <advance width="402"/>
  <unicode hex="00C7"/>
  <outline>
    <contour>
      <point x="186" y="58"/>
      <point x="160" y="60"/>
      <point x="137" y="64" type="curve"/>
      <point x="137" y="211"/>
      <point x="230" y="369"/>
      <point x="377" y="462" type="curve"/>
      <point x="222" y="560" type="line"/>
      <point x="135" y="502"/>
      <point x="56" y="344"/>
      <point x="56" y="166" type="curve" smooth="yes"/>
      <point x="56" y="122"/>
      <point x="61" y="78"/>
      <point x="70" y="33" type="curve"/>
      <point x="107" y="2"/>
      <point x="180" y="-19"/>
      <point x="270" y="-19" type="curve" smooth="yes"/>
      <point x="314" y="-19"/>
      <point x="358" y="-13"/>
      <point x="402" y="1" type="curve"/>
      <point x="374" y="87" type="line"/>
      <point x="323" y="68"/>
      <point x="270" y="58"/>
      <point x="214" y="58" type="curve" smooth="yes"/>
    </contour>
    <contour>
      <point x="124" y="-73" type="line"/>
      <point x="156" y="-86"/>
      <point x="182" y="-94"/>
      <point x="202" y="-94" type="curve" smooth="yes"/>
      <point x="221" y="-94"/>
      <point x="239" y="-90"/>
      <point x="256" y="-83" type="curve"/>
      <point x="242" y="-54"/>
      <point x="213" y="-27"/>
      <point x="169" y="-5" type="curve"/>
      <point x="191" y="35" type="line"/>
      <point x="247" y="4"/>
      <point x="282" y="-23"/>
      <point x="295" y="-48" type="curve" smooth="yes"/>
      <point x="302" y="-60"/>
      <point x="305" y="-73"/>
      <point x="305" y="-86" type="curve" smooth="yes"/>
      <point x="305" y="-142"/>
      <point x="243" y="-166"/>
      <point x="185" y="-166" type="curve" smooth="yes"/>
      <point x="155" y="-166"/>
      <point x="126" y="-161"/>
      <point x="97" y="-150" type="curve"/>
    </contour>
  </outline>
</glyph>
<glyph name="Egrave" format="1">
  <advance width="484"/>
  <unicode hex="00C8"/>
  <outline>
	<contour>
	  <point x="425" y="0" type="line"/>
	  <point x="112" y="-7" type="line"/>
	  <point x="74" y="520" type="line"/>
	  <point x="427" y="531" type="line"/>
	  <point x="425" y="478" type="line"/>
	  <point x="256" y="458" type="line"/>
	  <point x="235" y="292" type="line"/>
	  <point x="406" y="294" type="line"/>
	  <point x="410" y="222" type="line"/>
	  <point x="229" y="235" type="line"/>
	  <point x="207" y="57" type="line"/>
	  <point x="428" y="82" type="line"/>
	</contour>
	<contour>
	  <point x="194" y="722" type="line"/>
	  <point x="337" y="625" type="line"/>
	  <point x="310" y="570" type="line"/>
	  <point x="146" y="622" type="line"/>
	</contour>
  </outline>
</glyph>
<glyph name="Eacute" format="1">
  <advance width="484"/>
  <unicode hex="00C9"/>
  <outline>
    <contour>
      <point x="425" y="0" type="line"/>
      <point x="112" y="-7" type="line"/>
      <point x="74" y="520" type="line"/>
      <point x="427" y="531" type="line"/>
      <point x="425" y="478" type="line"/>
      <point x="256" y="458" type="line"/>
      <point x="235" y="292" type="line"/>
      <point x="406" y="294" type="line"/>
      <point x="410" y="222" type="line"/>
      <point x="229" y="235" type="line"/>
      <point x="207" y="57" type="line"/>
      <point x="428" y="82" type="line"/>
    </contour>
    <contour>
      <point x="154" y="625" type="line"/>
      <point x="297" y="722" type="line"/>
      <point x="345" y="622" type="line"/>
      <point x="182" y="570" type="line"/>
    </contour>
  </outline>
</glyph>
<glyph name="Ecircumflex" format="1">
  <advance width="484"/>
  <unicode hex="00CA"/>
  <outline>
	<contour>
	  <point x="425" y="0" type="line"/>
	  <point x="112" y="-7" type="line"/>
	  <point x="74" y="520" type="line"/>
	  <point x="427" y="531" type="line"/>
	  <point x="425" y="478" type="line"/>
	  <point x="256" y="458" type="line"/>
	  <point x="235" y="292" type="line"/>
	  <point x="406" y="294" type="line"/>
	  <point x="410" y="222" type="line"/>
	  <point x="229" y="235" type="line"/>
	  <point x="207" y="57" type="line"/>
	  <point x="428" y="82" type="line"/>
	</contour>
	<contour>
	  <point x="121" y="611" type="line"/>
	  <point x="214" y="721" type="line"/>
	  <point x="363" y="647" type="line"/>
	  <point x="303" y="575" type="line"/>
	  <point x="242" y="625" type="line"/>
	  <point x="148" y="573" type="line"/>
	</contour>
  </outline>
</glyph>
<glyph name="Edieresis" format="1">
  <advance width="484"/>
  <unicode hex="00CB"/>
  <outline>
    <contour>
      <point x="425" y="0" type="line"/>
      <point x="112" y="-7" type="line"/>
      <point x="74" y="520" type="line"/>
      <point x="427" y="531" type="line"/>
      <point x="425" y="478" type="line"/>
      <point x="256" y="458" type="line"/>
      <point x="235" y="292" type="line"/>
      <point x="406" y="294" type="line"/>
      <point x="410" y="222" type="line"/>
      <point x="229" y="235" type="line"/>
      <point x="207" y="57" type="line"/>
      <point x="428" y="82" type="line"/>
    </contour>
    <contour>
      <point x="103" y="612"/>
      <point x="97" y="627"/>
      <point x="97" y="646" type="curve" smooth="yes"/>
      <point x="97" y="682"/>
      <point x="125" y="713"/>
      <point x="158" y="713" type="curve" smooth="yes"/>
      <point x="190" y="713"/>
      <point x="218" y="682"/>
      <point x="218" y="646" type="curve" smooth="yes"/>
      <point x="218" y="610"/>
      <point x="190" y="578"/>
      <point x="158" y="578" type="curve" smooth="yes"/>
      <point x="141" y="578"/>
      <point x="127" y="585"/>
      <point x="115" y="598" type="curve" smooth="yes"/>
    </contour>
    <contour>
      <point x="271" y="612"/>
      <point x="265" y="627"/>
      <point x="265" y="646" type="curve" smooth="yes"/>
      <point x="265" y="682"/>
      <point x="293" y="713"/>
      <point x="326" y="713" type="curve" smooth="yes"/>
      <point x="358" y="713"/>
      <point x="386" y="682"/>
      <point x="386" y="646" type="curve" smooth="yes"/>
      <point x="386" y="610"/>
      <point x="358" y="578"/>
      <point x="326" y="578" type="curve" smooth="yes"/>
      <point x="309" y="578"/>
      <point x="295" y="585"/>
      <point x="283" y="598" type="curve" smooth="yes"/>
    </contour>
  </outline>
</glyph>
<glyph name="Igrave" format="1">
  <advance width="345"/>
  <unicode hex="00CC"/>
  <outline>
	<contour>
	  <point x="124" y="-11" type="line"/>
	  <point x="78" y="520" type="line"/>
	  <point x="269" y="532" type="line"/>
	  <point x="212" y="-3" type="line"/>
	</contour>
	<contour>
	  <point x="126" y="722" type="line"/>
	  <point x="268" y="625" type="line"/>
	  <point x="241" y="570" type="line"/>
	  <point x="78" y="622" type="line"/>
	</contour>
  </outline>
</glyph>
<glyph name="Iacute" format="1">
  <advance width="345"/>
  <unicode hex="00CD"/>
  <outline>
	<contour>
	  <point x="124" y="-11" type="line"/>
	  <point x="78" y="520" type="line"/>
	  <point x="269" y="532" type="line"/>
	  <point x="212" y="-3" type="line"/>
	</contour>
	<contour>
	  <point x="86" y="625" type="line"/>
	  <point x="228" y="722" type="line"/>
	  <point x="276" y="622" type="line"/>
	  <point x="113" y="570" type="line"/>
	</contour>
  </outline>
</glyph>
<glyph name="Icircumflex" format="1">
  <advance width="345"/>
  <unicode hex="00CE"/>
  <outline>
	<contour>
	  <point x="124" y="-11" type="line"/>
	  <point x="78" y="520" type="line"/>
	  <point x="269" y="532" type="line"/>
	  <point x="212" y="-3" type="line"/>
	</contour>
	<contour>
	  <point x="51" y="611" type="line"/>
	  <point x="144" y="721" type="line"/>
	  <point x="294" y="647" type="line"/>
	  <point x="234" y="575" type="line"/>
	  <point x="173" y="625" type="line"/>
	  <point x="78" y="573" type="line"/>
	</contour>
  </outline>
</glyph>
<glyph name="Idieresis" format="1">
  <advance width="345"/>
  <unicode hex="00CF"/>
  <outline>
	<contour>
	  <point x="124" y="-11" type="line"/>
	  <point x="78" y="520" type="line"/>
	  <point x="269" y="532" type="line"/>
	  <point x="212" y="-3" type="line"/>
	</contour>
	<contour>
	  <point x="34" y="612"/>
	  <point x="28" y="627"/>
	  <point x="28" y="646" type="curve" smooth="yes"/>
	  <point x="28" y="682"/>
	  <point x="56" y="713"/>
	  <point x="89" y="713" type="curve" smooth="yes"/>
	  <point x="122" y="713"/>
	  <point x="150" y="682"/>
	  <point x="150" y="646" type="curve" smooth="yes"/>
	  <point x="150" y="610"/>
	  <point x="122" y="578"/>
	  <point x="89" y="578" type="curve" smooth="yes"/>
	  <point x="72" y="578"/>
	  <point x="58" y="585"/>
	  <point x="46" y="598" type="curve" smooth="yes"/>
	</contour>
	<contour>
	  <point x="202" y="612"/>
	  <point x="196" y="627"/>
	  <point x="196" y="646" type="curve" smooth="yes"/>
	  <point x="196" y="682"/>
	  <point x="224" y="713"/>
	  <point x="257" y="713" type="curve" smooth="yes"/>
	  <point x="290" y="713"/>
	  <point x="318" y="682"/>
	  <point x="318" y="646" type="curve" smooth="yes"/>
	  <point x="318" y="610"/>
	  <point x="290" y="578"/>
	  <point x="257" y="578" type="curve" smooth="yes"/>
	  <point x="240" y="578"/>
	  <point x="226" y="585"/>
	  <point x="214" y="598" type="curve" smooth="yes"/>
	</contour>
  </outline>
</glyph>
<glyph name="Ntilde" format="1">
  <advance width="554"/>
  <unicode hex="00D1"/>
  <outline>
	<contour>
	  <point x="514" y="528" type="line"/>
	  <point x="479" y="0" type="line"/>
	  <point x="407" y="-12" type="line"/>
	  <point x="148" y="417" type="line"/>
	  <point x="142" y="417" type="line"/>
	  <point x="144" y="0" type="line"/>
	  <point x="64" y="-4" type="line"/>
	  <point x="86" y="520" type="line"/>
	  <point x="279" y="532" type="line"/>
	  <point x="419" y="133" type="line"/>
	  <point x="426" y="133" type="line"/>
	  <point x="434" y="524" type="line"/>
	</contour>
	<contour>
	  <point x="355" y="678"/>
	  <point x="367" y="690"/>
	  <point x="378" y="714" type="curve"/>
	  <point x="426" y="701" type="line"/>
	  <point x="416" y="626"/>
	  <point x="394" y="588"/>
	  <point x="358" y="588" type="curve" smooth="yes"/>
	  <point x="349" y="588"/>
	  <point x="335" y="591"/>
	  <point x="317" y="598" type="curve" smooth="yes"/>
	  <point x="298" y="606"/>
	  <point x="283" y="609"/>
	  <point x="274" y="609" type="curve" smooth="yes"/>
	  <point x="262" y="609"/>
	  <point x="250" y="597"/>
	  <point x="239" y="573" type="curve"/>
	  <point x="191" y="586" type="line"/>
	  <point x="201" y="661"/>
	  <point x="223" y="698"/>
	  <point x="259" y="698" type="curve" smooth="yes"/>
	  <point x="268" y="698"/>
	  <point x="282" y="695"/>
	  <point x="301" y="688" type="curve" smooth="yes"/>
	  <point x="319" y="681"/>
	  <point x="334" y="678"/>
	  <point x="343" y="678" type="curve" smooth="yes"/>
	</contour>
  </outline>
</glyph>
<glyph name="Otilde" format="1">
  <advance width="471"/>
  <unicode hex="00D5"/>
  <outline>
	<contour>
	  <point x="431" y="101"/>
	  <point x="422" y="60"/>
	  <point x="394" y="27" type="curve" smooth="yes"/>
	  <point x="368" y="-4"/>
	  <point x="316" y="-19"/>
	  <point x="240" y="-19" type="curve" smooth="yes"/>
	  <point x="163" y="-19"/>
	  <point x="104" y="-2"/>
	  <point x="62" y="33" type="curve"/>
	  <point x="53" y="78"/>
	  <point x="48" y="122"/>
	  <point x="48" y="166" type="curve" smooth="yes"/>
	  <point x="48" y="342"/>
	  <point x="126" y="494"/>
	  <point x="214" y="552" type="curve"/>
	  <point x="339" y="501"/>
	  <point x="431" y="349"/>
	  <point x="431" y="166" type="curve" smooth="yes"/>
	</contour>
	<contour>
	  <point x="334" y="284"/>
	  <point x="321" y="354"/>
	  <point x="294" y="413" type="curve"/>
	  <point x="190" y="318"/>
	  <point x="129" y="185"/>
	  <point x="129" y="64" type="curve"/>
	  <point x="147" y="60"/>
	  <point x="169" y="58"/>
	  <point x="194" y="58" type="curve" smooth="yes"/>
	  <point x="242" y="58"/>
	  <point x="285" y="65"/>
	  <point x="320" y="77" type="curve"/>
	  <point x="330" y="118"/>
	  <point x="334" y="160"/>
	  <point x="334" y="202" type="curve" smooth="yes"/>
	</contour>
	<contour>
	  <point x="290" y="678"/>
	  <point x="302" y="690"/>
	  <point x="313" y="714" type="curve"/>
	  <point x="361" y="701" type="line"/>
	  <point x="351" y="626"/>
	  <point x="329" y="588"/>
	  <point x="293" y="588" type="curve" smooth="yes"/>
	  <point x="284" y="588"/>
	  <point x="270" y="591"/>
	  <point x="252" y="598" type="curve" smooth="yes"/>
	  <point x="233" y="606"/>
	  <point x="218" y="609"/>
	  <point x="209" y="609" type="curve" smooth="yes"/>
	  <point x="197" y="609"/>
	  <point x="185" y="597"/>
	  <point x="174" y="573" type="curve"/>
	  <point x="126" y="586" type="line"/>
	  <point x="136" y="661"/>
	  <point x="158" y="698"/>
	  <point x="194" y="698" type="curve" smooth="yes"/>
	  <point x="203" y="698"/>
	  <point x="217" y="695"/>
	  <point x="236" y="688" type="curve" smooth="yes"/>
	  <point x="254" y="681"/>
	  <point x="269" y="678"/>
	  <point x="278" y="678" type="curve" smooth="yes"/>
	</contour>
  </outline>
</glyph>
<glyph name="multiply" format="1">
  <advance width="490"/>
  <unicode hex="00D7"/>
  <outline>
	<contour>
	  <point x="368" y="96" type="line"/>
	  <point x="247" y="204" type="line"/>
	  <point x="131" y="75" type="line"/>
	  <point x="74" y="143" type="line"/>
	  <point x="188" y="257" type="line"/>
	  <point x="69" y="365" type="line"/>
	  <point x="137" y="422" type="line"/>
	  <point x="245" y="314" type="line"/>
	  <point x="358" y="427" type="line"/>
	  <point x="400" y="374" type="line"/>
	  <point x="298" y="261" type="line"/>
	  <point x="421" y="138" type="line"/>
	</contour>
  </outline>
</glyph>
<glyph name="Oslash" format="1">
  <advance width="471"/>
  <unicode hex="00D8"/>
  <outline>
    <contour>
      <point x="377" y="575" type="line"/>
      <point x="194" y="-101" type="line"/>
      <point x="141" y="-89" type="line"/>
      <point x="324" y="587" type="line"/>
    </contour>
    <contour>
      <point x="431" y="349"/>
      <point x="339" y="501"/>
      <point x="214" y="552" type="curve"/>
      <point x="126" y="494"/>
      <point x="48" y="342"/>
      <point x="48" y="166" type="curve" smooth="yes"/>
      <point x="48" y="122"/>
      <point x="53" y="78"/>
      <point x="62" y="33" type="curve"/>
      <point x="104" y="-2"/>
      <point x="163" y="-19"/>
      <point x="240" y="-19" type="curve" smooth="yes"/>
      <point x="316" y="-19"/>
      <point x="368" y="-4"/>
      <point x="394" y="27" type="curve" smooth="yes"/>
      <point x="422" y="60"/>
      <point x="431" y="101"/>
      <point x="431" y="166" type="curve" smooth="yes"/>
    </contour>
    <contour>
      <point x="334" y="160"/>
      <point x="330" y="118"/>
      <point x="320" y="77" type="curve"/>
      <point x="285" y="65"/>
      <point x="242" y="58"/>
      <point x="194" y="58" type="curve" smooth="yes"/>
      <point x="169" y="58"/>
      <point x="147" y="60"/>
      <point x="129" y="64" type="curve"/>
      <point x="129" y="185"/>
      <point x="190" y="318"/>
      <point x="294" y="413" type="curve"/>
      <point x="321" y="354"/>
      <point x="334" y="284"/>
      <point x="334" y="202" type="curve" smooth="yes"/>
    </contour>
  </outline>
</glyph>
<glyph name="Ugrave" format="1">
  <advance width="557"/>
  <unicode hex="00D9"/>
  <outline>
	<contour>
	  <point x="178" y="-19"/>
	  <point x="112" y="37"/>
	  <point x="98" y="166" type="curve" smooth="yes"/>
	  <point x="60" y="520" type="line"/>
	  <point x="250" y="532" type="line"/>
	  <point x="229" y="275"/>
	  <point x="218" y="142"/>
	  <point x="218" y="134" type="curve" smooth="yes"/>
	  <point x="218" y="74"/>
	  <point x="246" y="43"/>
	  <point x="305" y="43" type="curve" smooth="yes"/>
	  <point x="358" y="43"/>
	  <point x="401" y="72"/>
	  <point x="402" y="153" type="curve" smooth="yes"/>
	  <point x="409" y="524" type="line"/>
	  <point x="489" y="528" type="line"/>
	  <point x="465" y="152" type="line" smooth="yes"/>
	  <point x="458" y="38"/>
	  <point x="394" y="-19"/>
	  <point x="274" y="-19" type="curve" smooth="yes"/>
	</contour>
	<contour>
	  <point x="256" y="722" type="line"/>
	  <point x="398" y="625" type="line"/>
	  <point x="371" y="570" type="line"/>
	  <point x="208" y="622" type="line"/>
	</contour>
  </outline>
</glyph>
<glyph name="Udieresis" format="1">
  <advance width="557"/>
  <unicode hex="00DC"/>
  <outline>
    <contour>
      <point x="178" y="-19"/>
      <point x="112" y="37"/>
      <point x="98" y="166" type="curve" smooth="yes"/>
      <point x="60" y="520" type="line"/>
      <point x="250" y="532" type="line"/>
      <point x="229" y="275"/>
      <point x="218" y="142"/>
      <point x="218" y="134" type="curve" smooth="yes"/>
      <point x="218" y="74"/>
      <point x="246" y="43"/>
      <point x="305" y="43" type="curve" smooth="yes"/>
      <point x="358" y="43"/>
      <point x="401" y="72"/>
      <point x="402" y="153" type="curve" smooth="yes"/>
      <point x="409" y="524" type="line"/>
      <point x="489" y="528" type="line"/>
      <point x="465" y="152" type="line" smooth="yes"/>
      <point x="458" y="38"/>
      <point x="394" y="-19"/>
      <point x="274" y="-19" type="curve" smooth="yes"/>
    </contour>
    <contour>
      <point x="168" y="612"/>
      <point x="162" y="627"/>
      <point x="162" y="646" type="curve" smooth="yes"/>
      <point x="162" y="682"/>
      <point x="190" y="713"/>
      <point x="222" y="713" type="curve" smooth="yes"/>
      <point x="255" y="713"/>
      <point x="283" y="682"/>
      <point x="283" y="646" type="curve" smooth="yes"/>
      <point x="283" y="610"/>
      <point x="255" y="578"/>
      <point x="222" y="578" type="curve" smooth="yes"/>
      <point x="206" y="578"/>
      <point x="192" y="585"/>
      <point x="180" y="598" type="curve" smooth="yes"/>
    </contour>
    <contour>
      <point x="336" y="612"/>
      <point x="330" y="627"/>
      <point x="330" y="646" type="curve" smooth="yes"/>
      <point x="330" y="682"/>
      <point x="358" y="713"/>
      <point x="390" y="713" type="curve" smooth="yes"/>
      <point x="423" y="713"/>
      <point x="451" y="682"/>
      <point x="451" y="646" type="curve" smooth="yes"/>
      <point x="451" y="610"/>
      <point x="423" y="578"/>
      <point x="390" y="578" type="curve" smooth="yes"/>
      <point x="374" y="578"/>
      <point x="360" y="585"/>
      <point x="348" y="598" type="curve" smooth="yes"/>
    </contour>
  </outline>
</glyph>
<glyph name="Yacute" format="1">
  <advance width="446"/>
  <unicode hex="00DD"/>
  <outline>
	<contour>
	  <point x="183" y="532" type="line"/>
	  <point x="247" y="242" type="line"/>
	  <point x="254" y="242" type="line"/>
	  <point x="370" y="530" type="line"/>
	  <point x="434" y="512" type="line"/>
	  <point x="297" y="188" type="line"/>
	  <point x="266" y="-3" type="line"/>
	  <point x="186" y="-11" type="line"/>
	  <point x="162" y="167" type="line"/>
	  <point x="3" y="510" type="line"/>
	</contour>
	<contour>
	  <point x="152" y="625" type="line"/>
	  <point x="294" y="722" type="line"/>
	  <point x="342" y="622" type="line"/>
	  <point x="179" y="570" type="line"/>
	</contour>
  </outline>
</glyph>
<glyph name="Thorn" format="1">
  <advance width="503"/>
  <unicode hex="00DE"/>
  <outline>
    <contour>
      <point x="379" y="450"/>
      <point x="430" y="435"/>
      <point x="481" y="406" type="curve"/>
      <point x="490" y="377"/>
      <point x="495" y="350"/>
      <point x="495" y="323" type="curve" smooth="yes"/>
      <point x="495" y="198"/>
      <point x="378" y="113"/>
      <point x="212" y="78" type="curve"/>
      <point x="204" y="-3" type="line"/>
      <point x="124" y="-11" type="line"/>
      <point x="78" y="504" type="line"/>
      <point x="261" y="532" type="line"/>
      <point x="251" y="441" type="line"/>
      <point x="282" y="446"/>
      <point x="308" y="450"/>
      <point x="330" y="450" type="curve" smooth="yes"/>
    </contour>
    <contour>
      <point x="341" y="341"/>
      <point x="324" y="372"/>
      <point x="290" y="392" type="curve"/>
      <point x="277" y="392"/>
      <point x="262" y="389"/>
      <point x="245" y="383" type="curve"/>
      <point x="218" y="130" type="line"/>
      <point x="294" y="166"/>
      <point x="341" y="236"/>
      <point x="341" y="300" type="curve" smooth="yes"/>
    </contour>
  </outline>
</glyph>
<glyph name="germandbls" format="1">
  <advance width="593"/>
  <unicode hex="00DF"/>
  <outline>
    <contour>
      <point x="419" y="292" type="line"/>
      <point x="432" y="294"/>
      <point x="443" y="296"/>
      <point x="452" y="296" type="curve" smooth="yes"/>
      <point x="461" y="296"/>
      <point x="476" y="294"/>
      <point x="497" y="291" type="curve"/>
      <point x="539" y="250"/>
      <point x="561" y="207"/>
      <point x="561" y="131" type="curve" smooth="yes"/>
      <point x="561" y="30"/>
      <point x="499" y="-19"/>
      <point x="378" y="-19" type="curve" smooth="yes"/>
      <point x="316" y="-19"/>
      <point x="258" y="-2"/>
      <point x="204" y="30" type="curve"/>
      <point x="200" y="-5" type="line"/>
      <point x="121" y="-12" type="line"/>
      <point x="90" y="295" type="line"/>
      <point x="16" y="285" type="line"/>
      <point x="16" y="367" type="line"/>
      <point x="83" y="370" type="line"/>
      <point x="83" y="445"/>
      <point x="112" y="502"/>
      <point x="160" y="533" type="curve" smooth="yes"/>
      <point x="207" y="564"/>
      <point x="263" y="580"/>
      <point x="328" y="580" type="curve" smooth="yes"/>
      <point x="408" y="580"/>
      <point x="469" y="567"/>
      <point x="510" y="542" type="curve"/>
      <point x="514" y="527"/>
      <point x="517" y="514"/>
      <point x="517" y="500" type="curve" smooth="yes"/>
      <point x="517" y="436"/>
      <point x="484" y="349"/>
      <point x="418" y="297" type="curve"/>
    </contour>
    <contour>
      <point x="388" y="479"/>
      <point x="368" y="514"/>
      <point x="327" y="528" type="curve"/>
      <point x="270" y="518"/>
      <point x="246" y="470"/>
      <point x="239" y="394" type="curve" smooth="yes"/>
      <point x="212" y="100" type="line"/>
      <point x="270" y="64"/>
      <point x="335" y="44"/>
      <point x="410" y="42" type="curve"/>
      <point x="420" y="66"/>
      <point x="426" y="101"/>
      <point x="426" y="146" type="curve" smooth="yes"/>
      <point x="426" y="190"/>
      <point x="419" y="226"/>
      <point x="407" y="252" type="curve"/>
      <point x="378" y="245"/>
      <point x="346" y="230"/>
      <point x="311" y="209" type="curve"/>
      <point x="294" y="230" type="line"/>
      <point x="359" y="274"/>
      <point x="388" y="351"/>
      <point x="388" y="424" type="curve" smooth="yes"/>
    </contour>
  </outline>
</glyph>
<glyph name="atilde" format="1">
  <advance width="464"/>
  <unicode hex="00E3"/>
  <outline>
	<contour>
	  <point x="99" y="-18"/>
	  <point x="92" y="-18"/>
	  <point x="88" y="-18" type="curve"/>
	  <point x="52" y="7"/>
	  <point x="28" y="61"/>
	  <point x="28" y="113" type="curve" smooth="yes"/>
	  <point x="28" y="181"/>
	  <point x="71" y="210"/>
	  <point x="210" y="210" type="curve" smooth="yes"/>
	  <point x="235" y="210"/>
	  <point x="262" y="209"/>
	  <point x="290" y="205" type="curve"/>
	  <point x="288" y="222" type="line" smooth="yes"/>
	  <point x="284" y="265"/>
	  <point x="245" y="292"/>
	  <point x="188" y="292" type="curve" smooth="yes"/>
	  <point x="160" y="292"/>
	  <point x="131" y="283"/>
	  <point x="103" y="266" type="curve"/>
	  <point x="68" y="382" type="line"/>
	  <point x="114" y="400"/>
	  <point x="166" y="410"/>
	  <point x="225" y="410" type="curve" smooth="yes"/>
	  <point x="342" y="410"/>
	  <point x="415" y="358"/>
	  <point x="415" y="246" type="curve" smooth="yes"/>
	  <point x="415" y="234"/>
	  <point x="414" y="223"/>
	  <point x="414" y="216" type="curve" smooth="yes"/>
	  <point x="391" y="-5" type="line"/>
	  <point x="312" y="-12" type="line"/>
	  <point x="300" y="104" type="line"/>
	  <point x="294" y="104" type="line"/>
	  <point x="258" y="27"/>
	  <point x="191" y="-18"/>
	  <point x="108" y="-18" type="curve" smooth="yes"/>
	</contour>
	<contour>
	  <point x="250" y="172" type="line" smooth="yes"/>
	  <point x="215" y="172"/>
	  <point x="186" y="170"/>
	  <point x="164" y="166" type="curve"/>
	  <point x="157" y="151"/>
	  <point x="153" y="138"/>
	  <point x="153" y="126" type="curve" smooth="yes"/>
	  <point x="153" y="103"/>
	  <point x="161" y="78"/>
	  <point x="168" y="71" type="curve"/>
	  <point x="232" y="82"/>
	  <point x="274" y="114"/>
	  <point x="293" y="171" type="curve"/>
	</contour>
	<contour>
	  <point x="282" y="558"/>
	  <point x="294" y="570"/>
	  <point x="304" y="594" type="curve"/>
	  <point x="352" y="581" type="line"/>
	  <point x="342" y="506"/>
	  <point x="320" y="468"/>
	  <point x="284" y="468" type="curve" smooth="yes"/>
	  <point x="275" y="468"/>
	  <point x="262" y="471"/>
	  <point x="243" y="478" type="curve" smooth="yes"/>
	  <point x="224" y="486"/>
	  <point x="210" y="489"/>
	  <point x="200" y="489" type="curve" smooth="yes"/>
	  <point x="188" y="489"/>
	  <point x="176" y="477"/>
	  <point x="166" y="453" type="curve"/>
	  <point x="118" y="466" type="line"/>
	  <point x="127" y="541"/>
	  <point x="150" y="578"/>
	  <point x="186" y="578" type="curve" smooth="yes"/>
	  <point x="194" y="578"/>
	  <point x="208" y="575"/>
	  <point x="227" y="568" type="curve" smooth="yes"/>
	  <point x="246" y="561"/>
	  <point x="260" y="558"/>
	  <point x="270" y="558" type="curve" smooth="yes"/>
	</contour>
  </outline>
</glyph>
<glyph name="aring" format="1">
  <advance width="464"/>
  <unicode hex="00E5"/>
  <outline>
    <contour>
      <point x="99" y="-18"/>
      <point x="92" y="-18"/>
      <point x="88" y="-18" type="curve"/>
      <point x="52" y="7"/>
      <point x="28" y="61"/>
      <point x="28" y="113" type="curve" smooth="yes"/>
      <point x="28" y="181"/>
      <point x="71" y="210"/>
      <point x="210" y="210" type="curve" smooth="yes"/>
      <point x="235" y="210"/>
      <point x="262" y="209"/>
      <point x="290" y="205" type="curve"/>
      <point x="288" y="222" type="line" smooth="yes"/>
      <point x="284" y="265"/>
      <point x="245" y="292"/>
      <point x="188" y="292" type="curve" smooth="yes"/>
      <point x="160" y="292"/>
      <point x="131" y="283"/>
      <point x="103" y="266" type="curve"/>
      <point x="68" y="382" type="line"/>
      <point x="114" y="400"/>
      <point x="166" y="410"/>
      <point x="225" y="410" type="curve" smooth="yes"/>
      <point x="342" y="410"/>
      <point x="415" y="358"/>
      <point x="415" y="246" type="curve" smooth="yes"/>
      <point x="415" y="234"/>
      <point x="414" y="223"/>
      <point x="414" y="216" type="curve" smooth="yes"/>
      <point x="391" y="-5" type="line"/>
      <point x="312" y="-12" type="line"/>
      <point x="300" y="104" type="line"/>
      <point x="294" y="104" type="line"/>
      <point x="258" y="27"/>
      <point x="191" y="-18"/>
      <point x="108" y="-18" type="curve" smooth="yes"/>
    </contour>
    <contour>
      <point x="250" y="172" type="line" smooth="yes"/>
      <point x="215" y="172"/>
      <point x="186" y="170"/>
      <point x="164" y="166" type="curve"/>
      <point x="157" y="151"/>
      <point x="153" y="138"/>
      <point x="153" y="126" type="curve" smooth="yes"/>
      <point x="153" y="103"/>
      <point x="161" y="78"/>
      <point x="168" y="71" type="curve"/>
      <point x="232" y="82"/>
      <point x="274" y="114"/>
      <point x="293" y="171" type="curve"/>
    </contour>
    <contour>
      <point x="334" y="578"/>
      <point x="342" y="554"/>
      <point x="342" y="525" type="curve" smooth="yes"/>
      <point x="342" y="467"/>
      <point x="305" y="430"/>
      <point x="250" y="430" type="curve" smooth="yes"/>
      <point x="222" y="430"/>
      <point x="196" y="434"/>
      <point x="171" y="444" type="curve"/>
      <point x="158" y="464"/>
      <point x="150" y="488"/>
      <point x="150" y="517" type="curve" smooth="yes"/>
      <point x="150" y="574"/>
      <point x="187" y="612"/>
      <point x="242" y="612" type="curve" smooth="yes"/>
      <point x="270" y="612"/>
      <point x="296" y="607"/>
      <point x="321" y="598" type="curve"/>
    </contour>
    <contour>
      <point x="281" y="545"/>
      <point x="279" y="557"/>
      <point x="275" y="567" type="curve"/>
      <point x="270" y="571"/>
      <point x="260" y="574"/>
      <point x="246" y="574" type="curve"/>
      <point x="222" y="562"/>
      <point x="210" y="541"/>
      <point x="210" y="510" type="curve" smooth="yes"/>
      <point x="210" y="497"/>
      <point x="212" y="485"/>
      <point x="216" y="474" type="curve"/>
      <point x="222" y="470"/>
      <point x="231" y="468"/>
      <point x="246" y="468" type="curve"/>
      <point x="269" y="479"/>
      <point x="281" y="500"/>
      <point x="281" y="531" type="curve" smooth="yes"/>
    </contour>
  </outline>
</glyph>
<glyph name="ae" format="1">
  <advance width="687"/>
  <unicode hex="00E6"/>
  <outline>
	<contour>
	  <point x="293" y="171"/>
	  <point x="278" y="171"/>
	  <point x="250" y="172" type="curve" smooth="yes"/>
	  <point x="215" y="172"/>
	  <point x="186" y="170"/>
	  <point x="164" y="166" type="curve"/>
	  <point x="157" y="151"/>
	  <point x="153" y="138"/>
	  <point x="153" y="126" type="curve" smooth="yes"/>
	  <point x="153" y="103"/>
	  <point x="161" y="78"/>
	  <point x="168" y="71" type="curve"/>
	  <point x="232" y="82"/>
	  <point x="274" y="114"/>
	  <point x="293" y="171" type="curve"/>
	</contour>
	<contour>
	  <point x="578" y="379"/>
	  <point x="643" y="315"/>
	  <point x="643" y="238" type="curve" smooth="yes"/>
	  <point x="643" y="158"/>
	  <point x="606" y="125"/>
	  <point x="483" y="125" type="curve" smooth="yes"/>
	  <point x="444" y="125"/>
	  <point x="412" y="128"/>
	  <point x="387" y="134" type="curve"/>
	  <point x="377" y="109"/>
	  <point x="372" y="82"/>
	  <point x="372" y="55" type="curve"/>
	  <point x="396" y="52"/>
	  <point x="423" y="50"/>
	  <point x="454" y="50" type="curve" smooth="yes"/>
	  <point x="509" y="50"/>
	  <point x="562" y="59"/>
	  <point x="610" y="77" type="curve"/>
	  <point x="634" y="-1" type="line"/>
	  <point x="595" y="-13"/>
	  <point x="552" y="-19"/>
	  <point x="503" y="-19" type="curve" smooth="yes"/>
	  <point x="418" y="-19"/>
	  <point x="354" y="-3"/>
	  <point x="312" y="28" type="curve"/>
	  <point x="306" y="58"/>
	  <point x="302" y="87"/>
	  <point x="300" y="118" type="curve"/>
	  <point x="266" y="34"/>
	  <point x="195" y="-18"/>
	  <point x="108" y="-18" type="curve" smooth="yes"/>
	  <point x="99" y="-18"/>
	  <point x="92" y="-18"/>
	  <point x="88" y="-18" type="curve"/>
	  <point x="52" y="7"/>
	  <point x="28" y="61"/>
	  <point x="28" y="113" type="curve" smooth="yes"/>
	  <point x="28" y="181"/>
	  <point x="71" y="210"/>
	  <point x="210" y="210" type="curve" smooth="yes"/>
	  <point x="235" y="210"/>
	  <point x="262" y="209"/>
	  <point x="290" y="205" type="curve"/>
	  <point x="288" y="222" type="line" smooth="yes"/>
	  <point x="284" y="265"/>
	  <point x="245" y="292"/>
	  <point x="188" y="292" type="curve" smooth="yes"/>
	  <point x="160" y="292"/>
	  <point x="131" y="283"/>
	  <point x="103" y="266" type="curve"/>
	  <point x="68" y="382" type="line"/>
	  <point x="114" y="400"/>
	  <point x="165" y="410"/>
	  <point x="221" y="410" type="curve" smooth="yes"/>
	  <point x="290" y="410"/>
	  <point x="340" y="394"/>
	  <point x="373" y="361" type="curve"/>
	  <point x="397" y="393"/>
	  <point x="422" y="416"/>
	  <point x="450" y="431" type="curve"/>
	</contour>
	<contour>
	  <point x="410" y="170"/>
	  <point x="428" y="170"/>
	  <point x="456" y="170" type="curve" smooth="yes"/>
	  <point x="484" y="170"/>
	  <point x="516" y="174"/>
	  <point x="552" y="182" type="curve"/>
	  <point x="554" y="192"/>
	  <point x="554" y="202"/>
	  <point x="554" y="212" type="curve" smooth="yes"/>
	  <point x="554" y="244"/>
	  <point x="546" y="274"/>
	  <point x="528" y="304" type="curve"/>
	  <point x="475" y="269"/>
	  <point x="434" y="225"/>
	  <point x="403" y="171" type="curve"/>
	</contour>
  </outline>
</glyph>
<glyph name="edieresis" format="1">
  <advance width="427"/>
  <unicode hex="00EB"/>
  <outline>
    <contour>
      <point x="318" y="379"/>
      <point x="383" y="315"/>
      <point x="383" y="238" type="curve" smooth="yes"/>
      <point x="383" y="158"/>
      <point x="346" y="125"/>
      <point x="223" y="125" type="curve" smooth="yes"/>
      <point x="184" y="125"/>
      <point x="152" y="128"/>
      <point x="127" y="134" type="curve"/>
      <point x="117" y="109"/>
      <point x="112" y="82"/>
      <point x="112" y="55" type="curve"/>
      <point x="136" y="52"/>
      <point x="163" y="50"/>
      <point x="194" y="50" type="curve" smooth="yes"/>
      <point x="249" y="50"/>
      <point x="302" y="59"/>
      <point x="350" y="77" type="curve"/>
      <point x="374" y="-1" type="line"/>
      <point x="335" y="-13"/>
      <point x="292" y="-19"/>
      <point x="243" y="-19" type="curve" smooth="yes"/>
      <point x="157" y="-19"/>
      <point x="94" y="-3"/>
      <point x="53" y="28" type="curve"/>
      <point x="44" y="66"/>
      <point x="40" y="102"/>
      <point x="40" y="135" type="curve" smooth="yes"/>
      <point x="40" y="270"/>
      <point x="109" y="386"/>
      <point x="190" y="431" type="curve"/>
    </contour>
    <contour>
      <point x="150" y="170"/>
      <point x="168" y="170"/>
      <point x="196" y="170" type="curve" smooth="yes"/>
      <point x="224" y="170"/>
      <point x="256" y="174"/>
      <point x="292" y="182" type="curve"/>
      <point x="294" y="192"/>
      <point x="294" y="202"/>
      <point x="294" y="212" type="curve" smooth="yes"/>
      <point x="294" y="244"/>
      <point x="286" y="274"/>
      <point x="268" y="304" type="curve"/>
      <point x="215" y="269"/>
      <point x="174" y="225"/>
      <point x="143" y="171" type="curve"/>
    </contour>
    <contour>
      <point x="103" y="492"/>
      <point x="97" y="507"/>
      <point x="97" y="526" type="curve" smooth="yes"/>
      <point x="97" y="562"/>
      <point x="125" y="593"/>
      <point x="158" y="593" type="curve" smooth="yes"/>
      <point x="190" y="593"/>
      <point x="218" y="562"/>
      <point x="218" y="526" type="curve" smooth="yes"/>
      <point x="218" y="490"/>
      <point x="190" y="458"/>
      <point x="158" y="458" type="curve" smooth="yes"/>
      <point x="141" y="458"/>
      <point x="127" y="465"/>
      <point x="115" y="478" type="curve" smooth="yes"/>
    </contour>
    <contour>
      <point x="271" y="492"/>
      <point x="265" y="507"/>
      <point x="265" y="526" type="curve" smooth="yes"/>
      <point x="265" y="562"/>
      <point x="293" y="593"/>
      <point x="326" y="593" type="curve" smooth="yes"/>
      <point x="358" y="593"/>
      <point x="386" y="562"/>
      <point x="386" y="526" type="curve" smooth="yes"/>
      <point x="386" y="490"/>
      <point x="358" y="458"/>
      <point x="326" y="458" type="curve" smooth="yes"/>
      <point x="309" y="458"/>
      <point x="295" y="465"/>
      <point x="283" y="478" type="curve" smooth="yes"/>
    </contour>
  </outline>
</glyph>
<glyph name="igrave" format="1">
  <advance width="283"/>
  <unicode hex="00EC"/>
  <outline>
    <contour>
      <point x="97" y="-12" type="line"/>
      <point x="56" y="384" type="line"/>
      <point x="227" y="410" type="line"/>
      <point x="176" y="-5" type="line"/>
    </contour>
    <contour>
      <point x="94" y="602" type="line"/>
      <point x="237" y="505" type="line"/>
      <point x="210" y="450" type="line"/>
      <point x="46" y="502" type="line"/>
    </contour>
  </outline>
</glyph>
<glyph name="iacute" format="1">
  <advance width="283"/>
  <unicode hex="00ED"/>
  <outline>
	<contour>
	  <point x="97" y="-12" type="line"/>
	  <point x="56" y="384" type="line"/>
	  <point x="227" y="410" type="line"/>
	  <point x="176" y="-5" type="line"/>
	</contour>
	<contour>
	  <point x="46" y="505" type="line"/>
	  <point x="189" y="602" type="line"/>
	  <point x="237" y="502" type="line"/>
	  <point x="74" y="450" type="line"/>
	</contour>
  </outline>
</glyph>
<glyph name="icircumflex" format="1">
  <advance width="283"/>
  <unicode hex="00EE"/>
  <outline>
    <contour>
      <point x="97" y="-12" type="line"/>
      <point x="56" y="384" type="line"/>
      <point x="227" y="410" type="line"/>
      <point x="176" y="-5" type="line"/>
    </contour>
    <contour>
      <point x="26" y="491" type="line"/>
      <point x="118" y="601" type="line"/>
      <point x="268" y="527" type="line"/>
      <point x="208" y="455" type="line"/>
      <point x="147" y="505" type="line"/>
      <point x="53" y="453" type="line"/>
    </contour>
  </outline>
</glyph>
<glyph name="idieresis" format="1">
  <advance width="283"/>
  <unicode hex="00EF"/>
  <outline>
	<contour>
	  <point x="97" y="-12" type="line"/>
	  <point x="56" y="384" type="line"/>
	  <point x="227" y="410" type="line"/>
	  <point x="176" y="-5" type="line"/>
	</contour>
	<contour>
	  <point x="3" y="492"/>
	  <point x="-3" y="507"/>
	  <point x="-3" y="526" type="curve" smooth="yes"/>
	  <point x="-3" y="562"/>
	  <point x="25" y="593"/>
	  <point x="58" y="593" type="curve" smooth="yes"/>
	  <point x="90" y="593"/>
	  <point x="118" y="562"/>
	  <point x="118" y="526" type="curve" smooth="yes"/>
	  <point x="118" y="490"/>
	  <point x="90" y="458"/>
	  <point x="58" y="458" type="curve" smooth="yes"/>
	  <point x="41" y="458"/>
	  <point x="27" y="465"/>
	  <point x="15" y="478" type="curve" smooth="yes"/>
	</contour>
	<contour>
	  <point x="171" y="492"/>
	  <point x="165" y="507"/>
	  <point x="165" y="526" type="curve" smooth="yes"/>
	  <point x="165" y="562"/>
	  <point x="193" y="593"/>
	  <point x="226" y="593" type="curve" smooth="yes"/>
	  <point x="258" y="593"/>
	  <point x="286" y="562"/>
	  <point x="286" y="526" type="curve" smooth="yes"/>
	  <point x="286" y="490"/>
	  <point x="258" y="458"/>
	  <point x="226" y="458" type="curve" smooth="yes"/>
	  <point x="209" y="458"/>
	  <point x="195" y="465"/>
	  <point x="183" y="478" type="curve" smooth="yes"/>
	</contour>
  </outline>
</glyph>
<glyph name="eth" format="1">
  <advance width="468"/>
  <unicode hex="00F0"/>
  <outline>
	<contour>
	  <point x="183" y="230"/>
	  <point x="179" y="200"/>
	  <point x="179" y="154" type="curve" smooth="yes"/>
	  <point x="179" y="109"/>
	  <point x="183" y="71"/>
	  <point x="191" y="42" type="curve"/>
	  <point x="207" y="38"/>
	  <point x="224" y="36"/>
	  <point x="241" y="36" type="curve" smooth="yes"/>
	  <point x="258" y="36"/>
	  <point x="277" y="42"/>
	  <point x="300" y="53" type="curve"/>
	  <point x="282" y="161"/>
	  <point x="246" y="225"/>
	  <point x="191" y="243" type="curve"/>
	</contour>
	<contour>
	  <point x="410" y="122"/>
	  <point x="405" y="78"/>
	  <point x="396" y="33" type="curve"/>
	  <point x="358" y="2"/>
	  <point x="290" y="-19"/>
	  <point x="217" y="-19" type="curve" smooth="yes"/>
	  <point x="85" y="-19"/>
	  <point x="40" y="28"/>
	  <point x="40" y="131" type="curve" smooth="yes"/>
	  <point x="40" y="207"/>
	  <point x="62" y="252"/>
	  <point x="105" y="294" type="curve"/>
	  <point x="120" y="299"/>
	  <point x="136" y="302"/>
	  <point x="153" y="302" type="curve" smooth="yes"/>
	  <point x="214" y="302"/>
	  <point x="266" y="260"/>
	  <point x="298" y="182" type="curve"/>
	  <point x="308" y="188" type="line"/>
	  <point x="282" y="285"/>
	  <point x="180" y="434"/>
	  <point x="114" y="495" type="curve"/>
	  <point x="235" y="576" type="line"/>
	  <point x="322" y="518"/>
	  <point x="410" y="344"/>
	  <point x="410" y="166" type="curve" smooth="yes"/>
	</contour>
	<contour>
	  <point x="412" y="492" type="line"/>
	  <point x="141" y="338" type="line"/>
	  <point x="111" y="398" type="line"/>
	  <point x="392" y="533" type="line"/>
	</contour>
  </outline>
</glyph>
<glyph name="ntilde" format="1">
  <advance width="528"/>
  <unicode hex="00F1"/>
  <outline>
	<contour>
	  <point x="381" y="418"/>
	  <point x="390" y="417"/>
	  <point x="400" y="414" type="curve"/>
	  <point x="454" y="347"/>
	  <point x="471" y="160"/>
	  <point x="471" y="0" type="curve"/>
	  <point x="327" y="-12" type="line"/>
	  <point x="327" y="110"/>
	  <point x="322" y="222"/>
	  <point x="314" y="323" type="curve"/>
	  <point x="242" y="297"/>
	  <point x="195" y="188"/>
	  <point x="172" y="-5" type="curve"/>
	  <point x="93" y="-12" type="line"/>
	  <point x="52" y="385" type="line"/>
	  <point x="223" y="411" type="line"/>
	  <point x="206" y="270" type="line"/>
	  <point x="213" y="270" type="line"/>
	  <point x="255" y="363"/>
	  <point x="312" y="418"/>
	  <point x="370" y="418" type="curve" smooth="yes"/>
	</contour>
	<contour>
	  <point x="314" y="558"/>
	  <point x="326" y="570"/>
	  <point x="336" y="594" type="curve"/>
	  <point x="384" y="581" type="line"/>
	  <point x="374" y="506"/>
	  <point x="352" y="468"/>
	  <point x="316" y="468" type="curve" smooth="yes"/>
	  <point x="307" y="468"/>
	  <point x="294" y="471"/>
	  <point x="275" y="478" type="curve" smooth="yes"/>
	  <point x="256" y="486"/>
	  <point x="242" y="489"/>
	  <point x="232" y="489" type="curve" smooth="yes"/>
	  <point x="220" y="489"/>
	  <point x="208" y="477"/>
	  <point x="198" y="453" type="curve"/>
	  <point x="150" y="466" type="line"/>
	  <point x="159" y="541"/>
	  <point x="182" y="578"/>
	  <point x="218" y="578" type="curve" smooth="yes"/>
	  <point x="226" y="578"/>
	  <point x="240" y="575"/>
	  <point x="259" y="568" type="curve" smooth="yes"/>
	  <point x="278" y="561"/>
	  <point x="292" y="558"/>
	  <point x="302" y="558" type="curve" smooth="yes"/>
	</contour>
  </outline>
</glyph>
<glyph name="ocircumflex" format="1">
  <advance width="430"/>
  <unicode hex="00F4"/>
  <outline>
    <contour>
      <point x="390" y="31"/>
      <point x="349" y="-19"/>
      <point x="212" y="-19" type="curve" smooth="yes"/>
      <point x="144" y="-19"/>
      <point x="90" y="-4"/>
      <point x="52" y="27" type="curve"/>
      <point x="44" y="66"/>
      <point x="40" y="104"/>
      <point x="40" y="142" type="curve" smooth="yes"/>
      <point x="40" y="219"/>
      <point x="65" y="290"/>
      <point x="98" y="338" type="curve" smooth="yes"/>
      <point x="132" y="386"/>
      <point x="163" y="418"/>
      <point x="190" y="431" type="curve"/>
      <point x="293" y="379"/>
      <point x="390" y="286"/>
      <point x="390" y="147" type="curve" smooth="yes"/>
    </contour>
    <contour>
      <point x="298" y="219"/>
      <point x="287" y="266"/>
      <point x="266" y="308" type="curve"/>
      <point x="177" y="261"/>
      <point x="113" y="154"/>
      <point x="113" y="55" type="curve"/>
      <point x="130" y="52"/>
      <point x="154" y="50"/>
      <point x="186" y="50" type="curve" smooth="yes"/>
      <point x="218" y="50"/>
      <point x="251" y="56"/>
      <point x="285" y="67" type="curve"/>
      <point x="294" y="100"/>
      <point x="298" y="134"/>
      <point x="298" y="169" type="curve" smooth="yes"/>
    </contour>
    <contour>
      <point x="99" y="491" type="line"/>
      <point x="192" y="601" type="line"/>
      <point x="342" y="527" type="line"/>
      <point x="282" y="455" type="line"/>
      <point x="221" y="505" type="line"/>
      <point x="126" y="453" type="line"/>
    </contour>
  </outline>
</glyph>
<glyph name="otilde" format="1">
  <advance width="430"/>
  <unicode hex="00F5"/>
  <outline>
    <contour>
      <point x="390" y="31"/>
      <point x="349" y="-19"/>
      <point x="212" y="-19" type="curve" smooth="yes"/>
      <point x="144" y="-19"/>
      <point x="90" y="-4"/>
      <point x="52" y="27" type="curve"/>
      <point x="44" y="66"/>
      <point x="40" y="104"/>
      <point x="40" y="142" type="curve" smooth="yes"/>
      <point x="40" y="219"/>
      <point x="65" y="290"/>
      <point x="98" y="338" type="curve" smooth="yes"/>
      <point x="132" y="386"/>
      <point x="163" y="418"/>
      <point x="190" y="431" type="curve"/>
      <point x="293" y="379"/>
      <point x="390" y="286"/>
      <point x="390" y="147" type="curve" smooth="yes"/>
    </contour>
    <contour>
      <point x="298" y="219"/>
      <point x="287" y="266"/>
      <point x="266" y="308" type="curve"/>
      <point x="177" y="261"/>
      <point x="113" y="154"/>
      <point x="113" y="55" type="curve"/>
      <point x="130" y="52"/>
      <point x="154" y="50"/>
      <point x="186" y="50" type="curve" smooth="yes"/>
      <point x="218" y="50"/>
      <point x="251" y="56"/>
      <point x="285" y="67" type="curve"/>
      <point x="294" y="100"/>
      <point x="298" y="134"/>
      <point x="298" y="169" type="curve" smooth="yes"/>
    </contour>
    <contour>
      <point x="265" y="558"/>
      <point x="277" y="570"/>
      <point x="287" y="594" type="curve"/>
      <point x="335" y="581" type="line"/>
      <point x="326" y="506"/>
      <point x="303" y="468"/>
      <point x="267" y="468" type="curve" smooth="yes"/>
      <point x="258" y="468"/>
      <point x="245" y="471"/>
      <point x="226" y="478" type="curve" smooth="yes"/>
      <point x="207" y="486"/>
      <point x="193" y="489"/>
      <point x="183" y="489" type="curve" smooth="yes"/>
      <point x="171" y="489"/>
      <point x="159" y="477"/>
      <point x="149" y="453" type="curve"/>
      <point x="101" y="466" type="line"/>
      <point x="110" y="541"/>
      <point x="133" y="578"/>
      <point x="169" y="578" type="curve" smooth="yes"/>
      <point x="178" y="578"/>
      <point x="191" y="575"/>
      <point x="210" y="568" type="curve" smooth="yes"/>
      <point x="229" y="561"/>
      <point x="243" y="558"/>
      <point x="253" y="558" type="curve" smooth="yes"/>
    </contour>
  </outline>
</glyph>
<glyph name="odieresis" format="1">
  <advance width="430"/>
  <unicode hex="00F6"/>
  <outline>
    <contour>
      <point x="390" y="31"/>
      <point x="349" y="-19"/>
      <point x="212" y="-19" type="curve" smooth="yes"/>
      <point x="144" y="-19"/>
      <point x="90" y="-4"/>
      <point x="52" y="27" type="curve"/>
      <point x="44" y="66"/>
      <point x="40" y="104"/>
      <point x="40" y="142" type="curve" smooth="yes"/>
      <point x="40" y="219"/>
      <point x="65" y="290"/>
      <point x="98" y="338" type="curve" smooth="yes"/>
      <point x="132" y="386"/>
      <point x="163" y="418"/>
      <point x="190" y="431" type="curve"/>
      <point x="293" y="379"/>
      <point x="390" y="286"/>
      <point x="390" y="147" type="curve" smooth="yes"/>
    </contour>
    <contour>
      <point x="298" y="219"/>
      <point x="287" y="266"/>
      <point x="266" y="308" type="curve"/>
      <point x="177" y="261"/>
      <point x="113" y="154"/>
      <point x="113" y="55" type="curve"/>
      <point x="130" y="52"/>
      <point x="154" y="50"/>
      <point x="186" y="50" type="curve" smooth="yes"/>
      <point x="218" y="50"/>
      <point x="251" y="56"/>
      <point x="285" y="67" type="curve"/>
      <point x="294" y="100"/>
      <point x="298" y="134"/>
      <point x="298" y="169" type="curve" smooth="yes"/>
    </contour>
    <contour>
      <point x="77" y="492"/>
      <point x="70" y="507"/>
      <point x="70" y="526" type="curve" smooth="yes"/>
      <point x="70" y="562"/>
      <point x="98" y="593"/>
      <point x="131" y="593" type="curve" smooth="yes"/>
      <point x="164" y="593"/>
      <point x="192" y="562"/>
      <point x="192" y="526" type="curve" smooth="yes"/>
      <point x="192" y="490"/>
      <point x="164" y="458"/>
      <point x="131" y="458" type="curve" smooth="yes"/>
      <point x="114" y="458"/>
      <point x="101" y="465"/>
      <point x="89" y="478" type="curve" smooth="yes"/>
    </contour>
    <contour>
      <point x="245" y="492"/>
      <point x="238" y="507"/>
      <point x="238" y="526" type="curve" smooth="yes"/>
      <point x="238" y="562"/>
      <point x="266" y="593"/>
      <point x="299" y="593" type="curve" smooth="yes"/>
      <point x="332" y="593"/>
      <point x="360" y="562"/>
      <point x="360" y="526" type="curve" smooth="yes"/>
      <point x="360" y="490"/>
      <point x="332" y="458"/>
      <point x="299" y="458" type="curve" smooth="yes"/>
      <point x="282" y="458"/>
      <point x="269" y="465"/>
      <point x="257" y="478" type="curve" smooth="yes"/>
    </contour>
  </outline>
</glyph>
<glyph name="divide" format="1">
  <advance width="490"/>
  <unicode hex="00F7"/>
  <outline>
	<contour>
	  <point x="410" y="229" type="line"/>
	  <point x="72" y="207" type="line"/>
	  <point x="80" y="295" type="line"/>
	  <point x="418" y="295" type="line"/>
	</contour>
	<contour>
	  <point x="316" y="418"/>
	  <point x="313" y="387"/>
	  <point x="307" y="363" type="curve"/>
	  <point x="284" y="355"/>
	  <point x="262" y="351"/>
	  <point x="238" y="351" type="curve" smooth="yes"/>
	  <point x="215" y="351"/>
	  <point x="198" y="353"/>
	  <point x="188" y="355" type="curve"/>
	  <point x="188" y="390"/>
	  <point x="194" y="421"/>
	  <point x="208" y="447" type="curve"/>
	  <point x="232" y="453"/>
	  <point x="268" y="456"/>
	  <point x="316" y="456" type="curve"/>
	</contour>
	<contour>
	  <point x="300" y="126"/>
	  <point x="297" y="95"/>
	  <point x="291" y="71" type="curve"/>
	  <point x="268" y="63"/>
	  <point x="246" y="59"/>
	  <point x="222" y="59" type="curve" smooth="yes"/>
	  <point x="199" y="59"/>
	  <point x="182" y="61"/>
	  <point x="172" y="63" type="curve"/>
	  <point x="172" y="98"/>
	  <point x="178" y="129"/>
	  <point x="192" y="155" type="curve"/>
	  <point x="216" y="161"/>
	  <point x="252" y="164"/>
	  <point x="300" y="164" type="curve"/>
	</contour>
  </outline>
</glyph>
<glyph name="oslash" format="1">
  <advance width="430"/>
  <unicode hex="00F8"/>
  <outline>
	<contour>
	  <point x="341" y="519" type="line"/>
	  <point x="158" y="-157" type="line"/>
	  <point x="105" y="-145" type="line"/>
	  <point x="288" y="531" type="line"/>
	</contour>
	<contour>
	  <point x="390" y="286"/>
	  <point x="293" y="379"/>
	  <point x="190" y="431" type="curve"/>
	  <point x="136" y="405"/>
	  <point x="78" y="318"/>
	  <point x="57" y="251" type="curve" smooth="yes"/>
	  <point x="46" y="217"/>
	  <point x="40" y="181"/>
	  <point x="40" y="142" type="curve" smooth="yes"/>
	  <point x="40" y="104"/>
	  <point x="44" y="66"/>
	  <point x="52" y="27" type="curve"/>
	  <point x="90" y="-4"/>
	  <point x="144" y="-19"/>
	  <point x="212" y="-19" type="curve" smooth="yes"/>
	  <point x="349" y="-19"/>
	  <point x="390" y="31"/>
	  <point x="390" y="147" type="curve" smooth="yes"/>
	</contour>
	<contour>
	  <point x="298" y="134"/>
	  <point x="294" y="100"/>
	  <point x="285" y="67" type="curve"/>
	  <point x="251" y="56"/>
	  <point x="218" y="50"/>
	  <point x="186" y="50" type="curve" smooth="yes"/>
	  <point x="154" y="50"/>
	  <point x="130" y="52"/>
	  <point x="113" y="55" type="curve"/>
	  <point x="113" y="154"/>
	  <point x="177" y="261"/>
	  <point x="266" y="308" type="curve"/>
	  <point x="287" y="266"/>
	  <point x="298" y="219"/>
	  <point x="298" y="169" type="curve" smooth="yes"/>
	</contour>
  </outline>
</glyph>
<glyph name="udieresis" format="1">
  <advance width="552"/>
  <unicode hex="00FC"/>
  <outline>
	<contour>
	  <point x="322" y="145"/>
	  <point x="334" y="210"/>
	  <point x="334" y="255" type="curve" smooth="yes"/>
	  <point x="334" y="277"/>
	  <point x="331" y="320"/>
	  <point x="325" y="384" type="curve"/>
	  <point x="496" y="410" type="line"/>
	  <point x="445" y="-5" type="line"/>
	  <point x="366" y="-12" type="line"/>
	  <point x="350" y="140" type="line"/>
	  <point x="344" y="140" type="line"/>
	  <point x="305" y="34"/>
	  <point x="242" y="-18"/>
	  <point x="155" y="-18" type="curve" smooth="yes"/>
	  <point x="142" y="-18"/>
	  <point x="132" y="-16"/>
	  <point x="123" y="-12" type="curve"/>
	  <point x="69" y="54"/>
	  <point x="52" y="236"/>
	  <point x="52" y="394" type="curve"/>
	  <point x="212" y="406" type="line"/>
	  <point x="202" y="312"/>
	  <point x="198" y="242"/>
	  <point x="198" y="196" type="curve" smooth="yes"/>
	  <point x="198" y="150"/>
	  <point x="202" y="100"/>
	  <point x="210" y="46" type="curve"/>
	  <point x="239" y="53"/>
	  <point x="263" y="69"/>
	  <point x="283" y="94" type="curve" smooth="yes"/>
	</contour>
	<contour>
	  <point x="138" y="492"/>
	  <point x="131" y="507"/>
	  <point x="131" y="526" type="curve" smooth="yes"/>
	  <point x="131" y="562"/>
	  <point x="159" y="593"/>
	  <point x="192" y="593" type="curve" smooth="yes"/>
	  <point x="225" y="593"/>
	  <point x="253" y="562"/>
	  <point x="253" y="526" type="curve" smooth="yes"/>
	  <point x="253" y="490"/>
	  <point x="225" y="458"/>
	  <point x="192" y="458" type="curve" smooth="yes"/>
	  <point x="175" y="458"/>
	  <point x="162" y="465"/>
	  <point x="150" y="478" type="curve" smooth="yes"/>
	</contour>
	<contour>
	  <point x="306" y="492"/>
	  <point x="299" y="507"/>
	  <point x="299" y="526" type="curve" smooth="yes"/>
	  <point x="299" y="562"/>
	  <point x="327" y="593"/>
	  <point x="360" y="593" type="curve" smooth="yes"/>
	  <point x="393" y="593"/>
	  <point x="421" y="562"/>
	  <point x="421" y="526" type="curve" smooth="yes"/>
	  <point x="421" y="490"/>
	  <point x="393" y="458"/>
	  <point x="360" y="458" type="curve" smooth="yes"/>
	  <point x="343" y="458"/>
	  <point x="330" y="465"/>
	  <point x="318" y="478" type="curve" smooth="yes"/>
	</contour>
  </outline>
</glyph>
<glyph name="thorn" format="1">
  <advance width="542"/>
  <unicode hex="00FE"/>
  <outline>
    <contour>
      <point x="391" y="418"/>
      <point x="401" y="417"/>
      <point x="410" y="414" type="curve"/>
      <point x="449" y="368"/>
      <point x="475" y="270"/>
      <point x="475" y="156" type="curve" smooth="yes"/>
      <point x="475" y="42"/>
      <point x="431" y="-19"/>
      <point x="309" y="-19" type="curve" smooth="yes"/>
      <point x="265" y="-19"/>
      <point x="222" y="-10"/>
      <point x="181" y="10" type="curve"/>
      <point x="163" y="-166" type="line"/>
      <point x="66" y="-174" type="line"/>
      <point x="66" y="546" type="line"/>
      <point x="237" y="573" type="line"/>
      <point x="203" y="241" type="line"/>
      <point x="210" y="241" type="line"/>
      <point x="254" y="350"/>
      <point x="316" y="418"/>
      <point x="381" y="418" type="curve" smooth="yes"/>
    </contour>
    <contour>
      <point x="298" y="30"/>
      <point x="314" y="34"/>
      <point x="328" y="42" type="curve"/>
      <point x="336" y="82"/>
      <point x="340" y="122"/>
      <point x="340" y="158" type="curve" smooth="yes"/>
      <point x="340" y="231"/>
      <point x="333" y="300"/>
      <point x="324" y="323" type="curve"/>
      <point x="301" y="314"/>
      <point x="295" y="314"/>
      <point x="270" y="290" type="curve" smooth="yes"/>
      <point x="257" y="278"/>
      <point x="246" y="263"/>
      <point x="238" y="246" type="curve" smooth="yes"/>
      <point x="217" y="202"/>
      <point x="202" y="139"/>
      <point x="191" y="59" type="curve"/>
      <point x="215" y="40"/>
      <point x="244" y="30"/>
      <point x="278" y="30" type="curve" smooth="yes"/>
    </contour>
  </outline>
</glyph>
<glyph name="ydieresis" format="1">
  <advance width="453"/>
  <unicode hex="00FF"/>
  <outline>
    <contour>
      <point x="255" y="-46" type="line" smooth="yes"/>
      <point x="218" y="-139"/>
      <point x="184" y="-170"/>
      <point x="118" y="-170" type="curve" smooth="yes"/>
      <point x="86" y="-170"/>
      <point x="54" y="-158"/>
      <point x="24" y="-134" type="curve"/>
      <point x="48" y="-93" type="line"/>
      <point x="66" y="-99"/>
      <point x="85" y="-102"/>
      <point x="106" y="-102" type="curve" smooth="yes"/>
      <point x="148" y="-102"/>
      <point x="186" y="-75"/>
      <point x="196" y="-18" type="curve"/>
      <point x="30" y="384" type="line"/>
      <point x="202" y="410" type="line"/>
      <point x="254" y="103" type="line"/>
      <point x="261" y="103" type="line"/>
      <point x="364" y="408" type="line"/>
      <point x="429" y="390" type="line"/>
    </contour>
    <contour>
      <point x="119" y="492"/>
      <point x="113" y="507"/>
      <point x="113" y="526" type="curve" smooth="yes"/>
      <point x="113" y="562"/>
      <point x="141" y="593"/>
      <point x="174" y="593" type="curve" smooth="yes"/>
      <point x="206" y="593"/>
      <point x="234" y="562"/>
      <point x="234" y="526" type="curve" smooth="yes"/>
      <point x="234" y="490"/>
      <point x="206" y="458"/>
      <point x="174" y="458" type="curve" smooth="yes"/>
      <point x="157" y="458"/>
      <point x="143" y="465"/>
      <point x="131" y="478" type="curve" smooth="yes"/>
    </contour>
    <contour>
      <point x="287" y="492"/>
      <point x="281" y="507"/>
      <point x="281" y="526" type="curve" smooth="yes"/>
      <point x="281" y="562"/>
      <point x="309" y="593"/>
      <point x="342" y="593" type="curve" smooth="yes"/>
      <point x="374" y="593"/>
      <point x="402" y="562"/>
      <point x="402" y="526" type="curve" smooth="yes"/>
      <point x="402" y="490"/>
      <point x="374" y="458"/>
      <point x="342" y="458" type="curve" smooth="yes"/>
      <point x="325" y="458"/>
      <point x="311" y="465"/>
      <point x="299" y="478" type="curve" smooth="yes"/>
    </contour>
  </outline>
</glyph>
